<svg width="223" height="171" viewBox="0 0 223 171" fill="none" xmlns="http://www.w3.org/2000/svg">
<g style="mix-blend-mode:multiply" opacity="0.2">
<path d="M127.199 170.976C84.9051 170.976 50.6194 169.555 50.6194 167.801C50.6194 166.047 84.9051 164.625 127.199 164.625C169.492 164.625 203.778 166.047 203.778 167.801C203.778 169.555 169.492 170.976 127.199 170.976Z" fill="#0099CE"/>
</g>
<path fill-rule="evenodd" clip-rule="evenodd" d="M65.5164 37.1003V31.5026L24.9998 8.97687L27.9063 18.9479L51.0106 25.1243L53.2175 46.7888L65.5164 37.1003Z" fill="url(#paint0_linear)"/>
<path fill-rule="evenodd" clip-rule="evenodd" d="M43.354 102.552L44.4574 97.075V80.5507C44.4574 80.5507 21.8914 65.3856 20.4112 43.6C19.0656 23.4157 46.7181 25.5552 53.2175 46.7891L65.5164 37.1006C65.5164 37.1006 54.4554 -2.24536 24.9998 4.89989C-5.64007 12.3277 -10.3901 60.8912 28.7675 82.3673L30.8801 98.0304L32.6563 102.552H43.354Z" fill="url(#paint1_linear)"/>
<path fill-rule="evenodd" clip-rule="evenodd" d="M2.87773 45.4166C5.66317 57.0293 13.8849 68.6151 28.7675 76.7695L31.5798 98.2995L44.4574 97.1153V74.9529C44.4574 74.9529 27.7179 63.7035 22.1336 46.6949C21.1917 43.8871 20.6129 40.9703 20.4112 38.0156C19.6442 26.5106 28.8751 22.0296 38.1868 24.2499C45.211 25.8916 50.432 32.068 53.2309 41.2048L65.5164 31.5297C65.5164 31.5297 59.5822 7.48347 41.2952 2.6796C36.6787 1.53197 31.8476 1.56437 27.2469 2.7738C8.19292 7.37583 -1.68393 26.4702 2.87773 45.4166Z" fill="url(#paint2_linear)"/>
<path fill-rule="evenodd" clip-rule="evenodd" d="M79.3222 163.105C94.3258 167.653 105.602 163.024 105.602 163.024C110.231 129.572 110.769 124.001 112.263 102.619L106.706 101.354C104.418 115.739 101.781 142.274 96.6941 150.685C93.0879 154.721 80.8966 157.157 80.8966 157.157C79.6573 158.878 79.0967 160.996 79.3222 163.105Z" fill="url(#paint3_linear)"/>
<path fill-rule="evenodd" clip-rule="evenodd" d="M79.3216 163.105C94.3253 167.653 105.602 163.024 105.602 163.024C105.602 163.024 108.293 146.876 109.517 133.232L102.453 130.043C99.7616 145.921 96.6936 150.684 96.6936 150.684C93.0873 154.721 80.896 157.157 80.896 157.157C79.6567 158.878 79.0961 160.996 79.3216 163.105Z" fill="url(#paint4_linear)"/>
<path fill-rule="evenodd" clip-rule="evenodd" d="M105.643 163.105V165.621C105.643 165.621 87.3422 167.545 79.3089 164.37V163.185C88.0685 164.016 96.8883 163.989 105.643 163.105Z" fill="url(#paint5_linear)"/>
<g style="mix-blend-mode:soft-light" opacity="0.7">
<path fill-rule="evenodd" clip-rule="evenodd" d="M95.4688 150.738L100.555 154.398C100.555 154.398 90.2344 158.099 80.9899 157.211C80.9361 157.211 90.2209 156.013 95.4688 150.738Z" fill="white"/>
</g>
<path fill-rule="evenodd" clip-rule="evenodd" d="M219.387 71.6024C214.664 86.7675 204.303 104.341 193.242 111.002C191.569 112.03 189.756 112.81 187.859 113.317C184.688 113.938 181.485 114.387 178.265 114.662C166.345 115.873 154.31 115.283 142.566 112.913C142.566 112.913 137.183 110.464 134.936 107.194C134.936 107.194 101.726 102.323 86.4937 96.7117C83.8025 95.7159 68.7854 74.5493 72.1898 42.4831C73.1378 33.8365 75.2236 25.3531 78.3931 17.2527C78.3931 17.2527 101.672 -2.27229 139.525 0.284389C177.377 2.84107 189.905 11.0494 193.726 13.1485C202.527 17.9524 217.127 36.5489 221.46 51.6333C222.805 56.2892 221.877 63.6094 219.387 71.6024Z" fill="url(#paint6_linear)"/>
<path style="mix-blend-mode:multiply" opacity="0.3" fill-rule="evenodd" clip-rule="evenodd" d="M111.617 25.461C111.617 25.461 116.528 38.4597 121.305 41.3797C126.082 44.2997 141.22 46.4258 148.217 42.6042C155.215 38.7826 156.291 26.9681 156.291 26.9681C157.615 28.9562 158.712 31.0866 159.561 33.3194C160.234 35.7415 146.28 52.3599 138.906 52.8847C126.513 53.7728 109.773 42.1198 109.773 42.1198L107.997 36.0645L111.617 25.461Z" fill="url(#paint7_linear)"/>
<path style="mix-blend-mode:multiply" opacity="0.3" fill-rule="evenodd" clip-rule="evenodd" d="M109.53 26.1607C109.53 26.1607 101.645 36.9257 97.1773 40.9626C92.7098 44.9995 87.5023 42.3082 84.4612 39.4824C81.4201 36.6566 85.4166 24.6806 85.4166 24.6806C85.4166 24.6806 81.3797 28.1254 80.7338 31.4087C80.0879 34.692 81.9045 47.139 84.986 48.377C88.0674 49.6149 98.8055 46.2509 103.071 42.5908C107.337 38.9307 109.53 26.1607 109.53 26.1607Z" fill="url(#paint8_linear)"/>
<path style="mix-blend-mode:multiply" opacity="0.3" fill-rule="evenodd" clip-rule="evenodd" d="M90.894 28.7174C90.8305 29.792 91.1122 30.8586 91.6981 31.7616C92.2839 32.6647 93.1432 33.3567 94.1504 33.7366C97.6624 34.8803 98.9139 30.9108 98.9139 30.9108C98.9139 30.9108 98.9139 35.8896 97.5683 37.3025C96.2226 38.7154 90.1539 38.3251 89.2389 37.1275C88.3238 35.9299 88.8082 30.211 88.8082 30.211L90.894 28.7174Z" fill="url(#paint9_linear)"/>
<path style="mix-blend-mode:multiply" opacity="0.3" fill-rule="evenodd" clip-rule="evenodd" d="M164.204 22.635C164.204 22.635 175.602 35.8087 185.438 36.2662C195.275 36.7237 198.895 31.4623 198.895 31.4623L196.997 25.5281C196.997 25.5281 202.985 33.4269 203.308 35.4723C203.631 37.5176 191.628 44.7436 186.892 44.0304C182.155 43.3173 167.003 34.0728 164.204 22.635Z" fill="url(#paint10_linear)"/>
<path style="mix-blend-mode:multiply" opacity="0.3" fill-rule="evenodd" clip-rule="evenodd" d="M121.695 3.97149C121.695 3.97149 124.05 6.66272 133.806 5.4113C143.562 4.15987 145.257 0.688171 145.257 0.688171L151.797 1.36098C151.797 1.36098 129.769 11.2378 116.609 10.6054C116.609 10.6054 108.643 9.87876 104.7 5.43821C104.7 5.43821 111.2 7.1606 114.2 6.20521C115.827 5.78594 117.238 4.77312 118.156 3.36594L121.695 3.97149Z" fill="url(#paint11_linear)"/>
<path style="mix-blend-mode:multiply" opacity="0.3" fill-rule="evenodd" clip-rule="evenodd" d="M126.311 23.9402C126.311 23.9402 129.621 28.4615 133.698 29.0805C134.823 29.2798 135.982 29.1161 137.008 28.6129C138.034 28.1097 138.873 27.2932 139.404 26.2816L140.252 31.2066C140.252 31.2066 133.833 35.3241 131.707 34.9743C129.581 34.6244 126.311 23.9402 126.311 23.9402Z" fill="url(#paint12_linear)"/>
<path fill-rule="evenodd" clip-rule="evenodd" d="M128.033 0.136444L118.708 5.77461C118.708 5.77461 110.123 25.3534 106.906 44.7976C104.894 58.4376 103.944 72.2135 104.067 86.0006C104.067 86.0006 101.955 63.4749 105.413 42.1737C107.623 29.062 111.673 16.3279 117.443 4.34825L117.981 1.09185L128.033 0.136444Z" fill="#F88F4F"/>
<path fill-rule="evenodd" clip-rule="evenodd" d="M107.001 41.6083C107.001 41.6083 111.873 45.3895 113.729 46.7217C117.04 49.1573 134.075 54.3514 138.852 54.2706C143.629 54.1899 160.692 37.2485 161.284 33.6019C161.876 29.9552 153.425 12.6102 146.98 11.574C144.208 11.13 128.477 18.9346 126.701 21.8546C124.925 24.7746 130.24 35.6472 131.236 36.1047C132.232 36.5622 139.606 33.0502 139.606 33.0502L143.481 35.4857L139.444 26.2817L139.148 31.6642C139.148 31.6642 134.371 34.3554 132.259 34.5304C130.146 34.7053 126.176 24.9899 127.536 22.4197C128.895 19.8496 142.58 13.3772 146.98 14.5344C151.38 15.6916 158.552 29.6996 157.974 33.6826C157.395 37.6657 144.208 52.7904 138.866 52.8577C131.599 52.9519 116.946 46.5602 114.644 43.842C112.343 41.1239 109.262 33.1982 109.262 33.1982L107.001 41.6083Z" fill="#F88F4F"/>
<path fill-rule="evenodd" clip-rule="evenodd" d="M107.11 40.9759C105.382 42.1881 103.585 43.2979 101.727 44.2996C98.2422 46.2508 87.0197 49.9782 83.9517 48.9959C80.8837 48.0136 78.0713 33.8845 79.8206 29.1076C81.5699 24.3306 92.8462 14.5614 96.7351 15.7859C100.624 17.0104 100.072 35.9702 98.2557 38.1905C96.4391 40.4108 89.6302 38.0425 88.8363 37.4235C88.0424 36.8045 87.7732 31.0318 87.7732 31.0318L85.4857 30.063L90.8682 28.7173L88.9978 31.2336C88.9978 31.2336 89.1458 35.8088 89.8051 36.966C90.4645 38.1232 96.5333 37.9214 97.8789 36.1183C99.2245 34.3151 99.5878 20.8051 95.9815 18.8943C92.3753 16.9835 82.2831 26.6316 81.247 30.1841C80.2108 33.7365 82.7003 46.9909 85.9701 48.0135C89.24 49.0362 97.4752 45.8471 100.772 43.4384C104.069 41.0298 108.334 28.9057 108.334 28.9057L107.11 40.9759Z" fill="#F88F4F"/>
<path fill-rule="evenodd" clip-rule="evenodd" d="M102.695 4.80566C102.695 4.80566 109.046 10.1881 114.106 11.924H116.232C116.232 11.924 144.651 6.54151 155.161 1.65691L149.361 1.07828C149.361 1.07828 141.92 6.11091 127.67 8.95018C118.56 10.7668 116.824 8.30428 116.824 8.30428L115.478 8.43883C115.478 8.43883 113.608 10.0401 109.692 8.58685C108.619 8.26351 107.643 7.68048 106.85 6.88945C106.056 6.09841 105.47 5.12383 105.144 4.05211L102.695 4.80566Z" fill="#F88F4F"/>
<path fill-rule="evenodd" clip-rule="evenodd" d="M183.434 8.2233C183.434 8.2233 167.166 8.39825 163.977 11.6008C160.788 14.8034 163.613 35.6875 187.121 42.8597C187.121 42.8597 198.169 41.3122 201.062 34.3284C198.701 27.5671 194 21.8731 187.808 18.2751C187.808 18.2751 182.25 16.6335 177.689 19.54C177.689 19.54 179.842 27.4657 184.538 30.7625L189.059 31.1124L181.739 33.6152L182.708 31.3142C179.751 27.8217 177.441 23.83 175.885 19.5265C179.818 17.4323 184.303 16.6095 188.723 17.1717C188.723 17.1717 200.524 25.8106 204.87 36.0104C204.87 36.0104 197.388 46.0488 186.435 45.2279C186.435 45.2279 159.523 35.5798 161.42 11.1433C164.94 8.8841 168.931 7.46168 173.087 6.98533L173.396 5.10147C173.396 5.10147 180.38 7.01224 183.434 8.2233Z" fill="#F88F4F"/>
<path fill-rule="evenodd" clip-rule="evenodd" d="M73.9396 32.0275C73.9396 32.0275 73.3475 53.8266 74.8546 58.8323C75.9762 62.0454 78.1046 64.8108 80.9234 66.7176C80.9234 66.7176 84.4624 57.1637 93.034 58.7112C101.606 60.2587 104.485 68.7899 104.485 68.7899L114.228 65.2913C123.459 61.9541 130.51 56.7735 141.396 59.1283C152.282 61.4832 153.116 68.3728 153.802 68.0902C154.489 67.8076 162.603 52.4272 167.635 50.3414C172.668 48.2557 186.555 48.5383 191.278 51.2833C196.001 54.0284 188.721 78.0343 186.42 80.887C184.119 83.7398 168.214 80.0931 167.42 77.7652C166.626 75.4373 169.896 62.6808 173.045 61.2948C175.571 60.376 178.242 59.9202 180.93 59.9492L182.774 55.9123L181.011 66.6773L180.15 61.214C180.15 61.214 174.363 62.1425 172.951 63.6093C171.538 65.076 168.079 73.7687 168.981 76.5945C169.883 79.4203 182.639 80.8736 185.384 79.0974C188.129 77.3212 190.349 60.0837 189.932 56.1276C189.515 52.1715 172.439 49.2111 167.931 51.5929C163.424 53.9746 156.561 71.6022 156.023 72.1405C155.484 72.6787 150.829 71.9118 150.829 71.9118C150.829 71.9118 143.374 64.2013 133.228 64.1341C123.082 64.0668 109.007 68.7092 109.007 68.7092L103.543 74.0917C103.543 74.0917 100.341 62.9365 93.1013 62.5328C85.8618 62.1291 83.7761 69.0186 83.7761 69.0186V72.9882C80.2622 69.9805 77.3767 66.3085 75.2853 62.1829C71.7194 55.1722 71.8001 44.7571 71.8001 44.7571L73.9396 32.0275Z" fill="#F88F4F"/>
<path fill-rule="evenodd" clip-rule="evenodd" d="M138.531 107.382C138.531 107.382 151.018 92.4191 157.208 91.975C163.398 91.531 168.363 97.7478 169.224 100.506C170.086 103.265 167.193 107.234 167.193 107.234L162.591 107.678C162.591 107.678 167.973 103.79 168.175 101.273C168.377 98.7569 163.048 94.3837 157.06 94.7201C151.072 95.0565 145.42 105.902 145.42 105.902L147.277 107.786C147.277 107.786 139.876 108.096 138.531 107.382Z" fill="#FF882E"/>
<path fill-rule="evenodd" clip-rule="evenodd" d="M213.805 85.395C213.805 85.395 204.911 93.536 200.82 93.6033C196.729 93.6706 190.795 91.531 190.391 90.468C189.988 89.4049 190.714 72.8 195.976 58.496C201.237 44.192 209.97 39.8591 212.217 39.1998C214.465 38.5404 219.564 52.2119 218.421 62.6674C217.277 73.1229 205.449 81.6272 203.309 82.2462C201.17 82.8652 198.761 72.0599 200.847 64.632C202.933 57.2042 207.884 51.418 210.266 51.6064C212.648 51.7948 212.46 61.3084 210.71 65.4798C210.71 65.4798 211.908 53.7459 209.566 53.5037C207.225 53.2615 202.246 61.5775 201.237 68.1037C200.228 74.63 203.148 79.1513 205.099 79.5281C207.05 79.9049 217.21 70.7008 217.371 61.6178C217.533 52.5349 214.155 45.3896 211.666 44.2997C209.176 43.2097 200.147 49.1708 196.218 62.035C192.289 74.8991 193.244 89.5799 194.549 91.1542C195.855 92.7286 200.268 92.7959 205.705 89.4587C211.141 86.1216 219.39 71.6024 219.39 71.6024C217.893 76.3392 216.025 80.9509 213.805 85.395Z" fill="#F88F4F"/>
<path style="mix-blend-mode:multiply" opacity="0.5" fill-rule="evenodd" clip-rule="evenodd" d="M219.39 71.6025C214.666 86.7676 204.305 104.341 193.244 111.002L178.213 114.662C166.311 115.868 154.295 115.278 142.568 112.913C142.568 112.913 137.185 110.464 134.938 107.194C134.938 107.194 101.728 102.323 86.4958 96.7118C83.8046 95.716 68.7875 74.5494 72.1919 42.4832C72.1919 42.4832 73.3222 53.7057 78.2741 58.227C78.2741 58.227 74.4391 96.0524 106.949 99.3088C149.552 103.574 151.436 70.5394 151.436 70.5394L161.259 59.8686C161.274 61.0927 161.636 62.2873 162.303 63.3139C162.97 64.3404 163.914 65.1568 165.026 65.6683C169.063 67.9155 170.934 65.6683 170.934 65.6683C170.934 65.9105 170.18 70.6067 174.082 72.975C177.985 75.3433 190.351 71.0642 191.266 66.5968C191.266 66.5968 190.849 69.9608 192.477 70.7144C194.105 71.4679 201.547 66.3814 201.547 66.3814C201.547 66.3814 208.019 72.4906 213.872 71.3737L219.39 71.6025Z" fill="url(#paint13_linear)"/>
<path fill-rule="evenodd" clip-rule="evenodd" d="M84.1679 75.7469C84.1679 75.7469 85.1502 83.8206 91.2997 84.3185C97.4491 84.8164 100.154 74.5089 100.154 74.5089L84.1679 75.7469Z" fill="#FF882E"/>
<path fill-rule="evenodd" clip-rule="evenodd" d="M117.862 75.4373C117.862 75.4373 117.216 90.6697 131.762 92.2575C146.308 93.8454 149.605 79.4338 149.605 79.4338L117.862 75.4373Z" fill="#FF882E"/>
<path fill-rule="evenodd" clip-rule="evenodd" d="M118.224 67.9153C118.224 67.9153 115.29 80.5776 123.795 87.1846C131.868 93.4687 143.239 90.5621 147.047 85.1662C150.855 79.7702 150.788 71.9118 150.788 71.9118C149.604 68.171 135.838 50.8125 118.224 67.9153Z" fill="white"/>
<path d="M129.057 80.3491C124.716 80.3491 121.198 76.8307 121.198 72.4906C121.198 68.1505 124.716 64.6322 129.057 64.6322C133.397 64.6322 136.915 68.1505 136.915 72.4906C136.915 76.8307 133.397 80.3491 129.057 80.3491Z" fill="#371903"/>
<g style="mix-blend-mode:multiply">
<path fill-rule="evenodd" clip-rule="evenodd" d="M117.847 70.8893C117.847 70.8893 125.436 63.6902 139.094 67.2426C148.971 69.8262 150.115 76.043 150.115 76.043C150.631 74.7297 150.861 73.3212 150.788 71.912C150.788 71.912 148.392 62.7348 136.914 60.8509C125.436 58.9671 118.224 67.9155 118.224 67.9155C117.956 68.8836 117.829 69.8851 117.847 70.8893Z" fill="#D8CBD9"/>
</g>
<path fill-rule="evenodd" clip-rule="evenodd" d="M83.7104 68.992C83.7104 68.992 82.6339 82.4482 90.7883 83.1479C98.9428 83.8477 101.553 71.9255 101.338 67.2696C101.338 67.2696 98.6468 61.0394 92.5377 60.5415C84.8676 60.0302 83.7104 68.992 83.7104 68.992Z" fill="white"/>
<g style="mix-blend-mode:multiply">
<path fill-rule="evenodd" clip-rule="evenodd" d="M83.6813 67.4579V70.0011C83.6813 70.0011 84.9058 65.0761 91.755 65.0761C99.1424 65.0761 101.067 69.5839 101.067 69.5839C101.311 68.8384 101.403 68.0512 101.336 67.2694C101.336 67.2694 98.7388 61.1603 92.5355 60.5413C86.3322 59.9223 83.6813 67.4579 83.6813 67.4579Z" fill="#D8CBD9"/>
</g>
<path fill-rule="evenodd" clip-rule="evenodd" d="M84.8653 68.2922C84.8653 71.8581 87.0318 74.7377 89.723 74.7377C92.4143 74.7377 94.5942 71.8581 94.5942 68.2922C94.5942 64.7263 92.4143 61.8466 89.723 61.8466C87.0318 61.8466 84.8653 64.7397 84.8653 68.2922Z" fill="#371903"/>
<path fill-rule="evenodd" clip-rule="evenodd" d="M134.977 107.194C134.977 107.194 152.914 108.338 164.258 107.571C175.601 106.804 190.443 98.1515 190.443 98.1515C190.443 98.1515 202.11 95.2449 205.972 98.434C205.972 98.434 198.113 110.343 188.896 114.366C179.678 118.39 147.545 114.81 141.799 112.886C138.932 111.84 136.52 109.827 134.977 107.194Z" fill="#FF882E"/>
<path fill-rule="evenodd" clip-rule="evenodd" d="M100.854 43.4385C100.854 43.4385 105.967 42.6042 107.057 41.6084L112.359 45.6453C112.359 45.6453 111.188 37.8272 108.322 33.75C108.322 33.7903 102.684 42.7522 100.854 43.4385Z" fill="#FF882E"/>
<path fill-rule="evenodd" clip-rule="evenodd" d="M87.8139 31.0317L85.5265 30.0629L90.8951 28.7174L89.0249 31.2335L89.0922 32.5925L87.8139 31.0317Z" fill="#FF882E"/>
<path fill-rule="evenodd" clip-rule="evenodd" d="M83.2398 43.9901C83.2398 43.9901 84.4508 47.5022 86.2405 48.027C88.0302 48.5518 91.7172 47.5022 91.7172 47.5022C91.7172 47.5022 87.1152 49.709 84.8949 49.1035C82.6746 48.4979 83.2398 43.9901 83.2398 43.9901Z" fill="#FF882E"/>
<path fill-rule="evenodd" clip-rule="evenodd" d="M130.966 51.5392C130.966 51.5392 136.685 53.6114 139.739 52.7502C141.717 52.1851 147.208 48.4443 147.208 48.4443C147.208 48.4443 142.215 53.8267 138.797 54.2708C135.38 54.7149 130.966 51.5392 130.966 51.5392Z" fill="#FF882E"/>
<path fill-rule="evenodd" clip-rule="evenodd" d="M99.8836 62.3174L104.539 67.4576L112.384 65.9371L108.94 68.7091L104.27 72.9881C104.27 72.9881 100.26 65.8025 99.8836 62.3174Z" fill="#FF882E"/>
<path fill-rule="evenodd" clip-rule="evenodd" d="M81.7037 68.292C81.7037 68.292 82.834 57.8634 89.7774 56.9888C98.2683 55.9123 101.888 64.43 101.888 64.43L101.43 67.2693C101.43 67.2693 98.5643 60.5412 91.8497 60.5412C86.1711 60.5143 81.7037 68.292 81.7037 68.292Z" fill="#FF882E"/>
<path fill-rule="evenodd" clip-rule="evenodd" d="M116.636 65.9371C116.636 65.9371 120.269 57.9845 133.712 56.9887C141.341 56.4236 150.653 61.685 153.775 68.0901L153.116 72.0462C151.312 68.7416 148.694 65.9525 145.51 63.9437C142.326 61.9349 138.682 60.7729 134.923 60.5681C121.924 59.8549 116.636 65.9371 116.636 65.9371Z" fill="#FF882E"/>
<path fill-rule="evenodd" clip-rule="evenodd" d="M169.305 72.2213C169.305 72.2213 168.349 76.2582 169.506 77.4154C170.664 78.5727 176.907 79.7972 176.907 79.7972C176.907 79.7972 170.112 80.2547 168.228 78.613C166.344 76.9714 169.305 72.2213 169.305 72.2213Z" fill="#FF882E"/>
<path fill-rule="evenodd" clip-rule="evenodd" d="M177.782 38.7422C177.782 38.7422 185.062 42.5638 187.121 42.8599C189.18 43.1559 195.908 39.7918 195.908 39.7918C194.967 41.4601 193.598 42.8471 191.942 43.8099C190.286 44.7726 188.404 45.2761 186.488 45.2685C183.052 43.9155 180.045 41.6609 177.782 38.7422Z" fill="#FF882E"/>
<path fill-rule="evenodd" clip-rule="evenodd" d="M181.736 33.6155L182.705 31.3145L183.607 30.0227L184.535 30.7628L189.043 31.1261L181.736 33.6155Z" fill="#FF882E"/>
<path fill-rule="evenodd" clip-rule="evenodd" d="M157.205 29.5922C157.205 29.5922 158.55 32.0816 157.931 33.7098C157.118 35.4771 156.183 37.1857 155.132 38.8231C155.132 38.8231 159.936 36.1319 160.515 33.9923C161.094 31.8528 157.205 29.5922 157.205 29.5922Z" fill="#FF882E"/>
<path fill-rule="evenodd" clip-rule="evenodd" d="M109.651 8.58688C109.651 8.58688 113.809 11.3858 115.613 11.5338C117.416 11.6818 122.543 9.5961 122.543 9.5961C120.923 9.60469 119.304 9.50129 117.698 9.28661C116.945 9.01749 116.595 7.76605 116.595 7.76605C115.791 8.49256 114.82 9.01012 113.769 9.27314C112.367 9.29204 110.972 9.05963 109.651 8.58688Z" fill="#FF882E"/>
<path fill-rule="evenodd" clip-rule="evenodd" d="M193.431 80.6312C193.431 80.6312 192.893 89.5931 194.562 91.154C196.23 92.7149 199.621 91.9748 199.621 91.9748C199.621 91.9748 197.576 93.6165 191.157 91.154C191.157 91.154 190.363 91.3424 190.404 87.9245C190.444 84.5066 193.431 80.6312 193.431 80.6312Z" fill="#FF882E"/>
<path fill-rule="evenodd" clip-rule="evenodd" d="M201.074 70.418C201.074 70.418 199.823 78.1822 205.111 79.5279C206.47 79.2713 207.705 78.5708 208.623 77.5363C208.162 78.6906 207.433 79.7191 206.498 80.5377C205.562 81.3563 204.446 81.9417 203.241 82.246C203.241 82.246 199.217 78.4513 201.074 70.418Z" fill="#FF882E"/>
<path fill-rule="evenodd" clip-rule="evenodd" d="M152.495 93.9934C152.495 93.9934 155.039 92.9841 160.273 94.9622C165.508 96.9403 167.257 98.9991 167.257 98.9991C167.257 98.9991 165.44 93.8319 161.107 92.3517C156.775 90.8716 152.495 93.9934 152.495 93.9934Z" fill="#F88F4F"/>
<path fill-rule="evenodd" clip-rule="evenodd" d="M197.577 27.4254C197.577 27.4254 201.614 33.3327 201.062 34.3284C200.542 35.9211 199.504 37.2945 198.115 38.2308C198.115 38.2308 202.044 37.679 203.282 35.4722C204.52 33.2654 197.577 27.4254 197.577 27.4254Z" fill="#FF882E"/>
<path fill-rule="evenodd" clip-rule="evenodd" d="M210.682 55.1588C211.313 58.5702 211.313 62.0684 210.682 65.4798C211.386 63.3373 211.837 61.12 212.027 58.8728C212.082 58.1935 211.99 57.5104 211.758 56.8697C211.525 56.229 211.158 55.6456 210.682 55.1588Z" fill="#FF882E"/>
<path fill-rule="evenodd" clip-rule="evenodd" d="M178.9 167.411C170.004 168.231 161.033 167.604 152.338 165.554C153.463 154.511 153.674 143.394 152.97 132.317C152.62 126.934 152.109 122.373 151.625 118.605C151.158 114.96 150.489 111.343 149.62 107.773H156.617C158 111.941 158.939 116.244 159.416 120.61C159.564 121.781 159.712 123.005 159.806 124.27C159.954 125.952 160.075 127.755 160.21 129.653C160.721 137.175 161.259 145.612 162.645 150.173C164.246 155.448 177.541 161.436 177.541 161.436C178.664 163.214 179.144 165.322 178.9 167.411Z" fill="url(#paint14_linear)"/>
<path fill-rule="evenodd" clip-rule="evenodd" d="M178.898 167.411C170.002 168.231 161.031 167.604 152.336 165.554C153.46 154.511 153.672 143.394 152.968 132.317L160.127 129.626C160.638 137.148 161.176 145.585 162.562 150.146C164.164 155.421 177.458 161.409 177.458 161.409C178.616 163.184 179.124 165.304 178.898 167.411Z" fill="url(#paint15_linear)"/>
<path fill-rule="evenodd" clip-rule="evenodd" d="M152.334 165.554V167.801C161.081 169.695 170.096 170.001 178.951 168.702V167.357C178.951 167.357 169.478 168.016 152.334 165.554Z" fill="url(#paint16_linear)"/>
<g style="mix-blend-mode:multiply">
<path fill-rule="evenodd" clip-rule="evenodd" d="M159.335 120.583C158.318 119.613 157.068 118.921 155.706 118.575C154.343 118.228 152.915 118.239 151.557 118.605C151.091 114.96 150.422 111.343 149.553 107.773H156.55C157.927 111.933 158.861 116.227 159.335 120.583Z" fill="#262C3A"/>
</g>
<g style="mix-blend-mode:soft-light" opacity="0.7">
<path fill-rule="evenodd" clip-rule="evenodd" d="M177.458 161.369C177.458 161.369 165.348 161.369 158.485 155.704L164.244 152.703C164.244 152.703 168.348 158.005 177.458 161.369Z" fill="white"/>
</g>
<g style="mix-blend-mode:soft-light" opacity="0.7">
<path fill-rule="evenodd" clip-rule="evenodd" d="M129.959 14.5345C129.959 14.5345 125.922 20.5763 122.558 21.451C121.402 22.6583 120.336 23.9491 119.369 25.3129C118.925 26.2145 121.535 32.6062 125.249 35.2301C127.61 36.8394 130.316 37.8718 133.148 38.2443C133.148 38.2443 141.464 36.818 146.685 37.4369C144.621 39.4073 141.941 40.605 139.096 40.8279C134.494 41.0971 133.713 38.8499 133.081 38.6346C129.11 38.588 125.203 37.6353 121.657 35.8491C119.824 34.9638 118.358 33.4683 117.508 31.6193C116.659 29.7704 116.479 27.6834 117.001 25.7166C117.727 23.9807 121.038 23.0253 122.195 21.3837C123.352 19.742 122.437 19.0289 123.715 16.7548C124.994 14.4807 129.959 14.5345 129.959 14.5345Z" fill="white"/>
</g>
<g style="mix-blend-mode:soft-light" opacity="0.7">
<path fill-rule="evenodd" clip-rule="evenodd" d="M136.11 20.1995C136.11 20.1995 141.56 16.1626 145.771 17.118C149.983 18.0734 154.545 26.9007 153.966 29.5785C152.616 27.966 151.353 26.2815 150.185 24.5324C148.274 21.6528 149.028 20.065 147.884 18.7732C147.535 18.3086 147.062 17.9514 146.519 17.7421C145.977 17.5328 145.387 17.4798 144.816 17.589C144.197 17.7774 142.313 20.6839 139.972 20.4821C137.63 20.2802 136.11 20.1995 136.11 20.1995Z" fill="white"/>
</g>
<g style="mix-blend-mode:soft-light" opacity="0.7">
<path fill-rule="evenodd" clip-rule="evenodd" d="M185.411 11.7623C185.411 11.7623 171.175 11.5605 168.712 13.4982C166.25 15.4359 169.614 23.4558 172.359 25.0706C173.014 23.7364 173.244 22.2335 173.018 20.7646C172.534 18.6385 168.376 16.7277 168.551 15.113C168.726 13.4982 171.094 12.0718 175.279 12.7446C179.464 13.4175 184.564 14.171 185.411 11.7623Z" fill="white"/>
</g>
<g style="mix-blend-mode:soft-light" opacity="0.7">
<path fill-rule="evenodd" clip-rule="evenodd" d="M147.95 53.3288C147.95 53.3288 154.813 53.1001 157.922 49.9648C161.03 46.8295 160.895 43.9902 163.587 41.5143C166.278 39.0383 174.701 41.5142 176.976 43.7076C176.976 43.7076 176.881 45.3762 174.459 44.6361C172.037 43.896 171.284 41.595 168.781 41.0567C166.278 40.5185 164.152 40.8952 163.506 41.9852C162.86 43.0751 164.152 46.6141 162.887 49.8302C161.622 53.0462 158.46 51.4584 154.517 53.3557C150.574 55.253 149.78 55.1992 149.78 55.1992C149.29 55.1921 148.823 54.9915 148.48 54.6411C148.137 54.2907 147.947 53.819 147.95 53.3288Z" fill="white"/>
</g>
<g style="mix-blend-mode:soft-light" opacity="0.7">
<path fill-rule="evenodd" clip-rule="evenodd" d="M94.7425 11.2243C94.7425 11.2243 100.367 10.2554 102.413 11.3589C104.458 12.4623 105.857 19.8901 105.857 19.8901C105.857 19.8901 107.445 14.0905 105.642 9.90558C103.839 5.72069 94.7425 11.2243 94.7425 11.2243Z" fill="white"/>
</g>
<g style="mix-blend-mode:soft-light" opacity="0.7">
<path fill-rule="evenodd" clip-rule="evenodd" d="M197.466 81.1026C196.766 75.8447 196.595 70.5298 196.955 65.2377C197.668 58.1059 201.503 54.9976 202.337 53.7865C203.171 52.5755 207.962 47.1257 210.909 47.4756C213.856 47.8254 214.811 53.6116 214.811 53.6116C214.811 53.6116 213.465 48.0272 211.111 48.0003C208.756 47.9734 207.76 50.3686 206.562 51.4317C205.365 52.4947 202.714 52.9926 200.79 56.7469C198.865 60.5012 199.821 68.3058 199.511 71.8986C199.081 75.0171 198.397 78.0954 197.466 81.1026Z" fill="white"/>
</g>
<g style="mix-blend-mode:soft-light" opacity="0.7">
<path fill-rule="evenodd" clip-rule="evenodd" d="M161.647 67.2426C163.48 62.9825 165.556 58.8311 167.864 54.8091C170.367 50.9202 178.306 51.2701 183.689 53.6115C183.241 54.138 182.684 54.5611 182.057 54.8515C181.43 55.1419 180.747 55.2927 180.055 55.2935C177.485 55.4415 173.462 53.2482 171.43 53.2751C169.398 53.302 170.259 57.3927 168.739 61.6583C167.218 65.9239 161.647 67.2426 161.647 67.2426Z" fill="white"/>
</g>
<g style="mix-blend-mode:soft-light" opacity="0.7">
<path fill-rule="evenodd" clip-rule="evenodd" d="M86.2391 53.3153C86.2391 53.3153 88.8631 49.3592 98.7399 51.4315C98.7399 51.418 91.191 54.3245 86.2391 53.3153Z" fill="white"/>
</g>
<g style="mix-blend-mode:soft-light" opacity="0.7">
<path fill-rule="evenodd" clip-rule="evenodd" d="M140.4 95.9311C140.4 95.9311 145.782 86.3369 153.654 86.9693C152.467 89.5263 150.606 91.7116 148.271 93.2905C145.936 94.8695 143.215 95.7823 140.4 95.9311Z" fill="white"/>
</g>
<path fill-rule="evenodd" clip-rule="evenodd" d="M88.7434 25.7166C88.7434 25.7166 91.4346 21.895 93.9105 22.5409C94.594 22.6766 95.2341 22.9766 95.7757 23.415C96.3172 23.8534 96.7439 24.417 97.0189 25.0572C97.0189 25.0572 89.8064 25.0034 88.7434 25.7166Z" fill="white"/>
<path fill-rule="evenodd" clip-rule="evenodd" d="M129.11 2.51814C129.11 2.51814 133.551 5.39777 139.996 2.101C139.875 2.101 133.874 -0.186564 129.11 2.51814Z" fill="white"/>
<g style="mix-blend-mode:multiply">
<path fill-rule="evenodd" clip-rule="evenodd" d="M45.1558 89.0955C45.1558 89.0955 37.5665 83.3497 38.1048 77.55L45.1558 79.3935V89.0955Z" fill="#972323"/>
</g>
<path fill-rule="evenodd" clip-rule="evenodd" d="M136.106 20.1995C136.106 20.1995 139.188 21.9623 141.489 20.1995C142.73 19.3567 143.754 18.2314 144.476 16.9162C144.476 16.9162 138.138 17.2257 136.106 20.1995Z" fill="white"/>
<path fill-rule="evenodd" clip-rule="evenodd" d="M133.148 38.2443C133.148 38.2443 142.689 35.9971 146.685 37.4369C146.685 37.4369 145.07 40.6395 139.096 40.8279C133.121 41.0163 133.148 38.2443 133.148 38.2443Z" fill="white"/>
<path fill-rule="evenodd" clip-rule="evenodd" d="M171.242 12.7986C171.242 12.7986 175.386 10.6052 185.411 11.7624C185.411 11.7624 185.048 14.3326 181.482 14.1845C178.047 13.8999 174.629 13.4373 171.242 12.7986Z" fill="white"/>
<path fill-rule="evenodd" clip-rule="evenodd" d="M171.766 52.2927C173.965 53.7074 176.406 54.7063 178.966 55.2396C179.826 55.4321 180.724 55.3818 181.558 55.0943C182.392 54.8069 183.129 54.2935 183.689 53.6114C179.931 52.0085 175.784 51.5497 171.766 52.2927Z" fill="white"/>
<path fill-rule="evenodd" clip-rule="evenodd" d="M205.339 50.4222C205.339 50.4222 207.237 46.7621 209.901 46.8293C210.649 46.8505 211.373 47.1023 211.972 47.5503C212.572 47.9983 213.019 48.6207 213.251 49.3322C211.663 48.7612 209.919 48.7947 208.353 49.4264L205.339 50.4222Z" fill="white"/>
<g style="mix-blend-mode:multiply">
<path fill-rule="evenodd" clip-rule="evenodd" d="M104.444 117.502C104.444 117.502 105.292 120.583 110.54 123.463C110.54 123.463 112.061 104.907 112.182 103.184L106.638 102.094C106.638 102.094 105.104 113.209 104.444 117.502Z" fill="#262C3A"/>
</g>
<path fill-rule="evenodd" clip-rule="evenodd" d="M38.7805 79.8241C40.3548 82.5154 44.6608 83.1748 44.6608 83.1748L44.459 98.1246L47.4059 97.8689C47.4059 97.8689 55.3585 104.153 65.2489 103.534C65.7064 103.534 66.1773 103.467 66.5945 103.399C77.1172 102.054 80.7369 88.6783 80.7369 88.6783L77.3056 81.9502C77.3056 81.9502 74.6144 95.0431 65.0874 95.9312C64.7109 95.9513 64.3335 95.9513 63.957 95.9312C61.2613 95.9564 58.605 95.283 56.2468 93.9766C53.8887 92.6702 51.909 90.7753 50.5008 88.4765C50.2048 87.7768 50.2048 81.6676 49.4109 80.1605C48.6169 78.6534 42.2791 74.7781 38.767 74.6166C38.3159 75.4107 38.0799 76.3088 38.0822 77.2222C38.0846 78.1355 38.3253 79.0323 38.7805 79.8241Z" fill="url(#paint17_linear)"/>
<path fill-rule="evenodd" clip-rule="evenodd" d="M29.7627 80.4432C30.0278 81.6225 30.1631 82.8273 30.1664 84.036L31.1487 84.4801C31.8186 85.7125 32.0645 87.131 31.8484 88.5169L31.512 88.8264C32.2291 90.0925 32.622 91.5163 32.6558 92.971L31.3102 93.886C31.6817 95.0269 31.9298 96.2043 32.0503 97.3981C32.0503 97.3981 31.1756 98.4746 28.5113 98.1112C27.8986 97.1656 27.4907 96.1022 27.3137 94.9894L27.7981 94.7472C26.9139 93.3843 26.2509 91.8901 25.8335 90.3201L25.1607 90.1048C24.4061 88.3929 23.9074 86.5793 23.6805 84.7223L24.2187 84.4531C23.7018 83.1631 23.3842 81.8019 23.2768 80.4163C25.4056 79.8711 27.6386 79.8804 29.7627 80.4432Z" fill="url(#paint18_linear)"/>
<path fill-rule="evenodd" clip-rule="evenodd" d="M38.78 79.8239C40.3544 82.5152 44.4585 83.1342 44.4585 83.1342V98.1244L47.4054 97.8687C47.4054 97.8687 55.3581 104.153 65.2484 103.534C66.298 98.4339 64.0239 95.9849 64.0239 95.9849C61.3281 96.0101 58.6718 95.3367 56.3137 94.0303C53.9555 92.7238 51.9759 90.8289 50.5677 88.5301C50.2716 87.8304 50.2716 81.7213 49.4777 80.2142C48.6838 78.7071 42.3459 74.8317 38.8338 74.6702C38.3823 75.4521 38.1401 76.3372 38.1306 77.24C38.1212 78.1429 38.3449 79.0328 38.78 79.8239Z" fill="url(#paint19_linear)"/>
<g style="mix-blend-mode:multiply">
<path fill-rule="evenodd" clip-rule="evenodd" d="M75.6486 86.9288C75.6486 86.9288 77.9496 88.557 77.4114 95.931C78.8861 93.6898 80.0283 91.2468 80.8024 88.6781L77.371 81.95C77.371 81.95 76.0927 86.0138 75.6486 86.9288Z" fill="#262C3A"/>
</g>
<path fill-rule="evenodd" clip-rule="evenodd" d="M44.3366 82.9421L45.0363 88.9301L44.3366 97.9323V82.9421Z" fill="#F88F4F"/>
<path fill-rule="evenodd" clip-rule="evenodd" d="M30.0475 83.8436C28.0539 83.7854 26.0599 83.9433 24.1003 84.3145L30.0475 83.1978V83.8436Z" fill="#F88F4F"/>
<path fill-rule="evenodd" clip-rule="evenodd" d="M31.7313 88.3514C29.8576 89.3249 27.8172 89.9366 25.7169 90.1544C27.6638 89.8919 29.5709 89.3903 31.3949 88.6609L31.7313 88.3514Z" fill="#F88F4F"/>
<path fill-rule="evenodd" clip-rule="evenodd" d="M32.6558 92.9978C31.162 93.8882 29.5144 94.4906 27.7985 94.7739C28.9993 94.6282 30.1783 94.339 31.3103 93.9127L32.6558 92.9978Z" fill="#FF7F85"/>
<path fill-rule="evenodd" clip-rule="evenodd" d="M86.3086 74.5087C86.3113 74.7343 86.3806 74.9541 86.5079 75.1404C86.6352 75.3267 86.8147 75.4712 87.0239 75.5557C87.2331 75.6402 87.4626 75.6609 87.6836 75.6152C87.9046 75.5696 88.1071 75.4597 88.2657 75.2992C88.4243 75.1387 88.5319 74.9349 88.5749 74.7134C88.618 74.492 88.5946 74.2627 88.5076 74.0545C88.4207 73.8463 88.2741 73.6685 88.0863 73.5434C87.8985 73.4183 87.678 73.3515 87.4523 73.3515C87.301 73.3515 87.1512 73.3815 87.0115 73.4398C86.8719 73.4981 86.7452 73.5836 86.6388 73.6912C86.5324 73.7989 86.4485 73.9265 86.3918 74.0668C86.3351 74.2072 86.3069 74.3573 86.3086 74.5087Z" fill="white"/>
<path fill-rule="evenodd" clip-rule="evenodd" d="M111.403 121.821L112.964 123.368L112.897 126.059C112.897 126.059 122.774 130.096 126.353 129.612C128.821 129.11 131.172 128.147 133.283 126.773C133.283 126.773 144.815 128.966 157.114 120.704L158.93 119.452C169.991 111.527 175.535 103.009 179.37 97.2093C181.083 94.8672 182.197 92.1415 182.613 89.2701C182.718 88.3751 182.579 87.4683 182.21 86.6462C181.868 85.9767 181.294 85.4551 180.595 85.1794C177.621 84.0491 172.239 88.1398 169.103 93.1724C165.968 98.2051 170.449 98.5549 170.449 98.5549C170.449 98.5549 163.977 108.943 155.311 114.326C147.856 118.928 135.315 117.945 135.315 117.945C135.974 116.796 136.493 115.572 136.862 114.299C136.862 114.299 135.274 110.464 135.611 109.616C135.947 108.768 142.029 106.158 142.029 106.158C142.272 104.18 138.908 102.35 138.908 102.35C136.445 101.609 131.695 104.516 131.332 105.256C130.968 105.996 131.211 107.853 131.157 109.67C131.093 110.851 130.839 112.015 130.403 113.115C130.403 113.115 128.089 113.263 122.881 109.818C118.942 107.101 115.595 103.613 113.045 99.5641C110.071 99.3892 107.528 103.466 107.528 103.466C110.782 105.142 113.56 107.614 115.601 110.652L113.072 114.689L113.502 116.627L111.403 121.821Z" fill="url(#paint20_linear)"/>
<path fill-rule="evenodd" clip-rule="evenodd" d="M158.931 119.453L157.115 120.704C144.816 128.966 133.284 126.773 133.284 126.773C131.152 128.171 128.772 129.148 126.273 129.652C122.747 130.191 112.817 127.903 112.817 127.903L112.924 123.368L111.39 121.821L113.449 116.6L112.965 114.662L115.508 110.625C113.457 107.602 110.682 105.14 107.434 103.467C107.434 103.467 109.977 99.4298 112.951 99.5643C115.741 103.286 119.08 106.562 122.855 109.28C124.598 110.542 126.454 111.641 128.399 112.563C128.399 112.563 130.579 111.648 130.646 109.872C130.608 108.321 130.807 106.773 131.238 105.283C131.602 104.543 136.352 101.637 138.814 102.377C138.814 102.377 142.178 104.207 141.936 106.185C141.936 106.185 135.881 108.795 135.517 109.643C135.154 110.491 136.782 114.326 136.782 114.326C136.407 115.598 135.883 116.822 135.221 117.972C135.221 117.972 147.763 118.955 155.217 114.339C156.284 114.729 157.206 115.435 157.86 116.363C158.515 117.292 158.869 118.398 158.877 119.533C158.877 119.533 158.918 119.439 158.931 119.453Z" fill="url(#paint21_linear)"/>
<path fill-rule="evenodd" clip-rule="evenodd" d="M135.274 117.878L134.776 122.547L138.167 117.959L135.274 117.878Z" fill="#FFB184"/>
<path fill-rule="evenodd" clip-rule="evenodd" d="M115.574 110.625L117.135 112.94L114.807 116.223C114.807 116.223 114.377 118.914 114.242 121.027V121.888L113.529 128.118L112.789 127.957L112.897 123.422L111.363 121.875L113.354 116.304L112.964 114.662L115.574 110.625Z" fill="#FFB184"/>
<path fill-rule="evenodd" clip-rule="evenodd" d="M150.788 71.9118C150.788 71.9118 149.806 62.9365 136.915 59.5724C123.297 56.02 115.021 67.6462 115.021 67.6462L117.955 69.8934L118.224 67.9153C118.224 67.9153 123.431 61.712 134.977 61.8196C145.473 61.9138 150.788 71.9118 150.788 71.9118Z" fill="#371903"/>
<path fill-rule="evenodd" clip-rule="evenodd" d="M101.337 67.2693C101.337 67.2693 99.8839 59.5589 92.16 58.5901C84.4361 57.6212 81.7045 67.6461 81.7045 67.6461L83.6556 69.5838V68.9917C83.6556 68.9917 85.6875 60.4067 92.4829 60.5951C98.296 60.7565 101.337 67.2693 101.337 67.2693Z" fill="#371903"/>
<path fill-rule="evenodd" clip-rule="evenodd" d="M124.466 79.42C124.466 79.7846 124.574 80.141 124.777 80.4441C124.979 80.7473 125.267 80.9835 125.604 81.123C125.941 81.2626 126.311 81.2991 126.669 81.228C127.027 81.1568 127.355 80.9813 127.613 80.7235C127.871 80.4657 128.046 80.1372 128.117 79.7796C128.188 79.4221 128.152 79.0514 128.012 78.7146C127.873 78.3778 127.637 78.0899 127.334 77.8873C127.03 77.6848 126.674 77.5767 126.309 77.5767C125.821 77.5767 125.352 77.7709 125.006 78.1166C124.66 78.4623 124.466 78.9311 124.466 79.42Z" fill="white"/>
<g style="mix-blend-mode:multiply">
<path fill-rule="evenodd" clip-rule="evenodd" d="M170.409 98.5146C170.409 98.5146 174.378 89.62 182.613 89.2971C182.718 88.402 182.579 87.4953 182.21 86.6731C181.868 86.0037 181.294 85.482 180.595 85.2064C177.621 84.0761 172.239 88.1668 169.103 93.1994C165.968 98.232 170.409 98.5146 170.409 98.5146Z" fill="#262C3A"/>
</g>
<path fill-rule="evenodd" clip-rule="evenodd" d="M53.2175 46.7888V41.191L65.5164 31.5026V37.1003L53.2175 46.7888Z" fill="url(#paint22_linear)"/>
<g style="mix-blend-mode:soft-light" opacity="0.7">
<path fill-rule="evenodd" clip-rule="evenodd" d="M2.87635 45.4166C8.79708 47.2332 15.8481 48.377 22.1322 46.6815C21.1904 43.8737 20.6115 40.9569 20.4098 38.0022C19.6428 26.4972 28.8738 22.0163 38.1855 24.2365C39.7909 17.1555 40.8125 9.95471 41.2401 2.70658C36.6235 1.55895 31.7925 1.59134 27.1918 2.80077C8.19156 7.37588 -1.68531 26.4703 2.87635 45.4166Z" fill="#C4DAFF"/>
</g>
<path fill-rule="evenodd" clip-rule="evenodd" d="M31.5529 1.99335C31.5529 1.99335 31.5529 5.76109 28.8616 7.37584C26.1704 8.99058 21.5414 4.68459 21.5414 4.68459C24.73 3.30553 28.1026 2.39891 31.5529 1.99335Z" fill="white"/>
<path style="mix-blend-mode:multiply" opacity="0.5" fill-rule="evenodd" clip-rule="evenodd" d="M104.889 87.2788C104.889 87.2788 104.324 94.8546 100.852 95.0834C97.3806 95.3121 97.865 85.1931 97.865 85.1931L104.889 87.2788Z" fill="url(#paint23_linear)"/>
<path fill-rule="evenodd" clip-rule="evenodd" d="M97.8379 87.279C97.8379 90.2259 99.4123 92.6615 101.35 92.6615C103.288 92.6615 104.862 90.2797 104.862 87.279C104.862 84.2782 103.288 81.8965 101.35 81.8965C99.4123 81.8965 97.8379 84.3321 97.8379 87.279Z" fill="#371903"/>
<g style="mix-blend-mode:soft-light" opacity="0.7">
<path fill-rule="evenodd" clip-rule="evenodd" d="M100.218 93.2935C100.218 93.2935 99.2764 91.3829 98.5498 91.4098C98.5256 91.6451 98.5504 91.8829 98.6228 92.1081C98.6952 92.3333 98.8136 92.5409 98.9704 92.718C99.1273 92.8951 99.3192 93.0377 99.534 93.1368C99.7488 93.2358 99.9818 93.2892 100.218 93.2935Z" fill="white"/>
</g>
<path fill-rule="evenodd" clip-rule="evenodd" d="M44.871 105.927L45.3433 115.931H29.504L29.9554 105.927H44.871Z" fill="url(#paint24_linear)"/>
<path fill-rule="evenodd" clip-rule="evenodd" d="M45.3433 115.931L43.7898 119.265H30.5747L29.504 115.931H45.3433Z" fill="url(#paint25_linear)"/>
<g style="mix-blend-mode:multiply">
<path fill-rule="evenodd" clip-rule="evenodd" d="M18.272 69.5838L14.7195 71.8714C14.7195 71.8714 8.67766 65.668 6.43047 60.5143L8.00487 57.6481C10.5509 62.3037 14.0492 66.3706 18.272 69.5838Z" fill="#972323"/>
</g>
<g style="mix-blend-mode:soft-light" opacity="0.7">
<path fill-rule="evenodd" clip-rule="evenodd" d="M42.8423 105.927C42.8423 105.927 37.4334 113.665 29.5039 113.424L29.84 105.927H42.8423Z" fill="#B03338"/>
</g>
<defs>
<linearGradient id="paint0_linear" x1="41.672" y1="44.8915" x2="46.9738" y2="12.5831" gradientUnits="userSpaceOnUse">
<stop offset="0.01" stop-color="#800043"/>
<stop offset="1" stop-color="#731653"/>
</linearGradient>
<linearGradient id="paint1_linear" x1="22.4969" y1="100.87" x2="38.281" y2="4.72496" gradientUnits="userSpaceOnUse">
<stop offset="0.01" stop-color="#CA4F55"/>
<stop offset="1" stop-color="#9C2525"/>
</linearGradient>
<linearGradient id="paint2_linear" x1="23.0621" y1="96.8462" x2="38.604" y2="2.11444" gradientUnits="userSpaceOnUse">
<stop offset="0.01" stop-color="#972323"/>
<stop offset="1" stop-color="#A52828"/>
</linearGradient>
<linearGradient id="paint3_linear" x1="-9743.4" y1="22958.1" x2="-9743.4" y2="19937.6" gradientUnits="userSpaceOnUse">
<stop stop-color="#0099CE"/>
<stop offset="0.99" stop-color="#0099CE"/>
</linearGradient>
<linearGradient id="paint4_linear" x1="-8956.9" y1="12701.1" x2="-8956.9" y2="11787.3" gradientUnits="userSpaceOnUse">
<stop offset="0.02" stop-color="#FF9D52"/>
<stop offset="1" stop-color="#FF9D52"/>
</linearGradient>
<linearGradient id="paint5_linear" x1="-7569.09" y1="1271.14" x2="-8084.45" y2="1271.14" gradientUnits="userSpaceOnUse">
<stop offset="0.01" stop-color="#371903"/>
<stop offset="1" stop-color="#731653"/>
</linearGradient>
<linearGradient id="paint6_linear" x1="168484" y1="59934.9" x2="169221" y2="50178.2" gradientUnits="userSpaceOnUse">
<stop offset="0.02" stop-color="#FFCDA6"/>
<stop offset="1" stop-color="#FFC395"/>
</linearGradient>
<linearGradient id="paint7_linear" x1="56978.2" y1="15826.5" x2="57072.8" y2="15241.2" gradientUnits="userSpaceOnUse">
<stop offset="0.02" stop-color="#DF8792"/>
<stop offset="0.34" stop-color="#ECB9C0"/>
<stop offset="0.62" stop-color="#F7DFE2"/>
<stop offset="0.86" stop-color="#FDF6F7"/>
<stop offset="1" stop-color="white"/>
</linearGradient>
<linearGradient id="paint8_linear" x1="30363.3" y1="10751" x2="30437" y2="10295.1" gradientUnits="userSpaceOnUse">
<stop offset="0.02" stop-color="#DF8792"/>
<stop offset="0.34" stop-color="#ECB9C0"/>
<stop offset="0.62" stop-color="#F7DFE2"/>
<stop offset="0.86" stop-color="#FDF6F7"/>
<stop offset="1" stop-color="white"/>
</linearGradient>
<linearGradient id="paint9_linear" x1="10058.1" y1="3896.02" x2="10068.4" y2="3832.62" gradientUnits="userSpaceOnUse">
<stop offset="0.02" stop-color="#DF8792"/>
<stop offset="0.34" stop-color="#ECB9C0"/>
<stop offset="0.62" stop-color="#F7DFE2"/>
<stop offset="0.86" stop-color="#FDF6F7"/>
<stop offset="1" stop-color="white"/>
</linearGradient>
<linearGradient id="paint10_linear" x1="44308.8" y1="12059.5" x2="44359.6" y2="11745.5" gradientUnits="userSpaceOnUse">
<stop offset="0.02" stop-color="#DF8792"/>
<stop offset="0.34" stop-color="#ECB9C0"/>
<stop offset="0.62" stop-color="#F7DFE2"/>
<stop offset="0.86" stop-color="#FDF6F7"/>
<stop offset="1" stop-color="white"/>
</linearGradient>
<linearGradient id="paint11_linear" x1="52188.6" y1="10550" x2="52206.2" y2="10441.4" gradientUnits="userSpaceOnUse">
<stop offset="0.02" stop-color="#DF8792"/>
<stop offset="0.34" stop-color="#ECB9C0"/>
<stop offset="0.62" stop-color="#F7DFE2"/>
<stop offset="0.86" stop-color="#FDF6F7"/>
<stop offset="1" stop-color="white"/>
</linearGradient>
<linearGradient id="paint12_linear" x1="14502.2" y1="4895.47" x2="14515.4" y2="4814.04" gradientUnits="userSpaceOnUse">
<stop offset="0.02" stop-color="#DF8792"/>
<stop offset="0.34" stop-color="#ECB9C0"/>
<stop offset="0.62" stop-color="#F7DFE2"/>
<stop offset="0.86" stop-color="#FDF6F7"/>
<stop offset="1" stop-color="white"/>
</linearGradient>
<linearGradient id="paint13_linear" x1="166474" y1="47561.6" x2="166978" y2="44443.6" gradientUnits="userSpaceOnUse">
<stop offset="0.02" stop-color="#DF8792"/>
<stop offset="1" stop-color="#FFD0C6"/>
</linearGradient>
<linearGradient id="paint14_linear" x1="33579.3" y1="21732.5" x2="33579.3" y2="19055.3" gradientUnits="userSpaceOnUse">
<stop stop-color="#0099CE"/>
<stop offset="0.99" stop-color="#0099CE"/>
</linearGradient>
<linearGradient id="paint15_linear" x1="30382.6" y1="13876.6" x2="30382.6" y2="12793.6" gradientUnits="userSpaceOnUse">
<stop offset="0.02" stop-color="#FF9D52"/>
<stop offset="1" stop-color="#FF9D52"/>
</linearGradient>
<linearGradient id="paint16_linear" x1="30120.9" y1="1584.32" x2="30647.3" y2="1584.32" gradientUnits="userSpaceOnUse">
<stop offset="0.01" stop-color="#371903"/>
<stop offset="1" stop-color="#731653"/>
</linearGradient>
<linearGradient id="paint17_linear" x1="-13814.9" y1="9132.26" x2="-13814.9" y2="8510.19" gradientUnits="userSpaceOnUse">
<stop stop-color="#0099CE"/>
<stop offset="0.99" stop-color="#0099CE"/>
</linearGradient>
<linearGradient id="paint18_linear" x1="-770.456" y1="6188.21" x2="-839.038" y2="5941.31" gradientUnits="userSpaceOnUse">
<stop offset="0.02" stop-color="#FFA892"/>
<stop offset="1" stop-color="#FFCEA8"/>
</linearGradient>
<linearGradient id="paint19_linear" x1="-9014.48" y1="9115.47" x2="-9014.48" y2="8494.56" gradientUnits="userSpaceOnUse">
<stop offset="0.02" stop-color="#FFA892"/>
<stop offset="1" stop-color="#FFCEA8"/>
</linearGradient>
<linearGradient id="paint20_linear" x1="-19509.9" y1="14920.9" x2="-19509.9" y2="13436.7" gradientUnits="userSpaceOnUse">
<stop stop-color="#0099CE"/>
<stop offset="0.99" stop-color="#0099CE"/>
</linearGradient>
<linearGradient id="paint21_linear" x1="23333" y1="37870.7" x2="24766.4" y2="37393.5" gradientUnits="userSpaceOnUse">
<stop offset="0.02" stop-color="#FFC395"/>
<stop offset="1" stop-color="#FFCEA8"/>
</linearGradient>
<linearGradient id="paint22_linear" x1="57.9944" y1="47.5693" x2="60.7529" y2="30.7221" gradientUnits="userSpaceOnUse">
<stop offset="0.01" stop-color="#680708"/>
<stop offset="1" stop-color="#680707"/>
</linearGradient>
<linearGradient id="paint23_linear" x1="-1962.9" y1="3113.2" x2="-1990.01" y2="3044.57" gradientUnits="userSpaceOnUse">
<stop offset="0.02" stop-color="#DF8792"/>
<stop offset="1" stop-color="#FFD0C6"/>
</linearGradient>
<linearGradient id="paint24_linear" x1="-5376.3" y1="3344.75" x2="-5365.58" y2="3241.28" gradientUnits="userSpaceOnUse">
<stop offset="0.01" stop-color="#9B2525"/>
<stop offset="1" stop-color="#9B2525"/>
</linearGradient>
<linearGradient id="paint25_linear" x1="-5376.3" y1="1204.68" x2="-5375.69" y2="1187.29" gradientUnits="userSpaceOnUse">
<stop offset="0.01" stop-color="#680708"/>
<stop offset="1" stop-color="#680708"/>
</linearGradient>
</defs>
</svg>
