<svg width="189" height="162" viewBox="0 0 189 162" fill="none" xmlns="http://www.w3.org/2000/svg">
<g style="mix-blend-mode:multiply" opacity="0.2">
<path d="M106.573 162C144.521 162 175.285 160.752 175.285 159.213C175.285 157.674 144.521 156.427 106.573 156.427C68.6247 156.427 37.8615 157.674 37.8615 159.213C37.8615 160.752 68.6247 162 106.573 162Z" fill="#0099CE"/>
</g>
<path fill-rule="evenodd" clip-rule="evenodd" d="M51.7706 141.123L50.3772 142.587C43.7325 137.37 37.6889 131.429 32.358 124.875L33.3381 123.824C39.053 130.032 45.2135 135.813 51.7706 141.123Z" fill="url(#paint0_linear)"/>
<path fill-rule="evenodd" clip-rule="evenodd" d="M33.3497 123.789C38.9278 130.137 45.0957 135.941 51.7704 141.123C51.7704 141.123 61.583 129.221 71.3129 118.133L72.045 117.294C76.0361 112.772 79.1299 109.418 81.4915 107.08C84.4435 104.01 85.9195 102.676 85.9195 102.676L81.0074 98.7085C81.0074 98.7085 80.3107 99.2871 77.7601 101.767C76.107 103.373 73.6863 105.77 70.1439 109.312C69.4236 110.032 68.7151 110.753 68.0538 111.438C60.4966 119.266 56.8125 124.592 54.5926 125.737C52.3726 126.883 38.628 120.837 38.628 120.837C36.6931 121.468 34.9001 122.471 33.3497 123.789Z" fill="#2DA7D1"/>
<path fill-rule="evenodd" clip-rule="evenodd" d="M33.3497 123.789C38.9278 130.137 45.0957 135.941 51.7704 141.123C51.7704 141.123 61.583 129.221 71.3129 118.133L72.045 117.295L68.0538 111.391C60.4966 119.219 56.8125 124.545 54.5926 125.69C52.3726 126.836 38.628 120.79 38.628 120.79C36.6894 121.435 34.8961 122.454 33.3497 123.789V123.789Z" fill="url(#paint1_linear)"/>
<g style="mix-blend-mode:soft-light" opacity="0.7">
<path fill-rule="evenodd" clip-rule="evenodd" d="M54.594 125.702L56.6368 132.598C52.8512 131.62 49.2745 129.964 46.0803 127.709C40.1762 123.753 38.6294 120.801 38.6294 120.801C38.6294 120.801 51.5593 126.103 54.594 125.702Z" fill="white"/>
</g>
<g style="mix-blend-mode:multiply">
<path fill-rule="evenodd" clip-rule="evenodd" d="M77.7589 101.731C79.3081 103.268 80.5539 105.083 81.4312 107.08C84.3832 104.01 85.8593 102.676 85.8593 102.676L81.0061 98.7085C81.0061 98.7085 80.3094 99.2517 77.7589 101.731Z" fill="#371903"/>
</g>
<path fill-rule="evenodd" clip-rule="evenodd" d="M59.4511 83.6727C53.3621 84.1055 44.4583 84.8077 33.0466 81.3302L31.1949 80.7405C18.8736 76.5829 14.2502 67.3836 14.2502 67.3836C12.1344 66.6506 10.1796 65.5171 8.49248 64.0448C6.23444 61.8819 3.79966 52.8358 3.79966 52.8358L5.74903 51.413L6.0089 49.5181L10.7435 48.1654L11.852 46.7929L16.0558 46.3857C17.0656 43.3387 17.2954 40.0872 16.7241 36.9286C16.7241 36.9286 20.9378 36.5078 22.3843 38.6806C20.9369 42.6171 20.3031 46.8063 20.5213 50.9947C20.8924 56.4718 22.2348 57.9915 22.2348 57.9915C23.2318 57.7101 24.1751 57.2647 25.0259 56.6736C26.3253 55.749 27.4789 54.5846 28.2565 54.4367C29.034 54.2888 33.5235 56.0481 34.3259 58.1562C34.3259 58.1562 34.8558 61.4796 33.347 62.3658C33.347 62.3658 28.2998 59.5834 27.5069 59.7098C26.714 59.8362 24.9128 63.0888 24.9128 63.0888C23.8287 63.5077 22.6987 63.7963 21.5464 63.9484C21.5464 63.9484 27.5672 73.2119 34.758 75.9396C43.1299 79.1007 53.8202 78.0538 53.8202 78.0538C53.8202 78.0538 51.6415 74.814 56.8108 74.3126C61.9802 73.8113 67.7407 75.368 68.512 78.0311C68.7083 78.6679 68.6462 79.3563 68.3394 79.9478C67.3901 81.8688 64.2776 83.3456 59.4511 83.6727Z" fill="#2DA7D1"/>
<path fill-rule="evenodd" clip-rule="evenodd" d="M33.0469 81.3302L31.1952 80.7406C18.8739 76.583 14.2504 67.3837 14.2504 67.3837C12.1347 66.6507 10.1799 65.5171 8.49277 64.0449C6.23473 61.8819 2.53366 53.7432 2.53366 53.7432L5.74746 51.4014L6.00733 49.5066L10.742 48.1538L11.8504 46.7813L16.0542 46.3741C17.064 43.3272 17.2938 40.0757 16.7226 36.917C16.7226 36.917 20.9362 36.4962 22.3827 38.669C21.2798 42.6025 20.785 46.6815 20.9154 50.7646C20.9619 52.6511 21.1892 54.5288 21.5942 56.372C22.0603 56.6498 22.5897 56.804 23.1321 56.82C23.6745 56.8361 24.212 56.7134 24.6938 56.4636C25.7514 55.613 26.9326 54.9287 28.1966 54.4344C28.9079 54.321 33.4636 56.0459 34.2661 58.1539C34.2661 58.1539 34.7959 61.4772 33.2872 62.3635C33.2872 62.3635 28.24 59.5811 27.447 59.7075C26.6541 59.8339 24.853 63.0865 24.853 63.0865C23.7689 63.5054 22.6388 63.794 21.4865 63.9461C21.4865 63.9461 27.5073 73.2096 34.6981 75.9373C34.9973 76.8865 34.9982 77.9047 34.7006 78.8544C34.403 79.8042 33.8213 80.6398 33.0339 81.2486L33.0469 81.3302Z" fill="#FFCEA8"/>
<g style="mix-blend-mode:multiply">
<path fill-rule="evenodd" clip-rule="evenodd" d="M54.9585 80.6303C54.9585 80.6303 54.1556 76.8162 59.1386 78.2686C64.1216 79.721 68.8685 83.3107 68.5851 86.0738C68.5288 86.7401 68.2155 87.3585 67.7113 87.7978C67.8294 82.7321 54.9585 80.6303 54.9585 80.6303Z" fill="#5E364C"/>
</g>
<path fill-rule="evenodd" clip-rule="evenodd" d="M184.105 67.5232C179.381 81.9173 172.131 95.4376 166.003 100.468C166.003 100.468 151.479 111.473 127.095 107.399L116.692 101.684C99.4158 104.998 81.5959 104.107 64.7363 99.0863C64.7363 99.0863 49.0787 82.9092 48.016 55.2427V55.1719C47.6735 43.867 49.5717 32.6062 53.6012 22.0383C53.6012 22.0383 81.5865 0.370338 107.057 0.700965C132.527 1.03159 180.267 12.6862 187.257 30.4929C190.729 39.1837 188.533 53.7549 184.105 67.5232Z" fill="url(#paint2_linear)"/>
<path style="mix-blend-mode:multiply" opacity="0.3" fill-rule="evenodd" clip-rule="evenodd" d="M75.8241 37.8141C75.8241 37.8141 87.1835 47.119 92.5208 49.2326C97.8581 51.3463 107.092 48.8666 111.532 46.3042C115.972 43.7418 118.617 34.4252 118.617 34.4252C118.617 34.4252 119.101 41.333 118.451 43.8717C117.802 46.4105 99.9127 56.4002 94.8352 55.8098C89.7577 55.2194 78.8706 42.8917 78.8706 42.8917L75.8241 37.8141Z" fill="url(#paint3_linear)"/>
<path style="mix-blend-mode:multiply" opacity="0.3" fill-rule="evenodd" clip-rule="evenodd" d="M51.3338 45.5721C51.3338 45.5721 55.1714 52.5034 59.0091 54.4636C62.8467 56.4237 67.7235 47.5913 67.7235 47.5913C67.7235 47.5913 62.8939 60.9227 58.3832 61.1942C53.8725 61.4658 51.5581 47.8392 51.3338 45.5721Z" fill="url(#paint4_linear)"/>
<path style="mix-blend-mode:multiply" opacity="0.3" fill-rule="evenodd" clip-rule="evenodd" d="M128.795 16.0516C128.795 16.0516 136.258 27.9424 149.696 32.2642C158.625 34.9609 167.882 36.4229 177.208 36.6096C177.208 36.6096 157.465 41.0848 143.603 35.9601C129.74 30.8354 128.795 16.0516 128.795 16.0516Z" fill="url(#paint5_linear)"/>
<path style="mix-blend-mode:multiply" opacity="0.3" fill-rule="evenodd" clip-rule="evenodd" d="M94.9291 33.6456C94.9291 33.6456 96.3933 35.5467 102.167 37.4124C107.942 39.2781 109.914 36.0426 109.914 36.0426C109.914 36.0426 111.024 38.4987 110.669 39.7976C110.315 41.0965 103.584 44.5209 100.727 43.1748C97.8693 41.8286 94.9291 33.6456 94.9291 33.6456Z" fill="url(#paint6_linear)"/>
<path style="mix-blend-mode:multiply" opacity="0.3" fill-rule="evenodd" clip-rule="evenodd" d="M60.0131 38.3098C60.7043 39.3576 61.7337 40.1369 62.9297 40.518C64.6419 40.8486 65.7991 38.8648 65.7991 38.8648C65.8882 40.3717 65.6754 41.8811 65.1733 43.3047C64.3939 44.7689 60.8043 46.0796 59.8124 45.1231C58.8205 44.1667 58.419 39.6678 58.419 39.6678L60.0131 38.3098Z" fill="url(#paint7_linear)"/>
<path fill-rule="evenodd" clip-rule="evenodd" d="M91.2452 2.92086C91.2452 2.92086 77.1109 11.3282 72.8127 19.2633C68.5146 27.1984 71.6319 69.6722 79.8976 84.6213C79.8976 84.6213 69.5537 42.667 76.0009 19.2043C76.0009 19.2043 83.6644 5.38876 97.0784 1.57473L91.2452 2.92086Z" fill="#F89E59"/>
<path fill-rule="evenodd" clip-rule="evenodd" d="M116.859 1.26777C116.859 1.26777 101.721 9.93495 93.2423 12.6626C87.8217 14.3747 82.3008 15.751 76.7109 16.7837L73.6526 23.1364C73.6526 23.1364 89.5818 14.3039 96.5249 12.5091C103.468 10.7143 122.869 1.8818 122.869 1.8818L116.859 1.26777Z" fill="#F89E59"/>
<path fill-rule="evenodd" clip-rule="evenodd" d="M66.908 13.3713C66.908 13.3713 66.4356 17.2207 67.0733 18.2717C67.7109 19.3226 75.2445 17.5395 75.2445 17.5395L72.6703 22.8768C72.6703 22.8768 67.026 19.8303 66.105 18.248C65.184 16.6657 64.2866 14.8709 64.2866 14.8709L66.908 13.3713Z" fill="#F89E59"/>
<path fill-rule="evenodd" clip-rule="evenodd" d="M73.1312 41.2029C73.1312 41.2029 82.377 47.6147 94.3858 56.3055C94.3858 56.3055 109.949 55.904 120.446 43.5763C120.446 43.5763 122.714 26.7734 114.672 17.1852C114.672 17.1852 101.683 17.2678 93.2877 24.0457C93.2877 24.0457 91.3984 37.1999 99.0382 45.3003C99.0382 45.3003 106.324 45.1586 111.212 40.2701C111.212 40.2701 111.023 31.9099 109.571 27.6944L110.752 25.7224L101.164 29.5482L108.355 28.9933C108.355 28.9933 110.929 34.4604 109.323 39.1364C109.323 39.1364 104.6 43.8597 99.605 43.0922C99.605 43.0922 92.5202 32.8663 94.8818 24.5416C97.4375 22.3154 100.469 20.7036 103.744 19.8296C107.018 18.9557 110.45 18.8427 113.775 19.4995C117.865 26.8674 119.033 35.5049 117.046 43.6944C117.046 43.6944 110.894 54.0856 93.76 54.5461C93.76 54.5461 84.715 48.4767 80.9836 43.3284C77.2522 38.18 73.7334 29.1586 73.7334 29.1586L73.1312 41.2029Z" fill="#F89E59"/>
<path fill-rule="evenodd" clip-rule="evenodd" d="M72.1397 39.5023C72.1397 39.5023 70.3685 41.9702 68.2076 48.9488C66.0467 55.9274 59.2216 63.0241 57.2614 62.6935C55.3013 62.3629 51.5463 51.7119 51.0267 46.2802C50.5072 40.8485 54.8053 31.2602 55.75 29.3709C56.6946 27.4816 63.2954 24.7067 65.35 25.3562C67.4046 26.0056 66.7197 40.7067 65.8105 43.5407C64.9013 46.3746 60.3906 46.5164 59.5994 45.8079C58.8083 45.0994 57.4622 39.3724 57.4622 39.3724L55.7382 38.8883L62.5751 35.4639L59.0327 39.833C59.0327 39.833 58.7611 43.8123 59.9064 44.7688C61.0518 45.7252 63.4489 44.6034 64.8304 43.0211C66.212 41.4388 66.0113 28.3436 64.2164 26.7732C62.4216 25.2027 57.4858 28.2964 55.9507 31.4964C54.4157 34.6964 51.9714 41.6632 52.0659 45.9968C52.1603 50.3304 54.4275 58.5724 57.4858 60.1665C61.9374 62.3983 66.3301 50.9562 67.747 45.9377C69.164 40.9193 71.443 24.258 71.443 24.258L72.1397 39.5023Z" fill="#F89E59"/>
<path fill-rule="evenodd" clip-rule="evenodd" d="M48.8543 63.9926C48.8543 63.9926 52.6093 74.1829 53.979 74.8914C55.3488 75.5999 55.7857 65.9409 67.7591 65.6457L75.5171 67.8302C75.5171 67.8302 80.6536 61.5483 84.6448 61.0051C95.4421 58.7595 106.637 59.3452 117.141 62.7055C117.141 62.7055 131.606 46.3512 136.4 45.3239C141.194 44.2966 158.186 46.3984 161.764 52.4088C161.764 52.4088 160.713 70.7586 152.849 84.1018C152.849 84.1018 142.221 90.1948 131.747 85.6368C131.747 85.6368 128.04 73.5925 137.156 59.5881C137.156 59.5881 144.689 55.4789 152.671 58.3364C152.671 58.3364 151.573 71.2664 146.767 79.2605C146.767 79.2605 152.542 64.6538 149.223 60.1077C149.223 60.1077 142.93 58.1475 137.581 61.8671C132.232 65.5866 133.306 83.0036 134.57 84.3852C135.833 85.7667 148.586 84.9402 152.187 81.5631C155.789 78.1859 161.303 55.0656 157.501 51.1925C157.501 51.1925 144.807 45.5719 135.373 48.1933C135.373 48.1933 123.458 56.459 117.2 67.6177C117.2 67.6177 93.5835 66.3424 86.4986 65.9291C79.4138 65.5158 77.5835 73.0139 77.5835 73.0139C77.5835 73.0139 71.6794 69.7313 68.999 69.3889C66.3185 69.0464 52.8691 78.9298 52.8691 78.9298C50.8192 74.1698 49.467 69.1389 48.8543 63.9926V63.9926Z" fill="#F89E59"/>
<path fill-rule="evenodd" clip-rule="evenodd" d="M187.353 30.4811C187.353 30.4811 183.81 38.0973 177.351 38.2272C170.892 38.3571 153.499 40.3172 141.821 36.4442C130.142 32.5711 124.628 14.1622 126.978 12.0368C129.328 9.91132 141.266 7.1364 153.109 9.85227C163.996 12.3556 167.763 20.4796 167.799 21.4242C167.834 22.3689 165.756 32.5121 163.075 33.4213C160.395 34.3305 141.585 26.7733 139.624 21.2235C137.948 16.5003 140.888 13.5954 142.73 13.3357C144.572 13.0759 159.261 19.0036 159.261 19.0036L163.04 18.1534L159.982 21.2944L159.427 25.0493L157.596 19.653C157.596 19.653 147.182 14.8117 144.678 14.9298C142.175 15.0479 139.589 17.7047 140.238 20.2671C141.596 25.5335 160.218 31.5556 162.816 31.4139C165.413 31.2722 166.452 21.8966 165.886 19.9718C165.319 18.0471 159.214 13.2766 151.149 11.1394C137.7 7.59692 129.694 11.1394 128.985 13.7017C128.277 16.2641 132.847 30.3394 141.407 34.2833C149.968 38.2272 172.439 39.4316 178.969 35.2516C180.785 34.1961 182.201 32.5705 182.997 30.6273C183.794 28.6841 183.926 26.5323 183.374 24.5062C183.374 24.5062 186.703 28.7217 187.353 30.4811Z" fill="#F89E59"/>
<path fill-rule="evenodd" clip-rule="evenodd" d="M187.812 51.157C187.812 51.157 177.185 45.56 173.477 47.2839C169.769 49.0079 164.03 75.7415 166.392 79.7445C168.754 83.7474 178.318 82.1061 178.318 82.1061L180.467 77.2648C180.467 77.2648 173.465 82.791 168.836 79.4375C164.208 76.084 170.49 53.2116 173.749 49.4448C177.008 45.678 188.072 52.1253 187.387 55.1836L187.812 51.157Z" fill="#F89E59"/>
<path fill-rule="evenodd" clip-rule="evenodd" d="M185.83 61.7373C185.83 61.7373 181.98 57.7225 179.701 57.5218C177.422 57.321 174.022 71.0303 174.022 71.0303L176.572 71.7506C176.137 71.3897 175.8 70.9241 175.593 70.3974C175.387 69.8708 175.317 69.3003 175.391 68.7395C175.852 67.11 177.682 59.8952 179.961 59.6118C182.24 59.3284 185.05 63.4258 184.082 67.4878C184.106 67.4878 185.558 62.741 185.83 61.7373Z" fill="#FF9D52"/>
<path style="mix-blend-mode:multiply" opacity="0.5" fill-rule="evenodd" clip-rule="evenodd" d="M184.103 67.5231C179.38 81.9172 172.13 95.4375 166.002 100.468C166.002 100.468 151.478 111.473 127.094 107.399L116.691 101.684C99.4146 104.998 81.5947 104.107 64.7351 99.0863C64.7351 99.0863 49.0775 82.9091 48.0148 55.2427C48.1565 56.1755 51.0141 68.1135 54.0724 70.9475C57.6148 74.2538 53.9543 104.967 87.8909 100.468C114.471 96.9254 114.129 64.087 114.129 64.087L128.428 54.0146C128.428 54.0146 133.151 61.8789 139.669 60.7807C139.669 60.7807 142.61 64.4648 150.297 64.8427C150.297 64.8427 158.397 65.1379 160.31 63.284C160.31 63.284 165.99 64.8191 168.718 63.1659C168.718 63.1659 178.79 68.4205 184.139 67.5113L184.103 67.5231Z" fill="url(#paint8_linear)"/>
<path fill-rule="evenodd" clip-rule="evenodd" d="M79.0826 69.4123C79.0826 69.4123 81.1018 60.3791 87.8797 55.5259C95.9918 49.7045 112.287 53.6839 114.46 64.9724C114.46 64.937 93.0634 62.1031 79.0826 69.4123Z" fill="#FF882E"/>
<path fill-rule="evenodd" clip-rule="evenodd" d="M86.6405 73.5454C86.6405 73.5454 88.1401 85.1528 98.0471 87.2783C107.954 89.4037 112.961 76.9343 113.398 72.8723C113.835 68.8103 86.6405 73.5454 86.6405 73.5454Z" fill="#FF882E"/>
<path fill-rule="evenodd" clip-rule="evenodd" d="M56.6111 76.344C56.6111 76.344 58.2997 90.5137 65.3019 91.1041C72.3041 91.6946 72.5639 75.0451 71.3949 71.1012L56.6111 76.344Z" fill="#FF882E"/>
<path fill-rule="evenodd" clip-rule="evenodd" d="M56.6111 76.344C56.6111 76.344 57.8982 89.9943 65.9749 88.7544C74.0517 87.5146 71.2178 70.0857 71.2178 70.0857L70.5565 69.5662C70.5565 69.5662 59.1144 61.5957 56.6111 76.344Z" fill="url(#paint9_linear)"/>
<path fill-rule="evenodd" clip-rule="evenodd" d="M85.2225 65.9883C85.2225 65.9883 86.4033 86.8297 100.668 85.4599C114.932 84.0902 114.459 64.9374 114.459 64.9374C114.141 62.9654 98.8609 44.1315 85.2225 65.9883Z" fill="url(#paint10_linear)"/>
<path fill-rule="evenodd" clip-rule="evenodd" d="M104.812 79.8155C103.331 79.8178 101.882 79.3804 100.649 78.5587C99.4159 77.737 98.4545 76.5679 97.8864 75.1995C97.3183 73.831 97.1691 72.3248 97.4576 70.8715C97.746 69.4182 98.4593 68.0831 99.507 67.0354C100.555 65.9877 101.89 65.2745 103.343 64.986C104.796 64.6975 106.303 64.8468 107.671 65.4149C109.039 65.983 110.209 66.9443 111.03 68.1773C111.852 69.4102 112.289 70.8593 112.287 72.3409C112.287 74.3233 111.499 76.2245 110.098 77.6262C108.696 79.028 106.795 79.8155 104.812 79.8155Z" fill="#371903"/>
<path fill-rule="evenodd" clip-rule="evenodd" d="M67.7233 85.8022C65.5978 85.9203 63.7321 83.4406 63.5432 80.3469C63.3543 77.2531 64.9129 74.5609 67.0856 74.4428C69.2583 74.3247 71.065 76.8044 71.2539 79.8982C71.4428 82.9919 69.8369 85.7196 67.7233 85.8022Z" fill="#371903"/>
<path fill-rule="evenodd" clip-rule="evenodd" d="M73.1312 88.9549C76.5201 88.9549 85.1519 86.9003 87.8796 84.7158C87.8796 84.7158 87.301 93.9734 82.932 94.918C77.0515 96.1697 73.1312 88.9549 73.1312 88.9549Z" fill="url(#paint11_linear)"/>
<path fill-rule="evenodd" clip-rule="evenodd" d="M69.6711 43.7415L72.1391 39.5024L79.8616 45.678L76.9095 37.3415L72.8475 29.1703L69.2106 42.0766L69.6711 43.7415Z" fill="#FF882E"/>
<path fill-rule="evenodd" clip-rule="evenodd" d="M67.9003 18.5902L73.8044 22.7585C73.8044 22.7585 81.4679 18.3422 83.7114 15.2957C83.7114 15.2957 77.8074 18.2005 75.3749 18.5548C72.8876 18.7502 70.3893 18.762 67.9003 18.5902V18.5902Z" fill="#FF882E"/>
<path fill-rule="evenodd" clip-rule="evenodd" d="M55.69 38.8884L57.4022 39.3725L59.0317 41.5806L59.0435 39.833L62.5269 35.464L55.69 38.8884Z" fill="#FF882E"/>
<path fill-rule="evenodd" clip-rule="evenodd" d="M101.236 29.5482L110.824 25.7224L109.584 27.6943L109.253 31.2958L108.438 28.9932L101.236 29.5482Z" fill="#FF882E"/>
<path fill-rule="evenodd" clip-rule="evenodd" d="M97.9058 40.1165C97.9058 40.1165 100.09 43.1985 100.728 43.1748C101.366 43.1512 104.27 42.4782 104.27 42.4782C104.27 42.4782 102.511 45.5247 99.5472 45.2767C99.5118 45.2767 97.6106 44.3911 97.9058 40.1165Z" fill="#FF882E"/>
<path fill-rule="evenodd" clip-rule="evenodd" d="M132.905 25.8762C132.905 25.8762 134.818 31.6739 143.272 35.0392C151.727 38.4046 162.709 37.8378 162.709 37.8378C162.709 37.8378 148.539 39.1485 141.773 36.4444C135.007 33.7404 132.905 25.8762 132.905 25.8762Z" fill="#FF882E"/>
<path fill-rule="evenodd" clip-rule="evenodd" d="M157.476 19.6532L159.307 25.0495L159.862 21.2945L162.92 18.1536L157.476 19.6532Z" fill="#FF882E"/>
<path fill-rule="evenodd" clip-rule="evenodd" d="M76.9569 66.4252L74.4182 67.5234L67.723 63.6621C67.723 63.6621 56.6115 60.7691 54.3562 75.6119C54.3562 75.6119 57.6506 65.6341 67.723 67.1573L75.9887 72.1285L77.8071 74.4902L81.8573 67.5115L86.2027 59.1868C86.2027 59.1868 82.1879 60.6038 76.9569 66.4252Z" fill="#FF882E"/>
<path fill-rule="evenodd" clip-rule="evenodd" d="M71.2185 70.0855C71.2185 70.0855 60.5912 62.7054 56.6118 76.3438L54.3565 76.7335C53.4827 74.1121 61.772 58.6198 71.2185 70.0855Z" fill="#371903"/>
<path fill-rule="evenodd" clip-rule="evenodd" d="M85.4838 68.3027L80.9494 69.3536C80.9494 69.3536 85.2594 56.5064 97.3273 55.5499C110.505 54.499 114.461 64.9374 114.461 64.9374C112.406 59.4584 91.3052 50.7794 85.4838 68.3027Z" fill="#371903"/>
<path fill-rule="evenodd" clip-rule="evenodd" d="M55.5498 58.0297C55.8797 58.6413 56.3427 59.1711 56.9048 59.5799C57.4668 59.9886 58.1135 60.2659 58.797 60.3913C60.8398 60.5212 63.5203 56.2349 63.5203 56.2349C63.5203 56.2349 61.4775 61.0998 58.5963 62.2924C58.6435 62.2688 56.2819 63.9337 55.5498 58.0297Z" fill="#FF882E"/>
<path fill-rule="evenodd" clip-rule="evenodd" d="M175.958 64.0043L174.022 71.0302L176.572 71.7505C176.172 71.362 175.859 70.8922 175.656 70.3728C175.452 69.8535 175.362 69.2965 175.391 68.7394C175.663 67.0627 175.958 64.0043 175.958 64.0043Z" fill="#FB6D00"/>
<path fill-rule="evenodd" clip-rule="evenodd" d="M146.496 84.3381C148.82 83.8071 150.973 82.6983 152.754 81.1145C155.033 78.7528 157.265 69.7668 157.265 69.7668C157.265 69.7668 156.462 79.1425 152.849 84.1492C150.791 84.8063 148.589 84.8718 146.496 84.3381Z" fill="#FF9D52"/>
<path fill-rule="evenodd" clip-rule="evenodd" d="M168.222 98.3305C168.222 98.3305 162.318 103.302 145.409 101.306C125.17 98.9446 115.7 101.897 115.7 101.897C115.7 101.897 123.611 107.269 129.87 107.801C136.128 108.332 156.816 109.69 168.222 98.3305Z" fill="url(#paint12_linear)"/>
<path fill-rule="evenodd" clip-rule="evenodd" d="M99.6877 74.2421C99.5808 74.5987 99.3709 74.9158 99.0844 75.1534C98.7979 75.3911 98.4476 75.5389 98.0774 75.5782C97.7073 75.6175 97.3337 75.5466 97.0037 75.3743C96.6737 75.202 96.402 74.9361 96.2226 74.61C96.0432 74.2838 95.9642 73.9119 95.9954 73.5409C96.0266 73.17 96.1667 72.8166 96.3982 72.525C96.6296 72.2334 96.942 72.0166 97.2961 71.902C97.6503 71.7873 98.0304 71.7799 98.3888 71.8805C98.6312 71.9469 98.8579 72.0613 99.0553 72.2169C99.2527 72.3726 99.4168 72.5663 99.5379 72.7865C99.6591 73.0068 99.7347 73.2491 99.7605 73.4991C99.7862 73.7492 99.7615 74.0018 99.6877 74.2421V74.2421Z" fill="white"/>
<path fill-rule="evenodd" clip-rule="evenodd" d="M65.4325 82.8383C65.3616 83.0929 65.2168 83.3206 65.0164 83.4928C64.816 83.6649 64.569 83.7737 64.3067 83.8053C64.0444 83.8369 63.7786 83.79 63.543 83.6704C63.3074 83.5508 63.1127 83.364 62.9834 83.1336C62.8541 82.9032 62.7961 82.6396 62.8168 82.3762C62.8375 82.1128 62.9359 81.8615 63.0995 81.6541C63.2632 81.4467 63.4847 81.2925 63.7361 81.2111C63.9874 81.1297 64.2573 81.1249 64.5114 81.197C64.8507 81.2934 65.138 81.52 65.3106 81.8276C65.4832 82.1352 65.527 82.4986 65.4325 82.8383V82.8383Z" fill="white"/>
<g style="mix-blend-mode:multiply">
<path fill-rule="evenodd" clip-rule="evenodd" d="M85.7295 69.7669C87.8786 61.206 103.064 53.9795 114.352 67.488C114.352 67.488 114.459 65.9647 114.459 64.9374C114.364 61.761 94.3849 45.9027 85.1509 68.3854L85.7295 69.7669Z" fill="#D8CBD9"/>
</g>
<g style="mix-blend-mode:multiply">
<path fill-rule="evenodd" clip-rule="evenodd" d="M56.8591 77.938C56.2214 72.9314 64.7115 65.5867 71.4421 71.8096C71.4421 71.8096 71.4421 71.1011 71.2178 70.0856C71.2178 70.0856 58.5949 62.2686 56.6111 76.3439C56.6292 76.8833 56.7125 77.4186 56.8591 77.938V77.938Z" fill="#D8CBD9"/>
</g>
<g style="mix-blend-mode:soft-light" opacity="0.7">
<path fill-rule="evenodd" clip-rule="evenodd" d="M85.8612 39.6679C85.8612 39.6679 78.3394 33.4922 78.7763 28.6509C79.2132 23.8096 87.7387 19.2044 87.7387 19.2044C87.7387 19.2044 92.9579 13.7963 98.0708 13.0878C102.041 12.7232 106.04 12.8302 109.985 13.4066C109.985 13.4066 100.928 18 97.5513 18.5195C94.1741 19.0391 89.38 18.1771 86.924 20.2317C84.4679 22.2863 82.0354 24.955 84.8103 29.4184C87.5852 33.8819 85.8612 39.6679 85.8612 39.6679Z" fill="white"/>
</g>
<g style="mix-blend-mode:soft-light" opacity="0.7">
<path fill-rule="evenodd" clip-rule="evenodd" d="M88.4581 44.391C88.4581 44.391 95.3304 43.1394 96.8419 48.6419C95.1781 48.8689 93.4846 48.5836 91.9869 47.8242C90.4892 47.0648 89.2583 45.8673 88.4581 44.391V44.391Z" fill="white"/>
</g>
<g style="mix-blend-mode:soft-light" opacity="0.7">
<path fill-rule="evenodd" clip-rule="evenodd" d="M56.2809 43.6711C57.4687 45.3615 58.5228 47.1421 59.4337 48.9965C59.7793 49.7603 59.9527 50.5907 59.9415 51.429C59.9415 51.429 60.8389 47.6268 63.4839 47.0482C63.4839 47.0482 62.3031 52.8223 59.7762 53.6135C58.3905 52.3946 57.3413 50.8401 56.7292 49.099C56.1172 47.358 55.9628 45.4889 56.2809 43.6711V43.6711Z" fill="white"/>
</g>
<g style="mix-blend-mode:soft-light" opacity="0.7">
<path fill-rule="evenodd" clip-rule="evenodd" d="M120.045 20.5742C120.045 20.5742 122.938 32.1462 123.694 36.7986C124.45 41.451 123.151 45.0052 121.911 45.9262C120.671 46.8473 112.677 52.1609 112.37 56.9314C112.37 56.9314 115.251 58.1122 118.628 54.806C122.005 51.4997 121.935 46.5403 124.32 43.6473C126.705 40.7543 130.059 38.5698 130.011 35.0746C129.964 31.5794 124.686 29.1705 122.702 26.2775C120.718 23.3845 121.935 22.369 120.045 20.5742Z" fill="white"/>
</g>
<g style="mix-blend-mode:soft-light" opacity="0.7">
<path fill-rule="evenodd" clip-rule="evenodd" d="M137.935 39.8687C139.595 39.1738 141.399 38.8883 143.193 39.0363C144.987 39.1842 146.719 39.7613 148.243 40.7189C148.243 40.7189 144.441 45.2178 137.935 39.8687Z" fill="white"/>
</g>
<g style="mix-blend-mode:soft-light" opacity="0.7">
<path fill-rule="evenodd" clip-rule="evenodd" d="M141.549 51.0626C143.212 50.3674 145.018 50.0828 146.814 50.2328C148.611 50.3829 150.344 50.9631 151.869 51.9246C151.869 51.9246 148.055 56.4116 141.549 51.0626Z" fill="white"/>
</g>
<g style="mix-blend-mode:soft-light" opacity="0.7">
<path fill-rule="evenodd" clip-rule="evenodd" d="M120.553 10.1473C120.598 8.91259 121.004 7.71825 121.722 6.7127C122.44 5.70714 123.438 4.93468 124.591 4.49125C128.7 2.81449 135.289 5.41228 135.289 5.41228C135.289 5.41228 129.255 8.08091 126.433 7.32519C123.611 6.56947 120.553 10.1473 120.553 10.1473Z" fill="white"/>
</g>
<g style="mix-blend-mode:soft-light" opacity="0.7">
<path fill-rule="evenodd" clip-rule="evenodd" d="M162.248 43.4467C165.49 42.0482 168.959 41.2481 172.486 41.085C177.209 41.1441 178.567 42.9861 182.074 42.4075C185.581 41.8289 186.797 37.4599 186.797 37.4599C186.797 37.4599 187.529 41.8998 185.959 44.8754C184.388 47.8511 179.972 42.809 176.383 42.1832C172.793 41.5574 173.466 45.6193 170.266 46.3751C167.066 47.1308 162.248 43.4467 162.248 43.4467Z" fill="white"/>
</g>
<g style="mix-blend-mode:soft-light" opacity="0.7">
<path fill-rule="evenodd" clip-rule="evenodd" d="M163.512 34.9445C163.791 34.3295 164.261 33.8212 164.853 33.4956C165.444 33.1699 166.125 33.0445 166.794 33.1379C169.333 33.315 171.683 30.6936 172.214 29.5246C172.746 28.3556 172.297 25.9822 176.099 25.7814C176.685 26.5674 177.039 27.5027 177.118 28.48C177.197 29.4574 177 30.4374 176.548 31.3076C174.989 34.4132 171.246 32.6302 169.675 33.1615C168.105 33.6929 167.55 35.842 166.676 35.842C165.592 35.6589 164.531 35.3579 163.512 34.9445Z" fill="white"/>
</g>
<path fill-rule="evenodd" clip-rule="evenodd" d="M162.709 43.7769C164.623 42.5729 166.771 41.7911 169.011 41.4836C171.251 41.1762 173.531 41.3501 175.698 41.9938C175.698 41.9938 172.935 46.6226 169.605 46.1857C167.192 45.7589 164.863 44.9456 162.709 43.7769V43.7769Z" fill="white"/>
<path fill-rule="evenodd" clip-rule="evenodd" d="M122.335 25.6161C122.553 28.8864 123.136 32.1222 124.071 35.2634C125.5 39.5733 127.732 39.9866 127.732 39.9866C127.732 39.9866 131.274 36.5623 129.397 32.9844C127.519 29.4065 122.335 25.6161 122.335 25.6161Z" fill="white"/>
<path style="mix-blend-mode:multiply" opacity="0.5" fill-rule="evenodd" clip-rule="evenodd" d="M73.1312 88.9549C73.1312 88.9549 84.526 86.0383 87.8796 84.7158C87.8796 84.7158 89.7216 95.1424 84.0537 97.3269C78.1733 99.5704 73.1312 88.9549 73.1312 88.9549Z" fill="url(#paint13_linear)"/>
<path fill-rule="evenodd" clip-rule="evenodd" d="M90.1586 17.1144C90.1586 17.1144 92.6619 18.7321 97.9756 17.197C100.832 16.507 103.445 15.0493 105.533 12.9815C105.533 12.9815 94.2678 11.4937 90.1586 17.1144Z" fill="white"/>
<path fill-rule="evenodd" clip-rule="evenodd" d="M86.5099 9.26205C86.5099 9.26205 91.6819 10.3366 97.8694 6.40449C104.057 2.47238 104.08 1.07903 104.08 1.07903C104.08 1.07903 89.3439 3.2281 86.5099 9.26205Z" fill="white"/>
<path fill-rule="evenodd" clip-rule="evenodd" d="M69.1868 14.0207C69.1868 14.0207 71.0053 14.741 74.4297 12.9461C76.5324 11.8219 78.3283 10.2003 79.6607 8.22287C79.6607 8.22287 70.4503 10.986 69.1868 14.0207Z" fill="white"/>
<path fill-rule="evenodd" clip-rule="evenodd" d="M55.7247 23.4789C55.7247 23.4789 60.3062 25.2737 64.9586 20.7158C63.3153 20.2633 61.5778 20.2824 59.9448 20.7711C58.3118 21.2597 56.8494 22.1981 55.7247 23.4789Z" fill="white"/>
<g style="mix-blend-mode:soft-light" opacity="0.7">
<path fill-rule="evenodd" clip-rule="evenodd" d="M78.1724 55.5142C78.1724 55.5142 80.534 60.3792 86.9458 54.8766C86.9813 54.8766 80.4632 48.6183 78.1724 55.5142Z" fill="white"/>
</g>
<g style="mix-blend-mode:soft-light" opacity="0.7">
<path fill-rule="evenodd" clip-rule="evenodd" d="M110.763 88.5061C110.763 88.5061 115.486 91.2456 117.741 83.157C117.741 83.157 108.885 81.4921 110.763 88.5061Z" fill="white"/>
</g>
<path fill-rule="evenodd" clip-rule="evenodd" d="M145.02 19.1572C145.02 19.1572 152.105 17.1734 156.285 22.3218C156.285 22.3218 152.577 24.6244 145.02 19.1572Z" fill="white"/>
<path fill-rule="evenodd" clip-rule="evenodd" d="M134.865 46.5993C134.865 46.5993 140.013 47.2015 147.299 48.1698C154.584 49.1381 156.025 48.1698 156.025 48.1698C156.025 48.1698 144.748 43.848 137.132 45.1587C136.676 45.2316 136.239 45.3971 135.85 45.6448C135.46 45.8925 135.125 46.2173 134.865 46.5993Z" fill="#FF882E"/>
<path fill-rule="evenodd" clip-rule="evenodd" d="M105.875 155.801C112.617 156.58 131.546 155.529 131.546 155.529C131.546 155.529 130.53 146.425 130.53 129.988C130.53 127.941 130.566 125.973 130.637 124.084C130.778 119.491 131.074 115.429 131.381 112.075C131.995 105.498 132.691 100.527 132.691 100.527C131.085 100.433 126.303 100.527 126.303 100.527C125.748 103.703 125.016 108.509 124.709 111.237C124.201 115.807 123.977 119.904 123.741 124.084C123.198 133.472 123.198 140.131 122.147 141.478C119.903 144.335 108.083 149.531 108.083 149.531C106.711 151.339 105.939 153.532 105.875 155.801Z" fill="#2DA7D1"/>
<path fill-rule="evenodd" clip-rule="evenodd" d="M105.875 155.801C112.783 157.359 131.546 155.529 131.546 155.529C131.546 155.529 130.53 146.425 130.53 129.988C130.53 127.941 130.566 125.973 130.637 124.084H123.741C123.198 133.471 123.198 140.131 122.147 141.477C119.903 144.335 108.083 149.531 108.083 149.531C106.711 151.339 105.939 153.532 105.875 155.801V155.801Z" fill="url(#paint14_linear)"/>
<path fill-rule="evenodd" clip-rule="evenodd" d="M105.875 155.801V157.985C105.875 157.985 114.353 159.024 131.546 158.281V155.529C131.546 155.529 112.736 156.793 105.875 155.801Z" fill="url(#paint15_linear)"/>
<g style="mix-blend-mode:soft-light" opacity="0.7">
<path fill-rule="evenodd" clip-rule="evenodd" d="M122.146 141.43L128.616 146.555C128.616 146.555 114.529 150.192 108.082 149.483C108.082 149.483 119.477 144.347 122.146 141.43Z" fill="white"/>
</g>
<g style="mix-blend-mode:multiply">
<path fill-rule="evenodd" clip-rule="evenodd" d="M124.769 111.19C127.027 110.817 129.345 111.108 131.44 112.028C132.054 105.451 132.751 100.48 132.751 100.48C131.216 100.385 126.363 100.48 126.363 100.48C125.749 103.656 125.017 108.462 124.769 111.19Z" fill="#371903"/>
</g>
<path fill-rule="evenodd" clip-rule="evenodd" d="M10.7584 57.0326C13.4675 56.702 16.1488 56.1746 18.7813 55.4545C18.7813 55.4545 22.3947 52.3195 23.3782 49.9386L21.0373 43.281L12.0785 50.688L7.50931 50.6034C7.50931 50.6034 9.99098 55.744 10.7584 57.0326Z" fill="#FFB184"/>
<path fill-rule="evenodd" clip-rule="evenodd" d="M2.53309 53.7429C2.53309 53.7429 4.73843 57.6002 7.07757 58.997L9.45433 57.2549L10.023 57.8219L13.4961 56.4311L13.4295 55.4134L16.7406 54.1321C16.8757 51.5543 16.6488 48.9703 16.0667 46.4554C14.6523 46.3348 13.2278 46.4728 11.8628 46.8626L10.7544 48.2351C10.7544 48.2351 9.40005 48.1401 6.01977 49.5879L5.79607 51.8595C5.79607 51.8595 4.76163 51.8212 2.53309 53.7429Z" fill="url(#paint16_linear)"/>
<path fill-rule="evenodd" clip-rule="evenodd" d="M27.116 58.3246L23.302 59.8951L28.2614 60.5918L27.116 58.3246Z" fill="#FFB184"/>
<path fill-rule="evenodd" clip-rule="evenodd" d="M10.7406 48.1539C11.4947 50.6079 12.3897 53.0163 13.4213 55.3672C13.4213 55.3672 11.6122 49.2704 11.2927 47.4919L10.7406 48.1539Z" fill="#FFB184"/>
<path fill-rule="evenodd" clip-rule="evenodd" d="M5.7482 51.4016C6.77605 53.4608 8.01611 55.4071 9.44821 57.2088C7.70987 55.7242 6.21952 53.9719 5.03335 52.0178L5.7482 51.4016Z" fill="#FFB184"/>
<path fill-rule="evenodd" clip-rule="evenodd" d="M177.195 133.838C177.419 132.393 177.502 130.929 177.443 129.469C177.184 127.827 176.825 126.202 176.369 124.604C177.02 126.226 177.561 127.891 177.986 129.587C178.274 130.715 178.302 131.894 178.069 133.035L178.813 133.306L177.195 133.838Z" fill="#FF7F85"/>
<path fill-rule="evenodd" clip-rule="evenodd" d="M178.908 126.883C179.359 129.004 179.326 131.199 178.813 133.306L177.196 133.838C177.083 134.866 176.877 135.881 176.582 136.872L175.011 137.392L174.114 139.553C173.629 139.771 173.093 139.848 172.566 139.775C172.04 139.702 171.545 139.482 171.138 139.14L170.76 137.593L168.694 137.427C167.688 134.548 167.154 131.526 167.111 128.477C166.661 126.27 165.898 124.139 164.844 122.148C164.844 122.148 164.029 122.36 164.407 124.179C164.466 124.344 165.895 128.76 165.588 131.464C165.588 131.464 163.404 132.763 161.845 131.819C161.768 129.714 161.427 127.627 160.829 125.607C160.201 123.609 159.436 121.656 158.539 119.762C158.409 119.101 159.897 115.972 161.987 113.858C161.036 108.791 159.527 103.845 157.488 99.11C155.051 93.1868 151.567 87.7509 147.203 83.0628L147.073 83.1336C146.424 83.4288 143.696 84.4089 141.984 80.4178C140.035 75.8598 141.381 70.6052 145.432 69.9321C146.765 71.222 147.99 72.6202 149.092 74.1122C154.133 80.8592 158.484 88.0943 162.081 95.7093C164.514 100.598 167.1 106.337 169.768 112.996C169.863 112.996 176.582 121.427 178.908 126.883Z" fill="#2DA7D1"/>
<path fill-rule="evenodd" clip-rule="evenodd" d="M178.91 126.883C179.361 129.004 179.329 131.199 178.816 133.306L177.198 133.838C177.085 134.866 176.88 135.881 176.584 136.872L175.013 137.392L174.116 139.553C173.631 139.771 173.095 139.848 172.569 139.775C172.042 139.702 171.547 139.482 171.14 139.14L170.763 137.593L168.696 137.427C167.691 134.548 167.156 131.526 167.114 128.477C166.664 126.27 165.9 124.138 164.847 122.148C164.847 122.148 164.032 122.36 164.41 124.179C164.469 124.344 165.898 128.76 165.591 131.464C165.591 131.464 163.406 132.763 161.847 131.819C161.771 129.714 161.43 127.627 160.832 125.607C160.204 123.609 159.438 121.656 158.541 119.762C158.411 119.101 159.899 115.972 161.989 113.858C161.038 108.791 159.529 103.845 157.49 99.11V99.11C157.49 99.11 158.388 96.5358 162.213 95.6738C164.646 100.562 167.232 106.301 169.901 112.961C169.865 112.996 176.584 121.427 178.91 126.883Z" fill="#FFCEA8"/>
<path fill-rule="evenodd" clip-rule="evenodd" d="M170.82 137.593C170.82 137.593 171.469 133.165 171.587 130.508L170.926 125.631C171.411 127.361 171.805 129.115 172.107 130.886L170.82 137.593Z" fill="#FFB184"/>
<path fill-rule="evenodd" clip-rule="evenodd" d="M174.835 137.829C175.284 135.257 175.552 132.657 175.638 130.047L174.563 124.45C175.299 126.399 175.872 128.405 176.275 130.449C176.203 132.757 175.894 135.052 175.354 137.297L174.835 137.829Z" fill="#FFB184"/>
<g style="mix-blend-mode:multiply">
<path fill-rule="evenodd" clip-rule="evenodd" d="M149.141 74.1122C145.138 76.3558 147.252 83.0628 147.252 83.0628L147.122 83.1336C146.473 83.4288 143.745 84.4089 142.033 80.4178C140.085 75.8598 141.431 70.6052 145.481 69.9321C146.814 71.222 148.039 72.6202 149.141 74.1122Z" fill="#371903"/>
</g>
<path fill-rule="evenodd" clip-rule="evenodd" d="M75.6578 88.7306C75.6578 88.7306 77.5707 91.9661 81.0541 91.0923C84.0534 90.372 85.1515 86.1683 85.1515 86.1683C82.0419 87.2142 78.8714 88.0699 75.6578 88.7306Z" fill="url(#paint17_linear)"/>
<g style="mix-blend-mode:soft-light" opacity="0.7">
<path fill-rule="evenodd" clip-rule="evenodd" d="M84.3853 95.9101C84.3853 95.9101 85.5661 92.4975 86.8532 92.3676C86.8532 92.3558 88.9551 94.7175 84.3853 95.9101Z" fill="white"/>
</g>
<defs>
<linearGradient id="paint0_linear" x1="-17625.3" y1="-7236.58" x2="-17928.9" y2="-7523.49" gradientUnits="userSpaceOnUse">
<stop offset="0.01" stop-color="#371903"/>
<stop offset="1" stop-color="#731653"/>
</linearGradient>
<linearGradient id="paint1_linear" x1="-34366.6" y1="-17614.9" x2="-33785.6" y2="-18229.6" gradientUnits="userSpaceOnUse">
<stop offset="0.02" stop-color="#FE9128"/>
<stop offset="1" stop-color="#FF9D52"/>
</linearGradient>
<linearGradient id="paint2_linear" x1="13240" y1="49746.4" x2="15068.9" y2="40219.9" gradientUnits="userSpaceOnUse">
<stop offset="0.02" stop-color="#FFCDA6"/>
<stop offset="1" stop-color="#FFC395"/>
</linearGradient>
<linearGradient id="paint3_linear" x1="4562.55" y1="9493.15" x2="4695.42" y2="9020.78" gradientUnits="userSpaceOnUse">
<stop offset="0.02" stop-color="#DF8792"/>
<stop offset="0.34" stop-color="#ECB9C0"/>
<stop offset="0.62" stop-color="#F7DFE2"/>
<stop offset="0.86" stop-color="#FDF6F7"/>
<stop offset="1" stop-color="white"/>
</linearGradient>
<linearGradient id="paint4_linear" x1="468.916" y1="6311.99" x2="525.274" y2="6111.62" gradientUnits="userSpaceOnUse">
<stop offset="0.02" stop-color="#DF8792"/>
<stop offset="0.34" stop-color="#ECB9C0"/>
<stop offset="0.62" stop-color="#F7DFE2"/>
<stop offset="0.86" stop-color="#FDF6F7"/>
<stop offset="1" stop-color="white"/>
</linearGradient>
<linearGradient id="paint5_linear" x1="7502.68" y1="10039.3" x2="7580.87" y2="9761.3" gradientUnits="userSpaceOnUse">
<stop offset="0.02" stop-color="#DF8792"/>
<stop offset="0.34" stop-color="#ECB9C0"/>
<stop offset="0.62" stop-color="#F7DFE2"/>
<stop offset="0.86" stop-color="#FDF6F7"/>
<stop offset="1" stop-color="white"/>
</linearGradient>
<linearGradient id="paint6_linear" x1="1614.74" y1="4043.41" x2="1635.94" y2="3968.04" gradientUnits="userSpaceOnUse">
<stop offset="0.02" stop-color="#DF8792"/>
<stop offset="0.34" stop-color="#ECB9C0"/>
<stop offset="0.62" stop-color="#F7DFE2"/>
<stop offset="0.86" stop-color="#FDF6F7"/>
<stop offset="1" stop-color="white"/>
</linearGradient>
<linearGradient id="paint7_linear" x1="253.029" y1="2730.62" x2="265.749" y2="2685.4" gradientUnits="userSpaceOnUse">
<stop offset="0.02" stop-color="#DF8792"/>
<stop offset="0.34" stop-color="#ECB9C0"/>
<stop offset="0.62" stop-color="#F7DFE2"/>
<stop offset="0.86" stop-color="#FDF6F7"/>
<stop offset="1" stop-color="white"/>
</linearGradient>
<linearGradient id="paint8_linear" x1="17715" y1="28376.6" x2="18496" y2="25600" gradientUnits="userSpaceOnUse">
<stop offset="0.02" stop-color="#DF8792"/>
<stop offset="1" stop-color="#FFD0C6"/>
</linearGradient>
<linearGradient id="paint9_linear" x1="-267.381" y1="8926.74" x2="-164.557" y2="8561.18" gradientUnits="userSpaceOnUse">
<stop stop-color="white"/>
<stop offset="0.98" stop-color="#FFF9F9"/>
</linearGradient>
<linearGradient id="paint10_linear" x1="1601.76" y1="12759" x2="1807.72" y2="12026.8" gradientUnits="userSpaceOnUse">
<stop stop-color="white"/>
<stop offset="0.98" stop-color="white"/>
</linearGradient>
<linearGradient id="paint11_linear" x1="1137.28" y1="4658.52" x2="1165.56" y2="4558.01" gradientUnits="userSpaceOnUse">
<stop offset="0.01" stop-color="#371903"/>
<stop offset="1" stop-color="#371903"/>
</linearGradient>
<linearGradient id="paint12_linear" x1="8649.67" y1="6466.62" x2="10773.2" y2="7063.92" gradientUnits="userSpaceOnUse">
<stop stop-color="#934000"/>
<stop offset="0.98" stop-color="#EF5666"/>
</linearGradient>
<linearGradient id="paint13_linear" x1="1411.33" y1="4069.62" x2="1447.9" y2="3918.24" gradientUnits="userSpaceOnUse">
<stop offset="0.02" stop-color="#DF8792"/>
<stop offset="1" stop-color="#FFD0C6"/>
</linearGradient>
<linearGradient id="paint14_linear" x1="-22609.6" y1="11732.2" x2="-22609.6" y2="10845" gradientUnits="userSpaceOnUse">
<stop offset="0.02" stop-color="#FE8B2A"/>
<stop offset="1" stop-color="#FF9D52"/>
</linearGradient>
<linearGradient id="paint15_linear" x1="-22330.5" y1="1240.78" x2="-22888.6" y2="1240.78" gradientUnits="userSpaceOnUse">
<stop offset="0.01" stop-color="#371903"/>
<stop offset="1" stop-color="#731653"/>
</linearGradient>
<linearGradient id="paint16_linear" x1="1688.16" y1="2648.28" x2="1654.37" y2="2563.4" gradientUnits="userSpaceOnUse">
<stop offset="0.02" stop-color="#FFA892"/>
<stop offset="1" stop-color="#FFCEA8"/>
</linearGradient>
<linearGradient id="paint17_linear" x1="934.176" y1="1627.01" x2="934.176" y2="1605.24" gradientUnits="userSpaceOnUse">
<stop stop-color="white"/>
<stop offset="0.98" stop-color="white"/>
</linearGradient>
</defs>
</svg>
