<svg width="157" height="158" viewBox="0 0 157 158" fill="none" xmlns="http://www.w3.org/2000/svg">
<g style="mix-blend-mode:multiply" opacity="0.2">
<path d="M72.7216 157.63C101.246 157.63 124.37 156.951 124.37 156.114C124.37 155.277 101.246 154.599 72.7216 154.599C44.1973 154.599 21.0737 155.277 21.0737 156.114C21.0737 156.951 44.1973 157.63 72.7216 157.63Z" fill="#0099CE"/>
</g>
<path fill-rule="evenodd" clip-rule="evenodd" d="M57.5027 116.736C57.5027 116.736 64.8265 122.517 80.5541 121.619C96.2817 120.72 104.595 112.716 104.595 112.716L57.5027 116.736Z" fill="url(#paint0_linear)"/>
<path fill-rule="evenodd" clip-rule="evenodd" d="M40.8133 93.1405C39.4066 97.2244 36.8292 95.6907 36.8292 95.6907C33.2541 100.939 30.3801 106.632 28.2802 112.625C27.1889 115.614 26.2797 118.666 25.5576 121.764C25.5576 121.764 28.0443 124.405 28.2802 126.964C27.4936 129.335 26.8868 131.762 26.4652 134.225C26.2927 136.412 26.2746 137.764 26.2746 137.764C25.3153 137.89 24.3401 137.742 23.4612 137.338C23.4612 137.338 22.4811 134.615 23.0347 132.718C23.4423 131.496 24.0731 130.361 24.8951 129.369C24.7495 128.807 24.3961 128.32 23.9059 128.008C22.7532 129.86 21.8988 131.881 21.3739 133.998C21.5069 136.944 21.3427 139.897 20.8838 142.81C20.8838 142.81 18.8419 143.255 17.8254 142.601L17.6348 141.766L16.0829 141.276L14.5855 140.169L13.4329 140.078C12.5055 138.689 11.9723 137.073 11.8901 135.405L13.0336 133.98C13.0665 132.985 13.2438 132.001 13.56 131.057C14.4261 129.006 15.4931 127.045 16.7455 125.204C18.2157 122.989 21.2831 116.609 24.5503 109.549C25.6575 107.198 26.801 104.775 27.9263 102.416C30.5064 97.1883 33.7388 92.3092 37.5462 87.895C38.5536 86.7242 39.1888 86.0799 39.1888 86.0799C40.0614 87.007 40.6717 88.1495 40.9572 89.3902C41.2426 90.631 41.193 91.9253 40.8133 93.1405Z" fill="url(#paint1_linear)"/>
<path fill-rule="evenodd" clip-rule="evenodd" d="M26.3012 137.819C25.342 137.944 24.3667 137.796 23.4878 137.392C23.4878 137.392 22.5077 134.669 23.0613 132.773C23.4689 131.551 24.0998 130.415 24.9217 129.424C24.7762 128.861 24.4227 128.375 23.9325 128.063C22.7799 129.914 21.9254 131.935 21.4005 134.052C21.5335 136.999 21.3694 139.951 20.9104 142.865C20.9104 142.865 18.8685 143.309 17.852 142.656L17.6615 141.821L16.1096 141.331L14.6121 140.224L13.4596 140.133C12.5321 138.743 11.9989 137.128 11.9167 135.459L13.0602 134.034C13.0931 133.04 13.2704 132.055 13.5866 131.112C14.4527 129.06 15.5197 127.1 16.7721 125.258C18.2423 123.044 21.3097 116.664 24.5769 109.603C24.5769 109.603 27.6897 110.638 28.2706 112.653C27.1792 115.641 26.27 118.693 25.5479 121.792C25.5479 121.792 28.0346 124.432 28.2706 126.992C27.4839 129.363 26.8771 131.79 26.4555 134.252C26.3194 136.466 26.3012 137.819 26.3012 137.819Z" fill="url(#paint2_linear)"/>
<path fill-rule="evenodd" clip-rule="evenodd" d="M17.6617 141.821C17.6205 139.584 17.7601 137.347 18.0792 135.132C18.5601 132.827 18.9867 131.43 18.9867 131.43L17.3804 135.622C16.897 137.616 16.8598 139.693 17.2714 141.703L17.6617 141.821Z" fill="#FFB184"/>
<path fill-rule="evenodd" clip-rule="evenodd" d="M15.039 140.532C14.7914 138.82 14.7154 137.087 14.8121 135.359C15.0571 133.544 15.3385 131.529 15.3385 131.529C14.9017 132.867 14.562 134.235 14.322 135.622C14.329 137.16 14.426 138.697 14.6124 140.223L15.039 140.532Z" fill="#FFB184"/>
<path fill-rule="evenodd" clip-rule="evenodd" d="M14.1133 140.178C13.5612 139.131 13.2951 137.957 13.3419 136.775C13.5484 137.993 13.9792 139.163 14.6125 140.224L14.1133 140.178Z" fill="#FFB184"/>
<g style="mix-blend-mode:multiply">
<path fill-rule="evenodd" clip-rule="evenodd" d="M40.8135 93.1405C39.4069 97.2244 36.8295 95.6907 36.8295 95.6907L35.2867 98.0049C34.0706 98.1683 31.8108 96.3441 31.5476 95.9993C33.8531 92.5111 36.4101 89.1959 39.1981 86.0799C40.0691 87.0079 40.6778 88.1508 40.9616 89.3915C41.2455 90.6322 41.1944 91.9261 40.8135 93.1405Z" fill="#5E364C"/>
</g>
<path fill-rule="evenodd" clip-rule="evenodd" d="M106.401 153.111C100.518 154.08 94.5532 154.463 88.5947 154.254C88.5947 154.254 88.8579 145.687 89.5023 135.895C89.5839 134.588 89.6656 133.245 89.7382 131.901C89.7382 131.793 89.7382 131.693 89.7382 131.584C89.7927 130.558 89.8381 129.533 89.8834 128.516C90.2192 120.884 90.2828 115.902 90.2828 115.902L95.6463 113.923C94.9775 118.819 94.5957 123.749 94.5028 128.689C94.5028 129.161 94.5028 129.642 94.4574 130.123C94.2941 135.922 94.403 141.222 95.0382 142.247C96.3995 144.435 104.912 147.747 104.912 147.747C106.04 149.296 106.569 151.202 106.401 153.111Z" fill="url(#paint3_linear)"/>
<path fill-rule="evenodd" clip-rule="evenodd" d="M106.401 153.11C100.518 154.08 94.5532 154.463 88.5947 154.254C88.5947 154.254 88.8579 145.687 89.5023 135.894C89.5839 134.588 89.6656 133.244 89.7382 131.901C89.7084 131.854 89.6926 131.799 89.6926 131.742C89.6926 131.686 89.7084 131.631 89.7382 131.584C89.9379 131.212 90.8454 130.585 94.4574 130.122C94.2941 135.922 94.403 141.222 95.0382 142.247C96.3995 144.434 104.912 147.747 104.912 147.747C106.04 149.296 106.569 151.201 106.401 153.11Z" fill="url(#paint4_linear)"/>
<g style="mix-blend-mode:soft-light" opacity="0.7">
<path fill-rule="evenodd" clip-rule="evenodd" d="M95.0736 142.247C95.0736 142.247 91.7339 145.823 91.7339 146.785C96.1122 147.393 100.527 147.696 104.948 147.693C104.948 147.693 96.2353 143.545 95.0736 142.247Z" fill="white"/>
</g>
<path fill-rule="evenodd" clip-rule="evenodd" d="M88.5947 154.254V155.76C88.5947 155.76 101.945 155.524 106.664 154.045L106.401 153.138C100.497 153.907 94.5483 154.279 88.5947 154.254Z" fill="url(#paint5_linear)"/>
<g style="mix-blend-mode:multiply">
<path fill-rule="evenodd" clip-rule="evenodd" d="M95.6818 113.923C95.013 118.819 94.6312 123.749 94.5383 128.689C92.7777 128.689 91.0534 128.571 89.9189 128.516C90.2547 120.884 90.3183 115.902 90.3183 115.902L95.6818 113.923Z" fill="#001A2F"/>
</g>
<path fill-rule="evenodd" clip-rule="evenodd" d="M70.326 116.147C66.9571 120.499 64.2674 125.336 62.3488 130.495C62.1309 131.094 61.9131 131.693 61.7044 132.31C59.3935 139.217 57.9426 146.383 57.3845 153.646C50.2967 154.835 38.9888 153.646 38.9888 153.646C39.1975 151.132 41.4663 148.019 41.4663 148.019C47.9189 147.03 51.0953 144.344 51.0953 144.344C52.8557 139.049 55.0064 133.892 57.5297 128.916C58.0198 127.954 58.5008 127.046 58.9545 126.193C61.7498 121.093 65.3073 115.956 65.3073 115.956L70.326 116.147Z" fill="url(#paint6_linear)"/>
<path fill-rule="evenodd" clip-rule="evenodd" d="M61.7044 132.292C59.3935 139.199 57.9426 146.365 57.3845 153.628C50.2967 154.817 38.9888 153.628 38.9888 153.628C39.1975 151.114 41.4663 148.001 41.4663 148.001C47.9189 147.012 51.0953 144.326 51.0953 144.326C52.8557 139.031 55.0064 133.874 57.5297 128.897C57.5297 128.897 60.933 130.095 61.7044 132.292Z" fill="url(#paint7_linear)"/>
<g style="mix-blend-mode:multiply">
<path fill-rule="evenodd" clip-rule="evenodd" d="M70.3258 116.146C66.9569 120.499 64.2672 125.336 62.3485 130.495L58.9543 126.184C61.7496 121.083 65.3071 115.947 65.3071 115.947L70.3258 116.146Z" fill="#001A2F"/>
</g>
<path fill-rule="evenodd" clip-rule="evenodd" d="M38.9888 153.637V155.37C38.9888 155.37 52.0573 156.278 57.3845 155.37V153.637C57.3845 153.637 45.0511 153.383 38.9888 153.637Z" fill="url(#paint8_linear)"/>
<path fill-rule="evenodd" clip-rule="evenodd" d="M150.698 85.7441H150.071L150.389 84.0288C150.411 83.484 150.318 82.9406 150.117 82.434C149.915 81.9274 149.609 81.4689 149.218 81.0884L148.22 81.2881C147.887 80.5253 147.377 79.8532 146.732 79.3278C145.832 79.7319 145.035 80.3337 144.399 81.0884C144.644 79.1917 140.769 79.8723 138.219 78.5382C137.23 77.5036 135.306 77.4946 135.233 77.912C135.161 78.3295 135.769 80.5167 135.751 81.9959C135.732 83.4752 133.935 85.5263 134.008 87.0872C134.081 88.6482 136.649 92.2874 136.649 92.2874C136.649 92.2874 132.583 95.6725 129.289 96.698C128.566 96.9606 127.79 97.0417 127.029 96.934C125.341 96.5982 123.617 94.3294 122.355 92.233C121.626 91.0043 120.969 89.7347 120.386 88.4304L117.464 91.3254C118.026 93.8037 118.943 96.1879 120.186 98.4042C121.602 100.764 123.626 102.779 126.357 102.615C127.698 102.537 129.023 102.28 130.296 101.853C136.449 99.8653 141.187 94.7922 141.187 94.7922C148.12 91.997 151.269 89.0747 151.269 89.0747C151.416 88.5108 151.441 87.9221 151.342 87.3478C151.244 86.7735 151.024 86.2268 150.698 85.7441ZM139.027 84.7095C139.027 84.7095 138.119 84.0016 138.119 83.7475C138.119 83.4934 138.691 82.7855 138.773 82.4679C139.021 81.307 138.939 80.0997 138.537 78.9829C138.617 79.0773 138.705 79.1653 138.8 79.2461C139.62 79.7172 140.534 79.9994 141.477 80.072C141.44 80.9787 141.201 81.8657 140.777 82.6681C140.353 83.4704 139.755 84.1679 139.027 84.7095Z" fill="url(#paint9_linear)"/>
<g style="mix-blend-mode:multiply">
<path fill-rule="evenodd" clip-rule="evenodd" d="M120.222 98.4224C118.979 96.2061 118.062 93.8219 117.5 91.3436L120.422 88.4758C121.005 89.7801 121.662 91.0497 122.391 92.2784C122.201 92.4418 119.814 95.3459 120.222 98.4224Z" fill="#5E364C"/>
</g>
<path fill-rule="evenodd" clip-rule="evenodd" d="M122.41 77.0319C120.695 91.9699 115.213 107.761 106.764 111.745C92.5611 118.434 62.4128 120.14 53.4645 115.23C44.5161 110.32 36.4572 97.4605 32.5911 84.0743C29.7415 74.1459 29.2332 63.9361 32.4641 56.5125C36.194 47.9272 47.4566 39.3782 74.601 37.8354C98.1969 36.4922 117.927 41.4111 121.611 54.8789C123.209 60.4693 123.417 68.6371 122.41 77.0319Z" fill="url(#paint10_linear)"/>
<path style="mix-blend-mode:multiply" opacity="0.3" fill-rule="evenodd" clip-rule="evenodd" d="M50.6408 50.9492C47.9012 53.7976 46.3723 57.5971 46.3754 61.5492C49.5804 65.6309 54.1376 68.4341 59.2261 69.4539C59.2261 69.4539 73.2747 66.822 77.0864 58.3002C77.0864 58.3002 70.8244 71.5503 59.6072 74.9081C59.6072 74.9081 47.2285 71.8951 43.4622 61.5674C43.4531 61.5674 46.1757 54.8334 50.6408 50.9492Z" fill="url(#paint11_linear)"/>
<path style="mix-blend-mode:multiply" opacity="0.3" fill-rule="evenodd" clip-rule="evenodd" d="M55.7228 56.7207L55.9588 60.85C57.6896 61.9007 59.6617 62.4883 61.6853 62.5562C64.78 62.5562 66.6768 59.2618 66.6768 59.2618C66.6768 59.2618 67.067 64.7071 60.0427 65.5329C60.0427 65.5329 55.7228 63.7178 53.6899 61.1314C54.1993 59.5893 54.8813 58.1097 55.7228 56.7207Z" fill="url(#paint12_linear)"/>
<path style="mix-blend-mode:multiply" opacity="0.3" fill-rule="evenodd" clip-rule="evenodd" d="M37.854 70.1161C37.854 70.1161 45.2141 83.1484 47.5556 84.6367C49.897 86.1251 59.3535 82.6765 59.3535 82.6765C59.3535 82.6765 48.5266 91.289 47.3559 90.8443C46.1852 90.3996 38.5619 73.1745 37.854 70.1161Z" fill="url(#paint13_linear)"/>
<path style="mix-blend-mode:multiply" opacity="0.3" fill-rule="evenodd" clip-rule="evenodd" d="M32.5634 58.0369C32.5634 58.0369 39.0977 55.6591 43.2451 51.3665C45.8392 48.6414 48.1109 45.6267 50.0153 42.3819C50.0153 42.3819 46.7663 58.3182 31.2656 60.3965L32.5634 58.0369Z" fill="url(#paint14_linear)"/>
<path style="mix-blend-mode:multiply" opacity="0.3" fill-rule="evenodd" clip-rule="evenodd" d="M80.1824 60.7324C80.1824 60.7324 91.5538 68.1016 97.362 68.2831C103.17 68.4646 111.284 57.3019 111.284 57.3019C111.284 57.3019 109.768 68.9729 97.48 71.8225C97.48 71.8134 88.5589 71.8407 80.1824 60.7324Z" fill="url(#paint15_linear)"/>
<path style="mix-blend-mode:multiply" opacity="0.3" fill-rule="evenodd" clip-rule="evenodd" d="M99.1573 54.1165L98.6672 57.4562C98.6672 57.4562 96.2622 60.6507 88.4846 58.037L89.011 60.2423C89.011 60.2423 94.4562 63.1918 95.9718 63.3007C97.4874 63.4096 101.744 57.8555 101.744 57.8555L99.1573 54.1165Z" fill="url(#paint16_linear)"/>
<path style="mix-blend-mode:multiply" opacity="0.3" fill-rule="evenodd" clip-rule="evenodd" d="M59.9897 82.359C59.9897 82.359 64.0283 80.3715 67.0141 80.3987C69.9999 80.4259 78.2494 78.7742 78.2494 78.7742L86.3627 79.591C90.549 79.4643 94.739 79.5673 98.9139 79.8996C103.325 80.4259 108.08 81.4061 109.242 81.1157C110.403 80.8252 117.092 67.1577 117.092 67.1577C117.092 67.1577 112.237 86.216 109.45 87.305C109.45 87.305 99.041 80.7163 94.8482 80.1264C90.6554 79.5365 78.9209 82.849 78.9209 82.849L74.3379 82.7855C74.3379 82.7855 66.5149 81.2246 59.9897 82.359Z" fill="url(#paint17_linear)"/>
<path style="mix-blend-mode:multiply" opacity="0.3" fill-rule="evenodd" clip-rule="evenodd" d="M63.1926 42.7358C63.1926 42.7358 68.1569 46.8288 72.268 46.6019C73.3436 46.6285 74.3898 46.2492 75.1987 45.5396C76.0075 44.83 76.5196 43.8421 76.6332 42.7721L77.813 42.2367C77.813 42.2367 77.7404 46.5565 81.1618 46.0937C84.5833 45.6309 90.9179 40.1856 90.9179 40.1856C90.9179 40.1856 84.3654 49.3608 77.3048 50.0959C70.2442 50.831 63.1926 42.7358 63.1926 42.7358Z" fill="url(#paint18_linear)"/>
<path fill-rule="evenodd" clip-rule="evenodd" d="M71.7966 37.9895L76.1709 42.0008L76.7699 69.4538L79.5288 98.9578L79.2475 72.004L77.8317 42.2368L81.4256 37.5357L71.7966 37.9895Z" fill="#FF7F85"/>
<path fill-rule="evenodd" clip-rule="evenodd" d="M77.0864 58.2999C77.0864 58.2999 70.6792 70.6969 59.3985 74.082C59.3985 74.082 46.6386 70.1342 44.043 61.2313C44.043 61.2313 46.7656 49.7872 58.2187 47.2461C58.2187 47.2461 65.597 51.1032 65.842 61.5126C64.1769 63.2942 61.9171 64.4047 59.4893 64.6345C59.4893 64.6345 55.4326 63.1734 54.2528 59.9516L55.7593 56.6845L49.8059 63.128L53.5358 62.2205C53.5358 62.2205 58.0191 65.8506 60.1609 66.6855C60.1609 66.6855 67.1307 63.4093 68.0655 60.4689C68.0655 60.4689 63.5278 48.8888 57.9828 45.8213C57.9828 45.8213 48.4718 48.2535 42.355 61.5307C42.355 61.5307 45.6221 71.7224 59.7797 75.7972C59.7797 75.7972 68.1653 71.3412 72.6848 65.9777C72.6848 65.9777 75.716 63.8813 77.395 63.9176L77.0864 58.2999Z" fill="#FF7F85"/>
<path fill-rule="evenodd" clip-rule="evenodd" d="M78.9115 79.9268L75.1361 82.25C75.1361 82.25 63.9099 81.5603 60.9785 82.0776C58.0472 82.5949 49.5345 89.1564 47.7285 89.9278C45.9225 90.6992 38.3446 69.0545 36.8381 68.8004C35.3316 68.5462 32.1552 76.832 32.972 83.6658C33.7888 90.4995 40.3865 93.3764 40.9583 93.0407C41.53 92.7049 40.7677 86.1252 39.8148 83.2756C39.1354 81.4673 37.8576 79.946 36.1937 78.9648C36.1937 78.9648 35.4223 83.0577 36.5567 85.3175C36.5567 85.3175 36.2936 82.1048 36.9198 81.0158C36.9198 81.0158 38.7348 81.9233 39.5335 85.0816C40.0426 87.2446 40.1928 89.4766 39.9782 91.6884C39.9782 91.6884 34.7961 89.3107 33.7797 84.1468C32.7632 78.9829 34.6055 72.2308 35.7763 71.6228C36.947 71.0147 45.1602 90.6811 48.0552 92.6323C48.0552 92.6323 55.0342 84.4009 61.0693 82.7946C67.1044 81.1882 77.6137 83.3845 78.6936 84.7095L78.9115 79.9268Z" fill="#FF7F85"/>
<path fill-rule="evenodd" clip-rule="evenodd" d="M32.5638 56.5213L32.7544 59.9155C36.5814 58.7059 40.0866 56.6493 43.0095 53.8985C48.0463 49.2338 48.0826 43.9973 48.0826 43.9973L45.6323 44.1335L51.9034 41.6559C51.9034 41.6559 46.8938 57.4742 31.03 61.2859L32.5638 56.5213Z" fill="#FF7F85"/>
<path fill-rule="evenodd" clip-rule="evenodd" d="M59.7078 39.6502C59.7078 39.6502 66.605 49.0432 76.6968 51.3574L77.0962 48.0449L74.6186 49.5787C74.6186 49.5787 64.4179 46.0574 60.6153 39.4687L59.7078 39.6502Z" fill="#FF7F85"/>
<path fill-rule="evenodd" clip-rule="evenodd" d="M40.3499 101.562C40.3499 101.562 42.1649 94.4654 43.8166 93.0405C45.4684 91.6157 54.1625 105.32 55.8687 111.591C57.5749 117.862 51.9754 114.313 51.9754 114.313L50.242 113.106C50.242 113.106 53.0191 114.821 54.6073 114.204C56.1954 113.587 47.5738 94.5561 44.8331 94.4654C42.0923 94.3746 40.8671 102.406 40.8671 102.406L40.3499 101.562Z" fill="#FF7F85"/>
<path fill-rule="evenodd" clip-rule="evenodd" d="M46.5299 109.694C46.5299 109.694 48.5356 109.803 48.7897 109.04C49.0438 108.278 46.6842 104.285 46.6842 104.285L45.1323 104.076L47.0563 100.283L47.2106 103.913C47.2106 103.913 49.4703 107.861 49.3977 109.204C49.3251 110.547 47.501 110.674 47.501 110.674L46.5299 109.694Z" fill="#FF7F85"/>
<path fill-rule="evenodd" clip-rule="evenodd" d="M78.1121 58.0914C78.1121 58.0914 85.9169 69.6807 97.4789 71.8134C97.4789 71.8134 109.712 66.4407 111.283 57.2928C111.283 57.2928 107.317 46.2299 95.6094 44.9957C95.6094 44.9957 88.7121 49.6695 89.6468 60.0335C91.5145 61.623 93.9018 62.4694 96.3535 62.4113C96.3535 62.4113 100.22 60.5055 101.027 57.1748L99.1578 54.1164L105.747 59.8157L101.944 59.362C101.944 59.362 97.8964 63.4368 95.8726 64.5531C95.8726 64.5531 88.5669 62.0755 87.3145 59.2621C87.3145 59.2621 90.5181 47.2464 95.6729 43.5708C95.6729 43.5708 105.402 44.914 112.98 57.4108C112.98 57.4108 110.883 67.911 97.2792 73.5558C97.2792 73.5558 88.4489 70.08 83.3485 65.2609C83.3485 65.2609 80.0905 63.5185 78.4297 63.7454L78.1121 58.0914Z" fill="#FF7F85"/>
<path fill-rule="evenodd" clip-rule="evenodd" d="M78.3123 79.9538L82.1602 81.8234C82.1602 81.8234 92.7511 79.8994 95.6008 80.0809C98.4505 80.2624 107.272 85.8528 109.087 86.4336C110.902 87.0145 116.656 63.5637 118.062 63.1826C119.469 62.8014 122.437 71.6953 122.419 78.6107C122.4 85.5261 116.438 89.0746 115.848 88.8114C115.258 88.5482 115.267 81.9141 115.848 78.9828C116.29 77.1293 117.353 75.4831 118.861 74.318C118.861 74.318 120.05 78.293 119.224 80.6708C119.224 80.6708 119.115 77.4581 118.398 76.4417C118.398 76.4417 116.81 77.5579 116.365 80.7706C116.122 82.9785 116.226 85.2109 116.674 87.3866C116.674 87.3866 121.339 84.4461 121.738 79.2187C122.137 73.9913 120.095 66.3589 118.906 65.9142C117.717 65.4696 111.646 86.9509 109.114 89.2016C109.114 89.2016 101.563 81.7871 95.6462 80.8705C89.7291 79.9538 79.7552 83.2845 78.8477 84.7275L78.3123 79.9538Z" fill="#FF7F85"/>
<path fill-rule="evenodd" clip-rule="evenodd" d="M119.868 50.7402L120.068 54.1343C120.068 54.1343 117.055 53.9256 111.519 49.8598C105.983 45.7941 104.894 41.6013 104.894 41.6013L106.301 41.0386L101.309 39.5956C102.954 43.8606 105.75 47.5859 109.385 50.3576C113.02 53.1293 117.353 54.8387 121.901 55.296L119.868 50.7402Z" fill="#FF7F85"/>
<path fill-rule="evenodd" clip-rule="evenodd" d="M93.0875 38.2162C93.0875 38.2162 87.4789 47.709 77.7138 51.1486L76.9424 47.9087L79.5833 49.152C79.5833 49.152 89.0489 45.0863 92.0801 38.1073L93.0875 38.2162Z" fill="#FF7F85"/>
<path fill-rule="evenodd" clip-rule="evenodd" d="M117.791 97.0246C117.791 97.0246 115.404 90.1545 113.825 88.9203C112.246 87.686 106.074 102.216 105.167 108.641C104.259 115.066 109.16 110.157 109.16 110.157L110.666 108.895C110.666 108.895 108.007 111.536 106.555 111.082C105.103 110.629 110.648 90.808 113.053 90.4177C115.458 90.0275 117.391 97.8958 117.391 97.8958L117.791 97.0246Z" fill="#FF7F85"/>
<path fill-rule="evenodd" clip-rule="evenodd" d="M113.217 105.755C113.217 105.755 111.465 106.082 111.157 105.356C110.848 104.63 112.509 100.401 112.509 100.401L113.852 100.029L111.756 96.4621L112.001 100.092C112.001 100.092 110.431 104.258 110.639 105.592C110.848 106.926 112.455 106.844 112.455 106.844L113.217 105.755Z" fill="#FF7F85"/>
<path style="mix-blend-mode:multiply" opacity="0.5" fill-rule="evenodd" clip-rule="evenodd" d="M118.234 82.5767C116.519 83.094 116.083 80.6528 116.083 80.6528L115.23 81.9596C114.059 87.6317 104.694 99.3026 104.694 99.3026C104.694 99.3026 90.5179 122.182 66.6769 113.923C56.4671 110.411 55.1421 94.8648 61.5221 91.3526C66.6951 88.4848 75.2622 91.9607 74.7177 91.3526C75.6252 87.7769 74.6451 83.3118 73.3927 82.9397C55.9407 77.794 49.1705 92.7411 47.9817 92.6322C41.4293 92.0514 40.8938 87.187 40.8938 87.187C40.8938 87.187 40.8938 89.0021 39.9863 89.0021C39.0787 89.0021 34.541 85.1723 34.541 85.1723C33.5881 85.3538 32.9075 83.9199 32.9075 83.9199L32.5898 84.0923C36.4287 97.4785 44.5239 110.356 53.4632 115.248C62.4024 120.14 92.5599 118.452 106.763 111.763C115.212 107.779 120.693 91.9879 122.409 77.0498C121.545 79.2372 120.102 81.148 118.234 82.5767Z" fill="url(#paint19_linear)"/>
<path fill-rule="evenodd" clip-rule="evenodd" d="M72.9946 65.8054L77.5323 58.6449C77.5323 58.6449 81.6707 62.6018 82.9775 64.8162C82.9775 64.8162 79.175 63.0011 77.8046 63.11C76.4342 63.2189 72.9946 65.8054 72.9946 65.8054Z" fill="#E16070"/>
<path fill-rule="evenodd" clip-rule="evenodd" d="M74.3098 82.7671L78.9473 83.8017L81.3886 82.3678C80.4951 81.8537 79.4877 81.5699 78.4573 81.542C77.0305 81.7817 75.6379 82.1931 74.3098 82.7671Z" fill="#E16070"/>
<path fill-rule="evenodd" clip-rule="evenodd" d="M53.8176 71.6772C53.8176 71.6772 58.682 74.3998 59.9526 73.937C61.2231 73.4741 66.0875 70.7969 66.0875 70.7969C66.0875 70.7969 61.0598 75.7521 59.7892 75.8247C58.5187 75.8973 53.8176 71.6772 53.8176 71.6772Z" fill="#E16070"/>
<path fill-rule="evenodd" clip-rule="evenodd" d="M54.2167 59.9879L54.8157 62.3293L53.5452 62.2476L49.8152 63.1279L55.7232 56.7207L54.2167 59.9879Z" fill="#E16070"/>
<path fill-rule="evenodd" clip-rule="evenodd" d="M110.32 55.2598L111.282 57.3018C110.945 59.0776 110.264 60.7702 109.277 62.2841C109.277 62.2841 112.725 58.8899 112.979 57.4288L110.32 55.2598Z" fill="#E16070"/>
<path fill-rule="evenodd" clip-rule="evenodd" d="M99.1587 54.1165L101.028 57.193L100.357 60.2696L101.945 59.362L105.747 59.8158C105.747 59.8158 100.856 55.6048 99.1587 54.1165Z" fill="#E16070"/>
<path fill-rule="evenodd" clip-rule="evenodd" d="M103.587 83.566C103.587 83.566 109.168 86.7151 109.531 86.1888C109.894 85.6624 111.473 81.9506 111.473 81.9506C111.473 81.9506 111.101 86.4156 109.114 89.2108C109.114 89.1655 105.111 84.3828 103.587 83.566Z" fill="#E16070"/>
<path fill-rule="evenodd" clip-rule="evenodd" d="M44.8611 85.735C44.8611 85.735 47.0755 90.2726 47.7289 89.9005C48.3823 89.5285 51.9489 87.1779 51.9489 87.1779C51.9489 87.1779 48.5548 93.1132 48.0102 92.6232C46.4666 90.5867 45.3914 88.2347 44.8611 85.735Z" fill="#E16070"/>
<path fill-rule="evenodd" clip-rule="evenodd" d="M111.754 96.4621L111.999 100.083L111.528 101.835L112.508 100.401L113.851 100.029L111.754 96.4621Z" fill="#E16070"/>
<path fill-rule="evenodd" clip-rule="evenodd" d="M45.1323 104.076L47.0563 100.283L47.2106 103.904L47.7097 104.829L46.6842 104.285L45.1323 104.076Z" fill="#E16070"/>
<path style="mix-blend-mode:multiply" opacity="0.5" fill-rule="evenodd" clip-rule="evenodd" d="M64.6443 98.3951C67.5564 97.9978 70.5148 98.0991 73.3929 98.6946C77.2318 99.7201 78.2936 101.653 78.2936 101.653C78.2936 101.653 73.756 108.777 68.6738 107.498C63.5915 106.218 64.6443 98.3951 64.6443 98.3951Z" fill="url(#paint20_linear)"/>
<path fill-rule="evenodd" clip-rule="evenodd" d="M50.2424 113.106C50.2424 113.106 53.7365 115.175 54.6077 114.204C55.4789 113.233 53.4007 108.759 53.4007 108.759C53.4007 108.759 56.3774 113.142 55.8873 114.613C55.3973 116.083 52.5839 114.803 52.5839 114.803L50.2424 113.106Z" fill="#E16070"/>
<path fill-rule="evenodd" clip-rule="evenodd" d="M116.265 83.9743C116.265 83.9743 116.337 87.3231 116.691 87.3322C117.045 87.3413 118.924 85.3719 118.924 85.3719C118.924 85.3719 117 89.0021 115.847 88.7661C115.719 87.1568 115.86 85.5373 116.265 83.9743Z" fill="#E16070"/>
<path fill-rule="evenodd" clip-rule="evenodd" d="M73.8647 50.1595L77.4858 48.8708L81.0615 49.6694L77.7127 51.1487L77.4223 52.1107L76.6963 51.3575L73.8647 50.1595Z" fill="#E16070"/>
<path fill-rule="evenodd" clip-rule="evenodd" d="M92.8506 70.7789C94.4705 71.2575 96.1282 71.5975 97.8058 71.7953C99.1035 71.7953 103.55 68.6643 103.55 68.6643C103.55 68.6643 98.8494 73.6921 97.2794 73.5469C95.7093 73.4017 92.8506 70.7789 92.8506 70.7789Z" fill="#E16070"/>
<path fill-rule="evenodd" clip-rule="evenodd" d="M93.2952 53.608C93.2952 53.608 97.1794 51.793 96.0178 48.6529C95.1538 49.1504 94.443 49.8756 93.963 50.7494C93.4829 51.6232 93.2519 52.612 93.2952 53.608Z" fill="white"/>
<path fill-rule="evenodd" clip-rule="evenodd" d="M60.4694 53.0727C60.4694 53.0727 60.1064 57.9916 63.3917 58.6268C63.4189 58.6541 64.8528 55.2054 60.4694 53.0727Z" fill="white"/>
<path fill-rule="evenodd" clip-rule="evenodd" d="M64.373 40.5033C64.373 40.5033 70.0815 42.0007 73.2851 39.9951C71.8943 39.2594 70.329 38.918 68.7583 39.0075C67.1875 39.0971 65.6711 39.6143 64.373 40.5033Z" fill="white"/>
<path fill-rule="evenodd" clip-rule="evenodd" d="M80.5349 40.4216C80.5349 40.4216 85.6171 41.3291 89.6103 38.8697C89.5921 38.8697 83.675 37.1907 80.5349 40.4216Z" fill="white"/>
<path fill-rule="evenodd" clip-rule="evenodd" d="M108.968 43.7343C108.968 43.7343 109.604 46.5658 111.573 46.9379C113.542 47.31 114.241 46.4024 114.241 46.4024C113.752 45.4617 112.98 44.6982 112.034 44.2195C111.088 43.7408 110.016 43.5711 108.968 43.7343Z" fill="white"/>
<path fill-rule="evenodd" clip-rule="evenodd" d="M39.8237 48.9888C39.8237 48.9888 42.5917 49.8418 43.8895 48.3081C45.1873 46.7744 44.7516 45.7489 44.7516 45.7489C43.6942 45.7039 42.6494 45.9925 41.7651 46.5739C40.8807 47.1553 40.2016 48.0001 39.8237 48.9888Z" fill="white"/>
<g style="mix-blend-mode:soft-light">
<path fill-rule="evenodd" clip-rule="evenodd" d="M106.074 79.2553C106.074 79.2553 108.796 80.0902 110.031 78.6019C111.265 77.1135 110.866 76.1061 110.866 76.1061C109.838 76.0655 108.824 76.3473 107.964 76.912C107.105 77.4767 106.444 78.2961 106.074 79.2553Z" fill="white"/>
</g>
<g style="mix-blend-mode:soft-light">
<path fill-rule="evenodd" clip-rule="evenodd" d="M90.6455 84.1195C90.6455 84.1195 92.0703 84.9181 92.9688 84.2284C93.8673 83.5387 93.7402 82.9125 93.7402 82.9125C93.1629 82.7662 92.5544 82.804 91.9996 83.0204C91.4447 83.2368 90.9714 83.621 90.6455 84.1195Z" fill="white"/>
</g>
<g style="mix-blend-mode:soft-light">
<path fill-rule="evenodd" clip-rule="evenodd" d="M70.2173 106.635C70.2173 106.635 71.5786 107.543 72.5224 106.917C73.4663 106.291 73.43 105.673 73.43 105.673C72.862 105.469 72.2435 105.452 71.6653 105.626C71.0871 105.799 70.5795 106.153 70.2173 106.635Z" fill="white"/>
</g>
<g style="mix-blend-mode:soft-light" opacity="0.7">
<path fill-rule="evenodd" clip-rule="evenodd" d="M96.998 47.909L97.0616 48.9799C97.0616 48.9799 101.781 49.107 103.414 50.6316C105.048 52.1563 106.3 56.4308 107.389 57.3837C107.51 55.8003 107.146 54.2176 106.346 52.846C105.03 50.7677 104.694 51.2487 103.396 50.3231C102.098 49.3974 99.4756 47.6186 96.998 47.909Z" fill="white"/>
</g>
<g style="mix-blend-mode:soft-light" opacity="0.7">
<path fill-rule="evenodd" clip-rule="evenodd" d="M105.165 60.5781C103.986 60.8141 101.445 62.1572 101.753 64.2083C101.753 64.2083 104.194 63.3007 104.73 62.3297C105.051 61.8043 105.203 61.1928 105.165 60.5781Z" fill="white"/>
</g>
<g style="mix-blend-mode:soft-light" opacity="0.7">
<path fill-rule="evenodd" clip-rule="evenodd" d="M81.4155 55.9312C81.4155 55.9312 81.116 52.7549 82.6951 50.8309C84.2742 48.9069 88.1403 47.0918 88.9934 46.1934C89.8465 45.2949 90.264 43.0351 91.4165 42.4271C91.7005 42.2317 92.0327 42.1182 92.3769 42.099C92.721 42.0798 93.0638 42.1556 93.3677 42.3182C93.3677 42.3182 91.9883 43.9518 91.2441 44.705C90.4999 45.4583 89.6831 45.8757 89.0297 46.5201C88.3763 47.1644 87.1693 49.6602 85.7989 51.7929C84.5692 53.3986 83.0892 54.7959 81.4155 55.9312Z" fill="white"/>
</g>
<g style="mix-blend-mode:soft-light" opacity="0.7">
<path fill-rule="evenodd" clip-rule="evenodd" d="M62.3115 79.5729C62.8531 79.013 63.5039 78.5702 64.2235 78.2721C64.9432 77.9739 65.7164 77.8267 66.4953 77.8395C69.2179 77.8395 71.4323 71.8044 75.0352 70.8605C75.0352 70.8605 73.9643 76.0607 71.6682 77.2133C69.3722 78.3659 67.784 77.7487 66.4953 78.0028C65.2066 78.257 65.3155 79.1463 64.4352 79.4821C63.7422 79.6656 63.0176 79.6966 62.3115 79.5729Z" fill="white"/>
</g>
<g style="mix-blend-mode:soft-light" opacity="0.7">
<path fill-rule="evenodd" clip-rule="evenodd" d="M65.5518 50.2776C65.5518 50.2776 67.9567 56.2038 72.4944 56.4761C72.4944 56.4761 70.516 51.4755 65.5518 50.2776Z" fill="white"/>
</g>
<g style="mix-blend-mode:soft-light" opacity="0.7">
<path fill-rule="evenodd" clip-rule="evenodd" d="M40.2131 68.5734C40.2131 68.5734 42.3096 69.5354 43.7798 73.1111C45.25 76.6868 44.5965 79.0101 48.8438 80.9068C53.0911 82.8036 57.5562 80.9068 57.5562 80.9068C57.5562 80.9068 54.6702 80.2806 53.2363 80.6708C51.8024 81.0611 51.7389 81.4695 50.9947 81.3152C50.2505 81.1609 50.8041 78.2387 49.0072 76.95C47.2102 75.6613 45.5676 75.6976 44.6147 74.2818C43.6618 72.866 43.4803 70.8241 42.4911 69.6897C42.2122 69.3528 41.8648 69.0791 41.4721 68.8866C41.0794 68.6942 40.6502 68.5874 40.2131 68.5734Z" fill="white"/>
</g>
<g style="mix-blend-mode:soft-light" opacity="0.7">
<path fill-rule="evenodd" clip-rule="evenodd" d="M94.7649 90.4179C96.58 90.073 99.9832 90.7718 100.401 92.1331C99.3084 92.4807 98.1323 92.4616 97.0519 92.0787C96.579 91.9688 96.1329 91.7652 95.7401 91.48C95.3473 91.1947 95.0157 90.8336 94.7649 90.4179Z" fill="white"/>
</g>
<g style="mix-blend-mode:soft-light" opacity="0.7">
<path fill-rule="evenodd" clip-rule="evenodd" d="M47.9912 59.1533C47.9912 59.1533 48.9986 54.9695 51.9027 53.5538C54.8068 52.138 56.0048 51.3848 56.9214 50.0416C57.838 48.6984 59.8073 51.8567 59.8073 51.8567C59.1341 51.3517 58.2928 51.1243 57.4568 51.2214C55.5902 51.5174 53.9096 52.5219 52.7649 54.0257C52.3292 55.024 50.8318 58.7267 47.9912 59.1533Z" fill="white"/>
</g>
<g style="mix-blend-mode:soft-light" opacity="0.7">
<path fill-rule="evenodd" clip-rule="evenodd" d="M52.7825 45.2587C52.7825 45.2587 55.2873 42.6904 56.9299 42.3637C58.5726 42.037 61.5493 43.6342 62.9741 45.7397C62.9741 45.7397 61.5039 45.286 59.2895 44.451C57.0751 43.6161 56.6849 43.3348 56.0587 43.4074C54.9082 43.9149 53.8108 44.535 52.7825 45.2587Z" fill="white"/>
</g>
<g style="mix-blend-mode:soft-light" opacity="0.7">
<path fill-rule="evenodd" clip-rule="evenodd" d="M42.1378 102.506C42.1378 102.506 41.5479 98.8761 42.9455 97.9686C42.9455 98.0049 44.2705 100.991 42.1378 102.506Z" fill="white"/>
</g>
<path fill-rule="evenodd" clip-rule="evenodd" d="M71.9137 89.2925C71.9137 89.2925 70.3527 86.5699 67.6119 86.4973C63.9818 86.3612 56.4493 89.3107 53.4453 92.8501C53.4453 92.8501 59.6891 89.2199 65.5428 88.8569C67.6763 88.7077 69.8203 88.8543 71.9137 89.2925Z" fill="#37193E"/>
<path fill-rule="evenodd" clip-rule="evenodd" d="M84.8191 89.1654C84.8191 89.1654 85.9626 99.23 96.1361 98.6764C105.266 98.1772 106.21 85.7621 106.21 85.7621L84.8191 89.1654Z" fill="#E16070"/>
<path fill-rule="evenodd" clip-rule="evenodd" d="M84.1848 86.1886C84.1848 86.1886 85.0923 96.8794 94.44 97.5872C105.14 98.395 106.238 85.7893 106.238 85.7893C106.238 85.7893 103.661 80.7161 96.4366 80.2896C87.3249 79.7269 84.1848 86.1886 84.1848 86.1886Z" fill="url(#paint21_linear)"/>
<path d="M98.5283 91.9334C100.164 89.1747 99.2541 85.6121 96.4954 83.9761C93.7367 82.3401 90.1741 83.2503 88.5381 86.009C86.9022 88.7677 87.8123 92.3303 90.571 93.9663C93.3297 95.6022 96.8923 94.6921 98.5283 91.9334Z" fill="#37193E"/>
<path fill-rule="evenodd" clip-rule="evenodd" d="M84.1848 86.1889C84.1848 86.1889 86.0634 80.0449 95.0208 78.9286C97.7563 78.5542 100.542 78.99 103.032 80.182C105.523 81.374 107.609 83.2699 109.033 85.6353L106.056 86.5428L106.211 85.726C104.917 84.0305 103.231 82.674 101.298 81.7731C99.3648 80.8721 97.242 80.4534 95.1116 80.5531C92.9958 80.6686 90.9283 81.2304 89.0451 82.2017C87.1619 83.1731 85.5055 84.5319 84.1848 86.1889Z" fill="#37193E"/>
<path fill-rule="evenodd" clip-rule="evenodd" d="M89.0582 88.2125C89.072 88.4844 89.005 88.7544 88.8658 88.9883C88.7265 89.2222 88.5211 89.4097 88.2755 89.5272C88.0298 89.6446 87.7549 89.6867 87.4854 89.6482C87.2159 89.6097 86.9638 89.4923 86.7608 89.3108C86.5579 89.1293 86.4132 88.8918 86.345 88.6282C86.2768 88.3647 86.2881 88.0868 86.3775 87.8296C86.4669 87.5725 86.6304 87.3475 86.8474 87.1831C87.0645 87.0187 87.3253 86.9222 87.597 86.9057C87.9639 86.8859 88.3237 87.0123 88.5976 87.2572C88.8715 87.5022 89.0371 87.8457 89.0582 88.2125Z" fill="white"/>
<path fill-rule="evenodd" clip-rule="evenodd" d="M65.7239 98.5858C65.7239 98.5858 75.0352 97.415 77.776 101.572C77.776 101.572 73.2383 106.699 69.1544 105.655C66.4045 104.939 65.7239 98.5858 65.7239 98.5858Z" fill="url(#paint22_linear)"/>
<path fill-rule="evenodd" clip-rule="evenodd" d="M71.4879 98.5857C71.2554 99.3629 71.322 100.199 71.6747 100.929C72.0273 101.66 72.6405 102.232 73.3937 102.533C74.1274 102.887 74.9585 102.983 75.7535 102.807C76.5485 102.631 77.2612 102.192 77.7771 101.562C77.7771 101.562 76.3704 98.6946 71.4879 98.5857Z" fill="url(#paint23_linear)"/>
<g style="mix-blend-mode:multiply" opacity="0.5">
<path fill-rule="evenodd" clip-rule="evenodd" d="M76.832 88.4577C76.832 88.4577 79.4004 104.412 93.4037 109.594C105.102 113.923 113.896 104.83 113.896 104.83C113.896 104.83 111.001 107.108 98.3407 102.869C85.6805 98.6312 76.832 88.4577 76.832 88.4577Z" fill="#A6364C"/>
</g>
<path fill-rule="evenodd" clip-rule="evenodd" d="M153.211 90.1366L140.043 86.4339L139.353 86.2433L130.877 83.8655L133.127 77.7578L137.366 78.4475L156.079 81.5059C156.357 82.2057 156.572 82.9284 156.723 83.6659C157.386 86.9058 156.07 88.8751 153.211 90.1366Z" fill="url(#paint24_radial)"/>
<path d="M129.747 91.4902C137.43 77.2744 132.135 59.5217 117.919 51.8384C103.703 44.1552 85.9503 49.4509 78.267 63.6667C70.5837 77.8825 75.8794 95.6353 90.0953 103.319C104.311 111.002 122.064 105.706 129.747 91.4902Z" fill="url(#paint25_radial)"/>
<path d="M107.923 104.847C123.953 102.805 135.292 88.1552 133.25 72.1255C131.208 56.0958 116.558 44.7565 100.528 46.7986C84.4986 48.8407 73.1593 63.4908 75.2014 79.5205C77.2435 95.5503 91.8936 106.889 107.923 104.847Z" fill="url(#paint26_radial)"/>
<path d="M106.064 99.64C119.227 98.6272 129.077 87.1352 128.064 73.972C127.051 60.8088 115.56 50.959 102.396 51.9719C89.2331 52.9847 79.3833 64.4767 80.3962 77.6399C81.409 90.8031 92.901 100.653 106.064 99.64Z" fill="url(#paint27_linear)"/>
<path fill-rule="evenodd" clip-rule="evenodd" d="M118.934 54.7335C114.121 51.2611 108.231 49.613 102.315 50.0836C96.3997 50.5542 90.8441 53.1129 86.6412 57.3024C82.4382 61.4919 79.8619 67.0394 79.3724 72.9535C78.8829 78.8677 80.5122 84.7632 83.9691 89.5867C87.4261 94.4102 92.4855 97.8474 98.2433 99.2841C104.001 100.721 110.082 100.064 115.4 97.4297C120.718 94.7958 124.926 90.3569 127.272 84.9062C129.619 79.4554 129.951 73.3479 128.209 67.6749C126.614 62.4611 123.357 57.9127 118.934 54.7244V54.7335ZM125.078 85.7349C122.999 90.0742 119.635 93.6681 115.442 96.028C111.249 98.3879 106.431 99.3993 101.643 98.9248C96.8548 98.4503 92.3291 96.5128 88.6809 93.3757C85.0328 90.2387 82.4392 86.0543 81.2528 81.3914C80.0663 76.7285 80.3446 71.8134 82.0498 67.3142C83.7549 62.8151 86.8043 58.9502 90.7832 56.245C94.7621 53.5397 99.4776 52.1255 104.289 52.1944C109.1 52.2633 113.773 53.8121 117.672 56.6302C122.129 59.8365 125.314 64.5102 126.668 69.8308C128.022 75.1514 127.459 80.779 125.078 85.7258V85.7349Z" fill="url(#paint28_radial)"/>
<path fill-rule="evenodd" clip-rule="evenodd" d="M147.302 63.1429C144.58 87.0292 135.795 112.286 122.29 118.648C99.602 129.339 51.3846 132.07 37.0728 124.22C22.7609 116.37 9.87391 95.8686 3.74804 74.4145C-0.789645 58.5416 -1.6155 42.2242 3.54838 30.3536C9.51089 16.6226 27.5164 2.95506 70.9148 0.486566C108.677 -1.65522 140.178 6.20404 146.077 27.7127C148.527 36.7063 148.872 49.7022 147.302 63.1429Z" fill="url(#paint29_linear)"/>
<path style="mix-blend-mode:multiply" opacity="0.3" fill-rule="evenodd" clip-rule="evenodd" d="M32.5638 21.4451C28.1861 25.999 25.7433 32.072 25.7482 38.3888C30.8693 44.9194 38.1569 49.4033 46.2948 51.0308C46.2948 51.0308 68.711 46.8561 74.7915 33.1795C74.7915 33.1795 64.8086 54.3705 46.8484 59.7431C46.8484 59.7431 27.0641 54.9241 21.0381 38.4069C21.0381 38.4069 25.3035 27.6526 32.5638 21.4451Z" fill="url(#paint30_linear)"/>
<path style="mix-blend-mode:multiply" opacity="0.3" fill-rule="evenodd" clip-rule="evenodd" d="M40.6406 30.6656L41.0127 37.2725C43.7828 38.9539 46.94 39.8917 50.1788 39.9951C55.1158 39.9951 58.1561 34.7314 58.1561 34.7314C58.1561 34.7314 58.7823 43.3712 47.547 44.7143C47.547 44.7143 40.6406 41.8737 37.3826 37.6809C38.1993 35.2266 39.2924 32.8731 40.6406 30.6656Z" fill="url(#paint31_linear)"/>
<path style="mix-blend-mode:multiply" opacity="0.3" fill-rule="evenodd" clip-rule="evenodd" d="M12.0796 52.0835C12.0796 52.0835 23.8776 72.9568 27.5894 75.2619C31.3012 77.5671 46.3845 72.1309 46.3845 72.1309C46.3845 72.1309 29.0778 85.8801 27.2082 85.1541C25.3387 84.428 13.2049 56.8934 12.0796 52.0835Z" fill="url(#paint32_linear)"/>
<path style="mix-blend-mode:multiply" opacity="0.3" fill-rule="evenodd" clip-rule="evenodd" d="M3.67599 32.7712C3.67599 32.7712 14.1217 28.9686 20.7649 22.1076C24.9056 17.7459 28.535 12.926 31.5827 7.7413C31.5827 7.7413 26.3826 33.2159 1.63403 36.5374L3.67599 32.7712Z" fill="url(#paint33_linear)"/>
<path style="mix-blend-mode:multiply" opacity="0.3" fill-rule="evenodd" clip-rule="evenodd" d="M79.7551 37.0818C79.7551 37.0818 97.9875 48.8798 107.208 49.152C116.429 49.4243 129.461 31.5912 129.461 31.5912C129.461 31.5912 127.056 50.2592 107.399 54.7878C107.399 54.7878 93.1322 54.8423 79.7551 37.0818Z" fill="url(#paint34_linear)"/>
<path style="mix-blend-mode:multiply" opacity="0.3" fill-rule="evenodd" clip-rule="evenodd" d="M110.095 26.4911L109.305 31.8274C109.305 31.8274 105.457 36.9368 93.0332 32.7349L93.8681 36.2652C93.8681 36.2652 102.553 40.9753 104.995 41.1568C107.436 41.3384 114.242 32.4536 114.242 32.4536L110.095 26.4911Z" fill="url(#paint35_linear)"/>
<path style="mix-blend-mode:multiply" opacity="0.3" fill-rule="evenodd" clip-rule="evenodd" d="M47.4558 71.65C47.4558 71.65 53.9175 68.4736 58.6911 68.519C63.4648 68.5644 76.6512 65.9143 76.6512 65.9143L89.629 67.2121C89.629 67.2121 102.652 66.8582 109.695 67.7113C116.737 68.5644 124.351 70.1253 126.212 69.6534C128.072 69.1815 138.745 47.3552 138.745 47.3552C138.745 47.3552 131.004 77.8575 126.539 79.5274C126.539 79.5274 109.903 68.9909 103.197 68.0561C96.49 67.1214 77.7312 72.3851 77.7312 72.3851L70.4074 72.2852C70.4074 72.2852 57.8925 69.844 47.4558 71.65Z" fill="url(#paint36_linear)"/>
<path style="mix-blend-mode:multiply" opacity="0.3" fill-rule="evenodd" clip-rule="evenodd" d="M52.5837 8.30394C52.5837 8.30394 60.5247 14.8563 67.1043 14.4843C73.684 14.1122 74.0833 8.35839 74.0833 8.35839L75.9709 7.51438C75.9709 7.51438 75.853 14.4117 81.3254 13.6766C86.7979 12.9414 96.9441 4.20187 96.9441 4.20187C96.9441 4.20187 86.4621 18.8586 75.1633 20.0293C63.8644 21.2 52.5837 8.30394 52.5837 8.30394Z" fill="url(#paint37_linear)"/>
<path fill-rule="evenodd" clip-rule="evenodd" d="M66.3423 0.726029L73.3394 7.13323L74.3014 51.0126L78.7029 98.1954L78.2492 55.1056L75.9894 7.5144L81.7341 0L66.3423 0.726029Z" fill="#F88F4F"/>
<path fill-rule="evenodd" clip-rule="evenodd" d="M74.7915 33.1795C74.7915 33.1795 64.491 53.0092 46.5127 58.4816C46.5127 58.4816 26.1203 52.1289 22.0092 37.935C22.0092 37.935 26.2927 19.6391 44.6976 15.5733C44.6976 15.5733 56.4956 21.7446 56.8858 38.3797C56.8858 38.3797 53.6187 42.4999 46.676 43.3711C46.676 43.3711 40.1781 41.0388 38.2995 35.893L40.7044 30.6656L31.2025 40.9026L37.165 39.496C37.165 39.496 44.3346 45.2497 47.7469 46.6473C47.7469 46.6473 58.9005 41.4018 60.3889 36.6644C60.3889 36.6644 53.1286 18.1507 44.271 13.2409C44.271 13.2409 29.0607 17.1252 19.2957 38.3525C19.2957 38.3525 24.514 54.6881 47.1479 61.1589C47.1479 61.1589 60.5522 54.0347 67.7762 45.4676C67.7762 45.4676 72.6316 42.1187 75.3088 42.1732L74.7915 33.1795Z" fill="#F88F4F"/>
<path fill-rule="evenodd" clip-rule="evenodd" d="M77.7046 67.7295L71.6786 71.3596C71.6786 71.3596 53.7366 70.2525 49.0537 71.0783C44.3708 71.9042 30.7487 82.477 27.8537 83.7203C24.9586 84.9636 12.8612 50.2776 10.4562 49.9327C8.05122 49.5878 2.96902 62.7744 4.27588 73.7011C5.58273 84.6278 16.1283 89.22 17.054 88.6936C17.9797 88.1672 16.7454 77.6307 15.2389 73.084C14.1291 70.192 12.055 67.7717 9.36715 66.2321C9.36715 66.2321 8.1329 72.7754 9.94798 76.3783C9.94798 76.3783 9.53051 71.2507 10.5288 69.5174C10.5288 69.5174 13.3694 70.9876 14.7125 76.0062C15.5227 79.4623 15.7618 83.0276 15.4204 86.5609C15.4204 86.5609 7.12554 82.7674 5.51013 74.5088C3.89471 66.2502 6.83513 55.4505 8.70466 54.4885C10.5742 53.5266 23.7062 84.9818 28.3347 88.0674C28.3347 88.0674 39.4883 74.899 49.1354 72.3307C58.7825 69.7624 75.581 73.2382 77.3144 75.3982L77.7046 67.7295Z" fill="#F88F4F"/>
<path fill-rule="evenodd" clip-rule="evenodd" d="M3.52228 30.348L3.83084 35.7933C9.94674 33.8569 15.5485 30.569 20.2209 26.1734C28.2799 18.7225 28.3343 10.3369 28.3343 10.3369L24.4954 10.5547L34.4783 6.58875C34.4783 6.58875 26.4739 31.8909 1.09009 37.9804L3.52228 30.348Z" fill="#F88F4F"/>
<path fill-rule="evenodd" clip-rule="evenodd" d="M47.02 3.37579C47.02 3.37579 58.0466 18.3864 74.1735 22.0892L74.8179 16.7983L70.8428 19.2577C70.8428 19.2577 54.5072 13.6309 48.4539 3.09445L47.02 3.37579Z" fill="#F88F4F"/>
<path fill-rule="evenodd" clip-rule="evenodd" d="M16.0645 102.361C16.0645 102.361 19.0321 91.0077 21.6095 88.7479C24.1869 86.4881 38.1539 108.378 40.8765 118.397C43.5991 128.416 34.6599 122.781 34.6599 122.781L31.8828 120.793C31.8828 120.793 36.3297 123.516 38.8527 122.545C41.3756 121.573 27.6083 91.1347 23.234 90.9895C18.8597 90.8443 16.8812 103.695 16.8812 103.695L16.0645 102.361Z" fill="#F88F4F"/>
<path fill-rule="evenodd" clip-rule="evenodd" d="M25.9471 115.357C25.9471 115.357 29.1507 115.529 29.5773 114.313C30.0038 113.097 26.2103 106.754 26.2103 106.754L23.7236 106.418L26.8002 100.355L27.0452 106.145C27.0452 106.145 30.6754 112.498 30.5483 114.613C30.4213 116.727 27.5081 116.954 27.5081 116.954L25.9471 115.357Z" fill="#F88F4F"/>
<path fill-rule="evenodd" clip-rule="evenodd" d="M76.4421 32.8528C76.4421 32.8528 88.9207 51.3938 107.398 54.788C107.398 54.788 126.956 46.2027 129.46 31.5913C129.46 31.5913 123.108 13.9035 104.412 11.9432C104.412 11.9432 93.3858 19.4031 94.8833 35.9838C94.8833 35.9838 98.5951 39.7047 105.592 39.7864C105.592 39.7864 111.782 36.728 113.07 31.4098L110.094 26.491L120.621 35.5664L114.54 34.8403C114.54 34.8403 108.07 41.3655 104.83 43.1443C104.83 43.1443 93.1589 39.1874 91.1533 34.6951C91.1533 34.6951 96.2627 15.4735 104.521 9.60175C104.521 9.60175 120.067 11.7435 132.174 31.7275C132.174 31.7275 128.834 48.5078 107.081 57.5378C107.081 57.5378 92.9593 51.9837 84.8096 44.2787C84.8096 44.2787 79.6094 41.5016 76.9504 41.8646L76.4421 32.8528Z" fill="#F88F4F"/>
<path fill-rule="evenodd" clip-rule="evenodd" d="M76.7595 67.8202L82.9035 70.806C82.9035 70.806 98.2681 60.9048 107.888 60.9048C124.124 60.9048 125.213 73.8917 128.108 74.7992C131.003 75.7067 138.091 41.5925 140.323 40.9935C142.556 40.3945 147.32 54.6065 147.293 65.5877C147.266 76.5689 137.728 82.3227 136.793 81.9234C135.858 81.524 135.886 70.8968 136.793 66.2048C137.505 63.2431 139.209 60.614 141.621 58.754C141.621 58.754 143.518 65.1067 142.193 68.9002C142.193 68.9002 142.02 63.7636 140.877 62.1391C140.877 62.1391 138.345 63.9541 137.619 69.0545C137.23 72.5831 137.398 76.151 138.118 79.6273C138.118 79.6273 145.578 74.9353 146.204 66.5497C146.83 58.1641 143.554 46.1029 141.667 45.3406C139.779 44.5782 130.059 78.9739 126.002 82.5496C126.002 82.5496 113.923 70.6971 104.467 69.2179C95.0101 67.7386 79.0102 73.1747 77.5944 75.4436L76.7595 67.8202Z" fill="#F88F4F"/>
<path fill-rule="evenodd" clip-rule="evenodd" d="M143.2 21.1004L143.509 26.5456C143.509 26.5456 138.699 26.2008 129.85 19.7028C121.002 13.2048 119.259 6.49813 119.259 6.49813L121.51 5.59059L113.515 3.29453C113.515 3.29453 120.539 25.2206 146.44 28.4061L143.2 21.1004Z" fill="#F88F4F"/>
<path fill-rule="evenodd" clip-rule="evenodd" d="M100.383 1.08018C100.383 1.08018 91.4071 16.2542 75.7975 21.7539L74.5632 16.5809L78.7833 18.5684C78.7833 18.5684 93.921 12.0614 98.7491 0.907745L100.383 1.08018Z" fill="#F88F4F"/>
<path fill-rule="evenodd" clip-rule="evenodd" d="M139.879 95.1009C139.879 95.1009 136.058 84.1288 133.526 82.1503C130.994 80.1719 121.065 103.423 119.731 113.678C118.397 123.933 125.676 117.363 125.676 117.363L127.908 115.094C127.908 115.094 124.278 118.297 121.955 117.581C119.632 116.864 128.498 85.1633 132.346 84.5462C136.194 83.9291 139.28 96.4894 139.28 96.4894L139.879 95.1009Z" fill="#F89E59"/>
<path fill-rule="evenodd" clip-rule="evenodd" d="M132.564 109.068C132.564 109.068 129.76 109.585 129.27 108.414C128.78 107.243 131.43 100.5 131.43 100.5L133.58 99.9015L130.222 94.2022L130.622 99.9923C130.622 99.9923 128.108 106.654 128.444 108.786C128.78 110.919 131.366 110.783 131.366 110.783L132.564 109.068Z" fill="#F89E59"/>
<path style="mix-blend-mode:multiply" opacity="0.5" fill-rule="evenodd" clip-rule="evenodd" d="M140.561 72.004C137.838 72.8299 137.112 68.9274 137.112 68.9274L135.751 71.0148C133.881 80.0901 118.907 98.74 118.907 98.74C118.907 98.74 101.872 107.235 80.2459 100.383C63.7832 95.1643 58.3198 94.5109 54.1451 94.7469C48.1463 95.0826 50.996 108.523 50.996 108.523C48.5638 108.206 42.7646 106.336 41.5394 105.311C30.4221 95.5183 28.2803 89.8825 25.8482 88.3578C19.2231 84.2467 16.9452 79.2824 16.9452 79.2824C16.9452 79.2824 17.0269 82.2047 15.5476 82.2319C14.0683 82.2592 6.83526 76.1061 6.83526 76.1061C5.31967 76.3965 4.22156 74.1004 4.22156 74.1004L3.72241 74.3727C9.85736 95.7814 22.7807 116.373 37.0471 124.187C51.3136 132.001 99.5492 129.306 122.265 118.615C135.769 112.262 144.527 86.9965 147.277 63.1101C145.895 66.6338 143.572 69.7104 140.561 72.004Z" fill="url(#paint38_linear)"/>
<path fill-rule="evenodd" clip-rule="evenodd" d="M68.2563 45.1953L75.5166 33.7422C75.5166 33.7422 82.1326 40.0949 84.1927 43.6162C84.1927 43.6162 78.1122 40.6576 75.925 40.8936C73.7379 41.1295 68.2563 45.1953 68.2563 45.1953Z" fill="#FF882E"/>
<path fill-rule="evenodd" clip-rule="evenodd" d="M70.4067 72.3125L77.8213 73.9552L81.7146 71.6682C80.2883 70.8448 78.6782 70.3924 77.0317 70.3523C74.7811 70.4521 70.4067 72.3125 70.4067 72.3125Z" fill="#FF882E"/>
<path fill-rule="evenodd" clip-rule="evenodd" d="M37.6008 54.5792C37.6008 54.5792 45.3784 58.9535 47.4113 58.2094C49.4442 57.4652 57.2218 53.2088 57.2218 53.2088C57.2218 53.2088 49.181 61.1407 47.1481 61.2496C45.2695 61.3131 37.6008 54.5792 37.6008 54.5792Z" fill="#FF882E"/>
<path fill-rule="evenodd" clip-rule="evenodd" d="M38.2353 35.8931L39.1973 39.6321L37.1644 39.496L31.2019 40.9027L40.6403 30.6656L38.2353 35.8931Z" fill="#FF882E"/>
<path fill-rule="evenodd" clip-rule="evenodd" d="M127.927 28.3243L129.461 31.5914C129.461 31.5914 128.599 36.3832 126.266 39.5142C126.266 39.5142 131.784 34.069 132.174 31.7548L127.927 28.3243Z" fill="#FF882E"/>
<path fill-rule="evenodd" clip-rule="evenodd" d="M110.094 26.4911L113.07 31.4281L112 36.3378L114.541 34.8858L120.621 35.6118C120.621 35.6118 112.798 28.8779 110.094 26.4911Z" fill="#FF882E"/>
<path fill-rule="evenodd" clip-rule="evenodd" d="M117.165 73.5922C117.165 73.5922 126.095 78.6199 126.676 77.7759C127.256 76.9319 129.77 71.0057 129.77 71.0057C129.77 71.0057 129.18 78.148 126.004 82.5405C126.04 82.5405 119.597 74.89 117.165 73.5922Z" fill="#E16070"/>
<path fill-rule="evenodd" clip-rule="evenodd" d="M23.2786 77.0498C23.2786 77.0498 26.818 84.3101 27.8162 83.7202C28.8145 83.1303 34.5774 79.4094 34.5774 79.4094C34.5774 79.4094 29.1322 88.8841 28.2791 88.0855C27.426 87.2868 23.7777 81.2154 23.2786 77.0498Z" fill="#FF882E"/>
<path fill-rule="evenodd" clip-rule="evenodd" d="M130.224 94.2022L130.623 99.9923L129.861 102.787L131.431 100.5L133.582 99.9015L130.224 94.2022Z" fill="#FF882E"/>
<path fill-rule="evenodd" clip-rule="evenodd" d="M23.7058 106.381L26.7824 100.319L27.0274 106.109L27.826 107.579L26.1925 106.717L23.7058 106.381Z" fill="#FF882E"/>
<path fill-rule="evenodd" clip-rule="evenodd" d="M31.8823 120.784C31.8823 120.784 37.4637 124.097 38.8522 122.536C40.2407 120.975 36.9282 113.841 36.9282 113.841C36.9282 113.841 41.6837 120.848 40.9123 123.216C40.1409 125.585 35.6214 123.516 35.6214 123.516L31.8823 120.784Z" fill="#FF882E"/>
<path fill-rule="evenodd" clip-rule="evenodd" d="M137.438 74.2274C137.438 74.2274 137.556 79.5909 138.119 79.6C138.681 79.6091 141.694 76.469 141.694 76.469C141.694 76.469 138.618 82.2681 136.775 81.9142C136.569 79.3329 136.793 76.7353 137.438 74.2274Z" fill="#FF882E"/>
<path fill-rule="evenodd" clip-rule="evenodd" d="M69.6445 20.1835L75.4346 18.1234L81.1521 19.3848L75.7977 21.7535L75.3439 23.2963L74.1732 22.0893L69.6445 20.1835Z" fill="#FF882E"/>
<path fill-rule="evenodd" clip-rule="evenodd" d="M100.003 53.1454C100.003 53.1454 105.866 54.7971 107.926 54.7608C109.986 54.7245 117.11 49.7693 117.11 49.7693C117.11 49.7693 109.586 57.792 107.082 57.5651C104.577 57.3382 100.003 53.1454 100.003 53.1454Z" fill="#E16070"/>
<path fill-rule="evenodd" clip-rule="evenodd" d="M100.71 25.6924C100.71 25.6924 106.926 22.8518 105.048 17.7606C105.048 17.7606 100.782 19.8116 100.71 25.6924Z" fill="white"/>
<path fill-rule="evenodd" clip-rule="evenodd" d="M48.2361 24.8302C48.2361 24.8302 47.6462 32.6895 52.9009 33.715C52.9009 33.715 55.2514 28.2516 48.2361 24.8302Z" fill="white"/>
<path fill-rule="evenodd" clip-rule="evenodd" d="M54.4714 4.78286C54.4714 4.78286 63.6012 7.17876 68.7288 3.97516C66.5045 2.79714 64.0005 2.2497 61.4876 2.39207C58.9746 2.53443 56.5484 3.36117 54.4714 4.78286Z" fill="white"/>
<path fill-rule="evenodd" clip-rule="evenodd" d="M80.3081 4.61033C80.3081 4.61033 88.4759 6.12592 94.8287 2.12368C94.7924 2.12368 85.3268 -0.553549 80.3081 4.61033Z" fill="white"/>
<path fill-rule="evenodd" clip-rule="evenodd" d="M125.767 9.91033C125.767 9.91033 126.783 14.448 129.932 15.0288C133.081 15.6097 134.207 14.1848 134.207 14.1848C134.207 14.1848 132.092 9.35673 125.767 9.91033Z" fill="white"/>
<path fill-rule="evenodd" clip-rule="evenodd" d="M15.2295 18.2961C15.2295 18.2961 19.6674 19.6665 21.7456 17.2162C23.8239 14.7658 23.1069 13.1232 23.1069 13.1232C23.1069 13.1232 17.8976 12.5333 15.2295 18.2961Z" fill="white"/>
<g style="mix-blend-mode:soft-light">
<path fill-rule="evenodd" clip-rule="evenodd" d="M121.202 66.6948C121.202 66.6948 125.513 68.0288 127.555 65.6511C129.597 63.2734 128.88 61.667 128.88 61.667C128.88 61.667 123.798 61.0953 121.202 66.6948Z" fill="white"/>
</g>
<g style="mix-blend-mode:soft-light">
<path fill-rule="evenodd" clip-rule="evenodd" d="M96.509 74.4722C96.509 74.4722 98.7869 75.7428 100.221 74.6356C101.655 73.5284 101.455 72.5392 101.455 72.5392C100.532 72.3011 99.5576 72.3597 98.6698 72.7066C97.782 73.0536 97.026 73.6714 96.509 74.4722Z" fill="white"/>
</g>
<g style="mix-blend-mode:soft-light">
<path fill-rule="evenodd" clip-rule="evenodd" d="M63.8096 110.465C63.8096 110.465 65.9877 111.908 67.4942 110.919C69.0007 109.93 68.8827 108.923 68.8827 108.923C67.9821 108.615 67.0077 108.599 66.0973 108.876C65.1869 109.153 64.3866 109.709 63.8096 110.465Z" fill="white"/>
</g>
<g style="mix-blend-mode:soft-light">
<path fill-rule="evenodd" clip-rule="evenodd" d="M51.1499 73.7011C51.1499 73.7011 52.965 77.5309 55.8963 77.422C58.8277 77.3131 59.5265 75.8066 59.5265 75.8066C59.5265 75.8066 56.6859 71.9314 51.1499 73.7011Z" fill="white"/>
</g>
<g style="mix-blend-mode:soft-light" opacity="0.7">
<path fill-rule="evenodd" clip-rule="evenodd" d="M106.573 16.5807L106.673 18.296C106.673 18.296 114.215 18.4866 116.874 20.9369C119.533 23.3873 121.484 30.2029 123.227 31.7275C123.414 29.209 122.831 26.693 121.557 24.5126C119.461 21.191 118.925 21.9624 116.847 20.4832C114.769 19.0039 110.612 16.1088 106.573 16.5807Z" fill="white"/>
</g>
<g style="mix-blend-mode:soft-light" opacity="0.7">
<path fill-rule="evenodd" clip-rule="evenodd" d="M119.686 36.873C117.798 37.2542 113.732 39.4051 114.241 42.6268C114.241 42.6268 118.143 41.2292 119.005 39.641C119.503 38.807 119.74 37.843 119.686 36.873Z" fill="white"/>
</g>
<g style="mix-blend-mode:soft-light" opacity="0.7">
<path fill-rule="evenodd" clip-rule="evenodd" d="M81.7252 29.4585C81.7252 29.4585 81.2351 24.3854 83.7671 21.2907C86.2992 18.196 92.4069 15.3191 93.8408 13.8852C95.2747 12.4513 95.8646 8.83927 97.716 7.85913C98.1635 7.56306 98.6816 7.39109 99.2173 7.36079C99.7531 7.3305 100.287 7.44296 100.765 7.6867C100.765 7.6867 98.5509 10.3004 97.353 11.5074C96.155 12.7144 94.8754 13.3769 93.8135 14.3662C92.7517 15.3554 90.855 19.3848 88.6497 22.7972C86.4443 26.2095 81.7252 29.4585 81.7252 29.4585Z" fill="white"/>
</g>
<g style="mix-blend-mode:soft-light" opacity="0.7">
<path fill-rule="evenodd" clip-rule="evenodd" d="M51.1765 67.2031C52.0447 66.3168 53.0853 65.618 54.2341 65.1497C55.383 64.6814 56.6156 64.4537 57.856 64.4805C62.2757 64.4805 65.7606 54.8243 71.5235 53.3178C71.5235 53.3178 69.7992 61.6308 66.1418 63.4278C62.4844 65.2247 59.9252 64.2808 57.8741 64.6892C55.8231 65.0976 55.9774 66.5043 54.5798 67.0488C53.4705 67.3499 52.3085 67.4026 51.1765 67.2031Z" fill="white"/>
</g>
<g style="mix-blend-mode:soft-light" opacity="0.7">
<path fill-rule="evenodd" clip-rule="evenodd" d="M56.3594 20.3651C56.3594 20.3651 60.162 29.8398 67.4041 30.2663C67.4041 30.2663 64.3275 22.2891 56.3594 20.3651Z" fill="white"/>
</g>
<g style="mix-blend-mode:soft-light" opacity="0.7">
<path fill-rule="evenodd" clip-rule="evenodd" d="M15.8464 49.5787C15.8464 49.5787 19.1952 51.1125 21.5458 56.839C23.8963 62.5656 22.8526 66.2683 29.641 69.2904C36.4294 72.3125 43.5717 69.2904 43.5717 69.2904C43.5717 69.2904 38.9614 68.3012 36.6653 68.9274C34.3693 69.5536 34.2785 70.1889 33.0352 69.9439C31.7919 69.6988 32.7357 65.025 29.8588 62.9649C26.9819 60.9048 24.3591 60.9683 22.8345 58.6995C21.3098 56.4306 21.0194 53.1817 19.4403 51.3666C19.0014 50.8318 18.4542 50.396 17.8348 50.0878C17.2154 49.7797 16.5377 49.6062 15.8464 49.5787Z" fill="white"/>
</g>
<path fill-rule="evenodd" clip-rule="evenodd" d="M86.48 77.1951C86.48 77.1951 91.5531 59.8249 106.609 59.7069C121.665 59.5889 127.6 75.8973 127.6 75.8973C127.6 75.8973 127.029 78.7561 125.84 79.0828C124.651 79.4095 123.716 70.3069 110.094 68.9456C96.4719 67.5843 86.48 77.1951 86.48 77.1951Z" fill="#E16070"/>
<g style="mix-blend-mode:soft-light" opacity="0.7">
<path fill-rule="evenodd" clip-rule="evenodd" d="M103.06 84.5371C105.91 83.9926 111.401 85.0998 112.081 87.2597C110.332 87.8182 108.447 87.7863 106.718 87.169C103.75 86.1707 103.06 84.5371 103.06 84.5371Z" fill="white"/>
</g>
<g style="mix-blend-mode:soft-light" opacity="0.7">
<path fill-rule="evenodd" clip-rule="evenodd" d="M28.2988 34.5498C28.2988 34.5498 29.9052 27.8613 34.5518 25.6106C39.1983 23.3599 41.1132 22.1347 42.5834 19.9839C44.0536 17.833 47.1847 22.9061 47.1847 22.9061C47.1847 22.9061 46.0593 21.808 43.4275 21.8897C40.7956 21.9714 36.6391 24.8483 35.9312 26.3729C35.2233 27.8976 32.8184 33.8692 28.2988 34.5498Z" fill="white"/>
</g>
<g style="mix-blend-mode:soft-light" opacity="0.7">
<path fill-rule="evenodd" clip-rule="evenodd" d="M35.9397 12.3696C35.9397 12.3696 39.951 8.25843 42.5738 7.74114C45.1966 7.22384 49.9611 9.77402 52.239 13.1319C52.239 13.1319 49.8885 12.4149 46.3401 11.0809C42.7916 9.74679 42.1835 9.2658 41.1853 9.411C40.187 9.55621 35.9397 12.3696 35.9397 12.3696Z" fill="white"/>
</g>
<g style="mix-blend-mode:soft-light" opacity="0.7">
<path fill-rule="evenodd" clip-rule="evenodd" d="M18.95 103.868C18.95 103.868 18.0424 98.0321 20.2387 96.6708C20.2114 96.6708 22.3351 101.444 18.95 103.868Z" fill="white"/>
</g>
<path fill-rule="evenodd" clip-rule="evenodd" d="M66.5326 82.749C66.5326 82.749 64.0278 78.4382 59.6444 78.2749C53.809 78.048 41.8023 82.8126 37.0105 88.4484C37.0105 88.4484 46.9934 82.6038 56.341 82.0956C59.7521 81.8378 63.1824 82.0578 66.5326 82.749Z" fill="#371903"/>
<path fill-rule="evenodd" clip-rule="evenodd" d="M87.1606 82.5314C87.1606 82.5314 88.9757 98.6311 105.257 97.7418C119.859 96.9431 121.357 77.0953 121.357 77.0953L87.1606 82.5314Z" fill="#E16070"/>
<path fill-rule="evenodd" clip-rule="evenodd" d="M86.1538 77.785C86.1538 77.785 87.5968 94.8739 102.544 95.9992C119.642 97.297 121.357 77.0952 121.357 77.0952C121.357 77.0952 116.647 63.9723 105.103 63.2916C90.5826 62.4385 86.1538 77.785 86.1538 77.785Z" fill="url(#paint39_linear)"/>
<path fill-rule="evenodd" clip-rule="evenodd" d="M109.631 80.6891C109.736 82.5244 109.294 84.3496 108.362 85.9337C107.429 87.5178 106.047 88.7898 104.392 89.5887C102.736 90.3875 100.881 90.6774 99.0604 90.4217C97.24 90.1659 95.5363 89.376 94.1649 88.1519C92.7934 86.9278 91.8158 85.3244 91.3558 83.5446C90.8957 81.7648 90.9739 79.8886 91.5803 78.1532C92.1867 76.4178 93.2942 74.9013 94.7626 73.7954C96.2311 72.6895 97.9945 72.044 99.8299 71.9405C102.29 71.8017 104.704 72.6453 106.542 74.2858C108.38 75.9264 109.491 78.2295 109.631 80.6891Z" fill="#37193E"/>
<path fill-rule="evenodd" clip-rule="evenodd" d="M86.1538 77.785C86.1538 77.785 89.1033 63.936 103.397 62.2299C119.878 60.2605 125.84 76.8866 125.84 76.8866L121.067 78.4022L121.321 77.0953C121.321 77.0953 115.449 63.8453 103.397 64.5532C91.8441 65.2429 86.1538 77.785 86.1538 77.785Z" fill="#37193E"/>
<path fill-rule="evenodd" clip-rule="evenodd" d="M94.0847 81.8327C94.1091 82.2683 94.0039 82.7013 93.7822 83.0771C93.5605 83.4528 93.2323 83.7544 92.8392 83.9436C92.4461 84.1328 92.0057 84.2011 91.5737 84.14C91.1418 84.0788 90.7376 83.891 90.4125 83.6001C90.0873 83.3092 89.8558 82.9285 89.747 82.506C89.6383 82.0834 89.6574 81.6382 89.8018 81.2265C89.9462 80.8148 90.2094 80.4552 90.5583 80.1932C90.9071 79.9312 91.3258 79.7785 91.7614 79.7545C92.0506 79.7373 92.3404 79.7776 92.614 79.8729C92.8876 79.9682 93.1397 80.1168 93.3556 80.31C93.5716 80.5031 93.7472 80.7371 93.8723 80.9985C93.9974 81.2598 94.0696 81.5434 94.0847 81.8327Z" fill="white"/>
<path fill-rule="evenodd" clip-rule="evenodd" d="M56.6394 97.542C56.6394 97.542 71.523 95.6634 75.9064 102.325C75.9064 102.325 68.6461 110.493 62.1118 108.841C57.7194 107.734 56.6394 97.542 56.6394 97.542Z" fill="url(#paint40_linear)"/>
<path fill-rule="evenodd" clip-rule="evenodd" d="M65.8517 97.5511C65.4709 98.7973 65.5709 100.141 66.132 101.317C66.6932 102.493 67.6747 103.416 68.8829 103.904C70.0582 104.467 71.3878 104.62 72.6605 104.341C73.9331 104.061 75.0759 103.364 75.9072 102.361C75.9072 102.361 73.6565 97.778 65.8517 97.5511Z" fill="url(#paint41_linear)"/>
<g style="mix-blend-mode:multiply">
<path fill-rule="evenodd" clip-rule="evenodd" d="M86.6334 80.2261C86.6334 80.2261 90.4359 69.3357 102.179 68.773C113.923 68.2104 121.138 78.9828 121.138 78.9828L121.356 77.0951C121.356 77.0951 117.09 64.1809 104.294 64.1809C92.0695 64.1809 86.1433 77.7939 86.1433 77.7939L86.6334 80.2261Z" fill="#D8CBD9"/>
</g>
<path style="mix-blend-mode:screen" opacity="0.5" fill-rule="evenodd" clip-rule="evenodd" d="M126.43 68.9911C128.053 74.273 127.745 79.9599 125.56 85.0355C123.376 90.111 119.458 94.2445 114.507 96.6973C109.556 99.1501 103.893 99.7624 98.5321 98.4247C93.1709 97.087 88.46 93.8866 85.2412 89.3952C82.0225 84.9039 80.5057 79.4144 80.9618 73.9076C81.418 68.4009 83.8174 63.2358 87.7313 59.3352C91.6451 55.4347 96.8184 53.053 102.327 52.6157C107.835 52.1784 113.319 53.714 117.8 56.9481C121.925 59.9013 124.959 64.1351 126.43 68.9911Z" fill="url(#paint42_radial)"/>
<path style="mix-blend-mode:screen" opacity="0.5" fill-rule="evenodd" clip-rule="evenodd" d="M82.2773 66.8217L124.024 89.1833C124.024 89.1833 126.901 85.7256 127.917 78.8828L100.773 52.4009C100.773 52.4009 88.2399 53.381 82.2773 66.8217Z" fill="url(#paint43_linear)"/>
<path fill-rule="evenodd" clip-rule="evenodd" d="M95.5923 59.0353C95.7256 59.4699 95.7269 59.9343 95.596 60.3696C95.4652 60.8049 95.2081 61.1916 94.8573 61.4807C94.5066 61.7697 94.0779 61.9482 93.6256 61.9934C93.1733 62.0386 92.7177 61.9486 92.3166 61.7347C91.9156 61.5208 91.587 61.1926 91.3726 60.7918C91.1582 60.391 91.0675 59.9356 91.1122 59.4832C91.1568 59.0309 91.3347 58.602 91.6234 58.2508C91.912 57.8996 92.2983 57.6421 92.7335 57.5107C93.0213 57.4225 93.3237 57.3921 93.6233 57.421C93.9229 57.45 94.2138 57.5378 94.4794 57.6795C94.745 57.8211 94.98 58.0138 95.171 58.2465C95.3619 58.4792 95.5051 58.7472 95.5923 59.0353Z" fill="white"/>
<g style="mix-blend-mode:soft-light">
<path fill-rule="evenodd" clip-rule="evenodd" d="M121.573 87.7859C122.063 88.276 121.7 89.4467 120.757 90.3815C119.813 91.3163 118.651 91.6793 118.152 91.1892C117.653 90.6991 118.025 89.5284 118.969 88.5846C119.913 87.6407 121.074 87.2868 121.573 87.7859Z" fill="white"/>
</g>
<g style="mix-blend-mode:soft-light">
<path fill-rule="evenodd" clip-rule="evenodd" d="M78.7659 61.3769L82.396 62.8018C84.0622 59.8065 86.3261 57.1856 89.0472 55.1015C91.7682 53.0173 94.8885 51.5145 98.2144 50.6862L97.5065 47.3011C93.5762 48.2164 89.8798 49.9409 86.6531 52.3644C83.4264 54.788 80.7402 57.8574 78.7659 61.3769Z" fill="#C4DAFF"/>
</g>
<g style="mix-blend-mode:soft-light">
<path fill-rule="evenodd" clip-rule="evenodd" d="M81.0432 65.7508L77.168 64.689C76.4375 66.4047 75.8928 68.1937 75.5435 70.0253L79.7091 70.0979C80.0725 68.6252 80.5179 67.1739 81.0432 65.7508Z" fill="#C4DAFF"/>
</g>
<path fill-rule="evenodd" clip-rule="evenodd" d="M109.994 100.174C109.994 100.174 113.289 98.5674 114.432 98.6763C113.15 99.6344 111.595 100.159 109.994 100.174Z" fill="white"/>
<path fill-rule="evenodd" clip-rule="evenodd" d="M130.877 96.0899C130.69 96.9982 130.807 97.9429 131.211 98.7779C131.614 99.6128 132.281 100.292 133.109 100.709C136.225 99.2065 139.051 97.1667 141.459 94.6833C144.848 93.3787 148.055 91.6399 150.997 89.5103L134.661 84.9182C134.291 85.5953 134.071 86.3445 134.017 87.1144C134.017 88.6754 136.259 91.9788 136.259 91.9788C134.659 93.5861 132.848 94.969 130.877 96.0899Z" fill="url(#paint44_linear)"/>
<path fill-rule="evenodd" clip-rule="evenodd" d="M134.652 84.9183C135.191 84.0282 135.563 83.0471 135.75 82.0232C135.904 80.6619 134.842 78.3114 135.196 77.5672C135.55 76.823 138.3 77.7941 138.826 79.2462C139.353 80.6982 137.919 82.8763 138.146 83.7838C138.373 84.6914 141.694 85.5989 142.311 87.9676C141.936 89.2367 141.129 90.3352 140.031 91.074C138.933 91.8128 137.612 92.1456 136.294 92.0152C136.358 91.3255 132.601 88.1854 134.652 84.9183Z" fill="url(#paint45_linear)"/>
<path fill-rule="evenodd" clip-rule="evenodd" d="M141.014 76.4782C141.014 76.4782 139.054 80.0175 139.78 82.8309C140.513 83.3161 141.396 83.5192 142.267 83.4026L142.966 82.2592C142.76 83.1369 142.621 84.0288 142.548 84.9273C142.548 84.9273 142.648 85.8348 145.561 85.8348L146.596 84.3102V85.3539C146.596 85.3539 147.249 86.0436 149.436 85.8348C149.436 85.8348 150.226 84.6914 150.752 83.7566C151.287 84.0493 151.872 84.2372 152.477 84.3102C153.489 83.2625 154.228 81.9814 154.627 80.5802C153.936 79.9091 153.029 79.504 152.068 79.4367L151.714 79.7816L148.465 79.2643L148.12 79.5365L148.048 79.0374L144.554 78.3658L144.082 78.629L144.318 77.6216C144.318 77.6216 143.546 75.5706 141.014 76.4782Z" fill="url(#paint46_linear)"/>
<path fill-rule="evenodd" clip-rule="evenodd" d="M140.895 85.9436L142.075 88.4575C144.555 89.2177 147.166 89.4586 149.743 89.1654L140.895 85.9436Z" fill="#FFC395"/>
<path fill-rule="evenodd" clip-rule="evenodd" d="M144.318 77.5672C143.339 79.3923 142.647 81.3575 142.267 83.3936L142.966 82.2501L144.554 78.3114L144.137 78.4475L144.318 77.5672Z" fill="#FF7F85"/>
<path fill-rule="evenodd" clip-rule="evenodd" d="M148.048 78.9828C148.048 78.9828 147.358 81.1427 146.595 84.2555C146.595 84.2555 147.802 80.0537 148.465 79.2096L148.138 79.3911L148.048 78.9828Z" fill="#FF7F85"/>
<path fill-rule="evenodd" clip-rule="evenodd" d="M151.714 79.7273L150.752 83.7023C151.017 82.3645 151.178 81.0082 151.233 79.6456L151.714 79.7273Z" fill="#FF7F85"/>
<path fill-rule="evenodd" clip-rule="evenodd" d="M136.249 91.9789C136.249 91.9789 136.866 92.4145 139.616 92.3782C138.061 93.0799 136.375 93.4419 134.67 93.44C135.226 92.9863 135.753 92.4984 136.249 91.9789Z" fill="#FFC395"/>
<g style="mix-blend-mode:soft-light" opacity="0.7">
<path fill-rule="evenodd" clip-rule="evenodd" d="M41.4668 148.01H52.1122L51.0958 144.335C51.0958 144.335 47.8377 147.293 41.4668 148.01Z" fill="white"/>
</g>
<path fill-rule="evenodd" clip-rule="evenodd" d="M2.15161 42.8539C2.15161 42.8539 5.35521 41.8284 6.14477 41.1205C5.38243 40.9838 4.59668 41.0754 3.88623 41.3838C3.17578 41.6922 2.57231 42.2036 2.15161 42.8539Z" fill="white"/>
<g style="mix-blend-mode:multiply">
<path fill-rule="evenodd" clip-rule="evenodd" d="M120.803 97.8777C119.586 95.7092 118.689 93.3765 118.139 90.9518L120.998 88.1459C121.568 89.422 122.212 90.6642 122.925 91.8663C122.738 92.0262 120.403 94.8676 120.803 97.8777Z" fill="#5E364C"/>
</g>
<path style="mix-blend-mode:multiply" opacity="0.3" fill-rule="evenodd" clip-rule="evenodd" d="M81.627 61.0016C81.627 61.0016 92.7528 68.2117 98.4356 68.3893C104.118 68.5669 112.057 57.6452 112.057 57.6452C112.057 57.6452 110.574 69.0641 98.5511 71.8522C98.5511 71.8433 89.8226 71.87 81.627 61.0016Z" fill="url(#paint47_linear)"/>
<path style="mix-blend-mode:multiply" opacity="0.3" fill-rule="evenodd" clip-rule="evenodd" d="M100.193 54.5283L99.7132 57.7959C99.7132 57.7959 97.3601 60.9214 89.7505 58.3642L90.2655 60.5219C90.2655 60.5219 95.5931 63.4077 97.076 63.5142C98.5588 63.6208 102.723 58.1866 102.723 58.1866L100.193 54.5283Z" fill="url(#paint48_linear)"/>
<path fill-rule="evenodd" clip-rule="evenodd" d="M79.7976 79.8082L83.5625 81.6373C83.5625 81.6373 93.9247 79.7549 96.7128 79.9325C99.501 80.1101 108.132 85.5798 109.908 86.1481C111.684 86.7163 117.313 63.772 118.689 63.399C120.066 63.0261 122.969 71.7279 122.951 78.494C122.934 85.2601 117.1 88.732 116.523 88.4745C115.946 88.217 115.954 81.7261 116.523 78.8581C116.955 77.0447 117.996 75.434 119.471 74.2941C119.471 74.2941 120.634 78.1832 119.826 80.5096C119.826 80.5096 119.719 77.3663 119.018 76.3718C119.018 76.3718 117.464 77.464 117.029 80.6073C116.791 82.7675 116.893 84.9517 117.331 87.0804C117.331 87.0804 121.895 84.2035 122.286 79.0889C122.676 73.9744 120.678 66.5068 119.515 66.0717C118.352 65.6367 112.412 86.6542 109.934 88.8563C109.934 88.8563 102.547 81.6018 96.7573 80.705C90.9679 79.8082 81.2094 83.0669 80.3215 84.4787L79.7976 79.8082Z" fill="#FF7F85"/>
<path fill-rule="evenodd" clip-rule="evenodd" d="M75.8821 82.5607L80.4194 83.573L82.808 82.1701C81.9338 81.6671 80.9482 81.3894 79.94 81.362C78.544 81.5966 77.1815 81.9991 75.8821 82.5607Z" fill="#E16070"/>
<path fill-rule="evenodd" clip-rule="evenodd" d="M111.115 55.6471L112.056 57.645C111.727 59.3824 111.06 61.0385 110.094 62.5197C110.094 62.5197 113.468 59.1989 113.717 57.7693L111.115 55.6471Z" fill="#E16070"/>
<path fill-rule="evenodd" clip-rule="evenodd" d="M100.194 54.5283L102.023 57.5384L101.366 60.5485L102.92 59.6605L106.641 60.1045C106.641 60.1045 101.855 55.9845 100.194 54.5283Z" fill="#E16070"/>
<path fill-rule="evenodd" clip-rule="evenodd" d="M104.526 83.342C104.526 83.342 109.987 86.4232 110.342 85.9082C110.698 85.3932 112.243 81.7615 112.243 81.7615C112.243 81.7615 111.879 86.1302 109.934 88.865C109.934 88.8206 106.018 84.1412 104.526 83.342Z" fill="#E16070"/>
<path fill-rule="evenodd" clip-rule="evenodd" d="M112.517 95.9598L112.757 99.5027L112.295 101.216L113.254 99.8135L114.568 99.4494L112.517 95.9598Z" fill="#E16070"/>
<path fill-rule="evenodd" clip-rule="evenodd" d="M116.93 83.7416C116.93 83.7416 117.001 87.0181 117.347 87.027C117.694 87.0359 119.532 85.109 119.532 85.109C119.532 85.109 117.649 88.6608 116.522 88.4299C116.396 86.8553 116.534 85.2708 116.93 83.7416Z" fill="#E16070"/>
<path fill-rule="evenodd" clip-rule="evenodd" d="M94.0222 70.8311C95.6072 71.2994 97.2291 71.6321 98.8704 71.8256C100.14 71.8256 104.491 68.7622 104.491 68.7622C104.491 68.7622 99.8915 73.6814 98.3554 73.5394C96.8192 73.3973 94.0222 70.8311 94.0222 70.8311Z" fill="#E16070"/>
<path fill-rule="evenodd" clip-rule="evenodd" d="M94.4579 54.0311C94.4579 54.0311 98.2583 52.2552 97.1217 49.1829C96.2764 49.6697 95.581 50.3793 95.1113 51.2342C94.6415 52.0891 94.4155 53.0565 94.4579 54.0311Z" fill="white"/>
<g style="mix-blend-mode:soft-light">
<path fill-rule="evenodd" clip-rule="evenodd" d="M106.96 79.1244C106.96 79.1244 109.624 79.9413 110.831 78.4851C112.039 77.0288 111.648 76.0432 111.648 76.0432C110.643 76.0035 109.651 76.2792 108.81 76.8317C107.969 77.3842 107.322 78.1859 106.96 79.1244Z" fill="white"/>
</g>
<g style="mix-blend-mode:soft-light">
<path fill-rule="evenodd" clip-rule="evenodd" d="M91.8652 83.8838C91.8652 83.8838 93.2593 84.6652 94.1384 83.9903C95.0174 83.3155 94.8931 82.7028 94.8931 82.7028C94.3283 82.5598 93.7329 82.5967 93.19 82.8084C92.6472 83.0201 92.184 83.3961 91.8652 83.8838Z" fill="white"/>
</g>
<g style="mix-blend-mode:soft-light" opacity="0.7">
<path fill-rule="evenodd" clip-rule="evenodd" d="M98.0813 48.455L98.1435 49.5027C98.1435 49.5027 102.761 49.627 104.359 51.1188C105.957 52.6105 107.183 56.7927 108.248 57.725C108.366 56.1758 108.01 54.6273 107.227 53.2853C105.94 51.252 105.611 51.7226 104.341 50.8169C103.072 49.9112 100.505 48.1708 98.0813 48.455Z" fill="white"/>
</g>
<g style="mix-blend-mode:soft-light" opacity="0.7">
<path fill-rule="evenodd" clip-rule="evenodd" d="M106.071 60.8505C104.917 61.0814 102.431 62.3955 102.733 64.4023C102.733 64.4023 105.121 63.5143 105.645 62.5642C105.96 62.0502 106.108 61.4519 106.071 60.8505Z" fill="white"/>
</g>
<g style="mix-blend-mode:soft-light" opacity="0.7">
<path fill-rule="evenodd" clip-rule="evenodd" d="M95.894 90.046C97.6699 89.7085 101 90.3923 101.408 91.7242C100.339 92.0643 99.1888 92.0456 98.1316 91.6709C97.669 91.5634 97.2326 91.3642 96.8482 91.0851C96.4639 90.806 96.1394 90.4527 95.894 90.046Z" fill="white"/>
</g>
<path fill-rule="evenodd" clip-rule="evenodd" d="M86.1646 88.8206C86.1646 88.8206 87.2834 98.6679 97.2372 98.1262C106.17 97.6379 107.093 85.4908 107.093 85.4908L86.1646 88.8206Z" fill="#E16070"/>
<path fill-rule="evenodd" clip-rule="evenodd" d="M85.5442 85.9083C85.5442 85.9083 86.4321 96.3682 95.5779 97.0608C106.047 97.8511 107.121 85.5176 107.121 85.5176C107.121 85.5176 104.599 80.554 97.5314 80.1367C88.6165 79.5862 85.5442 85.9083 85.5442 85.9083Z" fill="url(#paint49_linear)"/>
<path d="M99.5782 91.5287C101.179 88.8296 100.288 85.3439 97.5892 83.7433C94.8901 82.1426 91.4044 83.0331 89.8038 85.7323C88.2031 88.4314 89.0936 91.9171 91.7927 93.5177C94.4919 95.1184 97.9776 94.2279 99.5782 91.5287Z" fill="#37193E"/>
<path fill-rule="evenodd" clip-rule="evenodd" d="M85.5442 85.9081C85.5442 85.9081 87.3822 79.8967 96.1462 78.8046C98.8227 78.4383 101.548 78.8646 103.984 80.0309C106.421 81.1971 108.463 83.0522 109.856 85.3664L106.944 86.2544L107.094 85.4552C105.829 83.7963 104.179 82.4691 102.288 81.5876C100.396 80.7061 98.3195 80.2965 96.235 80.394C94.1649 80.507 92.1421 81.0567 90.2995 82.007C88.457 82.9574 86.8364 84.2868 85.5442 85.9081Z" fill="#37193E"/>
<path fill-rule="evenodd" clip-rule="evenodd" d="M90.3121 87.8882C90.3256 88.1543 90.2601 88.4184 90.1238 88.6473C89.9876 88.8762 89.7866 89.0596 89.5463 89.1745C89.306 89.2894 89.037 89.3306 88.7733 89.2929C88.5096 89.2552 88.2629 89.1404 88.0644 88.9628C87.8658 88.7852 87.7243 88.5529 87.6575 88.295C87.5908 88.0371 87.6019 87.7652 87.6894 87.5136C87.7768 87.262 87.9368 87.0419 88.1491 86.881C88.3614 86.7202 88.6166 86.6257 88.8825 86.6096C89.2415 86.5902 89.5935 86.7139 89.8615 86.9536C90.1294 87.1932 90.2915 87.5293 90.3121 87.8882Z" fill="white"/>
<path fill-rule="evenodd" clip-rule="evenodd" d="M153.078 89.7706L140.194 86.1478L139.519 85.9614L131.226 83.6349L133.428 77.6591L137.574 78.3339L155.884 81.3263C156.155 82.0109 156.366 82.7181 156.514 83.4396C157.162 86.6095 155.875 88.5364 153.078 89.7706Z" fill="url(#paint50_radial)"/>
<path d="M130.122 91.0953C137.639 77.1864 132.458 59.817 118.549 52.2997C104.64 44.7823 87.2706 49.9637 79.7532 63.8725C72.2359 77.7814 77.4172 95.1508 91.3261 102.668C105.235 110.185 122.604 105.004 130.122 91.0953Z" fill="url(#paint51_radial)"/>
<path d="M108.769 104.164C124.453 102.166 135.547 87.8324 133.549 72.1488C131.551 56.4652 117.217 45.3708 101.534 47.3688C85.8503 49.3668 74.7559 63.7006 76.7539 79.3842C78.7519 95.0678 93.0856 106.162 108.769 104.164Z" fill="url(#paint52_radial)"/>
<path d="M106.949 99.0692C119.828 98.0783 129.465 86.8345 128.474 73.9555C127.483 61.0766 116.239 51.4395 103.36 52.4305C90.481 53.4214 80.8439 64.6652 81.8349 77.5442C82.8258 90.4231 94.0696 100.06 106.949 99.0692Z" fill="url(#paint53_linear)"/>
<path fill-rule="evenodd" clip-rule="evenodd" d="M119.542 55.1322C114.833 51.7348 109.07 50.1223 103.282 50.5827C97.4943 51.0432 92.0586 53.5466 87.9465 57.6457C83.8343 61.7447 81.3136 67.1724 80.8346 72.9588C80.3557 78.7452 81.9498 84.5134 85.3321 89.2328C88.7144 93.9521 93.6646 97.3151 99.2981 98.7208C104.932 100.127 110.881 99.4835 116.084 96.9065C121.287 94.3295 125.404 89.9864 127.7 84.6533C129.996 79.3203 130.321 73.3447 128.617 67.7942C127.056 62.693 123.869 58.2427 119.542 55.1233V55.1322ZM125.553 85.4642C123.519 89.7098 120.228 93.2261 116.125 95.535C112.023 97.844 107.309 98.8336 102.624 98.3693C97.9396 97.905 93.5116 96.0093 89.9422 92.94C86.3728 89.8707 83.8352 85.7767 82.6744 81.2145C81.5136 76.6523 81.7859 71.8433 83.4542 67.4413C85.1226 63.0393 88.1061 59.2578 91.9991 56.611C95.8921 53.9642 100.506 52.5805 105.213 52.6479C109.92 52.7154 114.492 54.2307 118.308 56.988C122.668 60.1251 125.784 64.6978 127.109 69.9035C128.434 75.1092 127.883 80.6153 125.553 85.4553V85.4642Z" fill="url(#paint54_radial)"/>
<path fill-rule="evenodd" clip-rule="evenodd" d="M117.81 73.5838C117.81 73.5838 126.547 78.503 127.115 77.6772C127.683 76.8514 130.143 71.0532 130.143 71.0532C130.143 71.0532 129.566 78.0412 126.458 82.3389C126.494 82.3389 120.189 74.8535 117.81 73.5838Z" fill="#FFC395"/>
<g style="mix-blend-mode:soft-light">
<path fill-rule="evenodd" clip-rule="evenodd" d="M97.5977 74.4447C97.5977 74.4447 99.8264 75.6878 101.229 74.6045C102.632 73.5212 102.437 72.5534 102.437 72.5534C101.534 72.3204 100.58 72.3777 99.7117 72.7172C98.8431 73.0567 98.1034 73.6611 97.5977 74.4447Z" fill="white"/>
</g>
<path fill-rule="evenodd" clip-rule="evenodd" d="M87.7881 77.1089C87.7881 77.1089 92.7517 60.1137 107.483 59.9983C122.214 59.8829 128.021 75.8391 128.021 75.8391C128.021 75.8391 127.461 78.6362 126.298 78.9558C125.135 79.2755 124.22 70.3694 110.892 69.0375C97.5643 67.7056 87.7881 77.1089 87.7881 77.1089Z" fill="#FFC395"/>
<g style="mix-blend-mode:soft-light" opacity="0.7">
<path fill-rule="evenodd" clip-rule="evenodd" d="M104.012 84.2923C106.8 83.7595 112.172 84.8428 112.838 86.9561C111.127 87.5025 109.283 87.4714 107.591 86.8673C104.687 85.8906 104.012 84.2923 104.012 84.2923Z" fill="white"/>
</g>
<path fill-rule="evenodd" clip-rule="evenodd" d="M88.4546 82.33C88.4546 82.33 90.2305 98.0821 106.16 97.2119C120.447 96.4305 121.912 77.0113 121.912 77.0113L88.4546 82.33Z" fill="#FFC395"/>
<path fill-rule="evenodd" clip-rule="evenodd" d="M87.469 77.686C87.469 77.686 88.8808 94.4059 103.505 95.5069C120.234 96.7767 121.912 77.0111 121.912 77.0111C121.912 77.0111 117.304 64.1715 106.009 63.5056C91.8021 62.6709 87.469 77.686 87.469 77.686Z" fill="url(#paint55_linear)"/>
<path fill-rule="evenodd" clip-rule="evenodd" d="M110.44 80.5272C110.542 82.3229 110.11 84.1087 109.197 85.6586C108.285 87.2085 106.933 88.453 105.313 89.2346C103.693 90.0162 101.878 90.2999 100.097 90.0497C98.3157 89.7994 96.6489 89.0266 95.307 87.8289C93.9652 86.6312 93.0088 85.0625 92.5586 83.3211C92.1085 81.5798 92.185 79.744 92.7783 78.0461C93.3716 76.3482 94.4552 74.8644 95.8919 73.7824C97.3287 72.7004 99.054 72.0688 100.85 71.9675C103.256 71.8318 105.618 72.6572 107.417 74.2622C109.215 75.8673 110.302 78.1208 110.44 80.5272Z" fill="#371903"/>
<path fill-rule="evenodd" clip-rule="evenodd" d="M87.469 77.6859C87.469 77.6859 90.3548 64.1359 104.34 62.4666C120.465 60.5397 126.299 76.8068 126.299 76.8068L121.628 78.2897L121.877 77.011C121.877 77.011 116.132 64.0471 104.34 64.7397C93.0364 65.4145 87.469 77.6859 87.469 77.6859Z" fill="#371903"/>
<path fill-rule="evenodd" clip-rule="evenodd" d="M95.2307 81.6461C95.2546 82.0723 95.1516 82.496 94.9347 82.8636C94.7178 83.2312 94.3968 83.5263 94.0121 83.7114C93.6275 83.8965 93.1966 83.9634 92.774 83.9035C92.3514 83.8437 91.956 83.6599 91.6378 83.3753C91.3197 83.0907 91.0931 82.7182 90.9868 82.3048C90.8804 81.8914 90.899 81.4558 91.0403 81.053C91.1816 80.6502 91.4392 80.2984 91.7804 80.042C92.1217 79.7856 92.5314 79.6362 92.9576 79.6127C93.2406 79.5959 93.5241 79.6353 93.7918 79.7286C94.0595 79.8219 94.3061 79.9672 94.5174 80.1562C94.7287 80.3452 94.9005 80.5742 95.0229 80.8299C95.1454 81.0856 95.216 81.363 95.2307 81.6461Z" fill="white"/>
<g style="mix-blend-mode:multiply">
<path fill-rule="evenodd" clip-rule="evenodd" d="M87.938 80.0745C87.938 80.0745 91.6584 69.4192 103.148 68.8687C114.638 68.3181 121.697 78.858 121.697 78.858L121.911 77.0111C121.911 77.0111 117.737 64.3757 105.217 64.3757C93.2567 64.3757 87.4585 77.6948 87.4585 77.6948L87.938 80.0745Z" fill="#D8CBD9"/>
</g>
<path style="mix-blend-mode:screen" opacity="0.5" fill-rule="evenodd" clip-rule="evenodd" d="M126.875 69.0818C128.463 74.2497 128.162 79.8138 126.024 84.7798C123.887 89.7457 120.054 93.79 115.21 96.1898C110.365 98.5897 104.825 99.1887 99.5797 97.8799C94.3342 96.5711 89.7251 93.4397 86.5758 89.0454C83.4266 84.651 81.9425 79.2801 82.3888 73.8922C82.8351 68.5044 85.1827 63.4508 89.0121 59.6345C92.8414 55.8182 97.903 53.4879 103.292 53.0601C108.682 52.6322 114.048 54.1346 118.431 57.2989C122.468 60.1884 125.436 64.3307 126.875 69.0818Z" fill="url(#paint56_radial)"/>
<path style="mix-blend-mode:screen" opacity="0.5" fill-rule="evenodd" clip-rule="evenodd" d="M83.6777 66.9598L124.523 88.8386C124.523 88.8386 127.338 85.4556 128.332 78.7605L101.774 52.8504C101.774 52.8504 89.5115 53.8094 83.6777 66.9598Z" fill="url(#paint57_linear)"/>
<path fill-rule="evenodd" clip-rule="evenodd" d="M96.704 59.3411C96.8344 59.7663 96.8357 60.2206 96.7077 60.6466C96.5797 61.0725 96.3282 61.4508 95.985 61.7337C95.6418 62.0165 95.2223 62.1911 94.7798 62.2353C94.3373 62.2796 93.8915 62.1915 93.4991 61.9822C93.1067 61.7729 92.7852 61.4518 92.5755 61.0597C92.3657 60.6676 92.277 60.222 92.3207 59.7794C92.3644 59.3368 92.5384 58.9171 92.8208 58.5735C93.1032 58.23 93.4812 57.9779 93.907 57.8494C94.1886 57.7632 94.4844 57.7334 94.7776 57.7617C95.0707 57.79 95.3553 57.876 95.6152 58.0146C95.875 58.1532 96.105 58.3417 96.2918 58.5693C96.4787 58.797 96.6188 59.0592 96.704 59.3411Z" fill="white"/>
<g style="mix-blend-mode:soft-light">
<path fill-rule="evenodd" clip-rule="evenodd" d="M122.126 87.4709C122.605 87.9504 122.25 89.0959 121.327 90.0104C120.403 90.925 119.267 91.2802 118.778 90.8007C118.29 90.3212 118.654 89.1758 119.577 88.2523C120.501 87.3289 121.637 86.9826 122.126 87.4709Z" fill="white"/>
</g>
<g style="mix-blend-mode:soft-light">
<path fill-rule="evenodd" clip-rule="evenodd" d="M80.2407 61.6318L83.7925 63.0258C85.4227 60.0953 87.6377 57.5309 90.3 55.4918C92.9623 53.4527 96.0152 51.9823 99.2693 51.1718L98.5767 47.8598C94.7312 48.7554 91.1147 50.4427 87.9577 52.8139C84.8006 55.1851 82.1724 58.1882 80.2407 61.6318Z" fill="#C4DAFF"/>
</g>
<g style="mix-blend-mode:soft-light">
<path fill-rule="evenodd" clip-rule="evenodd" d="M82.47 65.9118L78.6785 64.8729C77.9638 66.5515 77.431 68.3018 77.0891 70.0939L81.1648 70.165C81.5203 68.724 81.9561 67.3041 82.47 65.9118Z" fill="#C4DAFF"/>
</g>
<path fill-rule="evenodd" clip-rule="evenodd" d="M110.796 99.5913C110.796 99.5913 114.019 98.0196 115.138 98.1262C113.883 99.0635 112.362 99.5767 110.796 99.5913Z" fill="white"/>
<path fill-rule="evenodd" clip-rule="evenodd" d="M141.145 76.4072C141.145 76.4072 139.227 79.8702 139.938 82.6228C140.654 83.0975 141.519 83.2962 142.371 83.1822L143.054 82.0634C142.854 82.9222 142.717 83.7948 142.646 84.6739C142.646 84.6739 142.744 85.5618 145.594 85.5618L146.606 84.0701V85.0912C146.606 85.0912 147.246 85.7661 149.386 85.5618C149.386 85.5618 150.158 84.4431 150.673 83.5285C151.196 83.8148 151.768 83.9987 152.36 84.0701C153.351 83.045 154.074 81.7916 154.465 80.4207C153.788 79.764 152.901 79.3677 151.961 79.3019L151.614 79.6393L148.435 79.1332L148.098 79.3996L148.027 78.9112L144.608 78.2541L144.147 78.5116L144.378 77.526C144.378 77.526 143.623 75.5193 141.145 76.4072Z" fill="url(#paint58_linear)"/>
<path fill-rule="evenodd" clip-rule="evenodd" d="M144.38 77.4729C143.422 79.2585 142.745 81.1813 142.374 83.1734L143.057 82.0546L144.611 78.201L144.203 78.3342L144.38 77.4729Z" fill="#FFC395"/>
<path fill-rule="evenodd" clip-rule="evenodd" d="M148.029 78.858C148.029 78.858 147.354 80.9713 146.608 84.017C146.608 84.017 147.789 79.9058 148.437 79.08L148.117 79.2576L148.029 78.858Z" fill="#FFC395"/>
<path fill-rule="evenodd" clip-rule="evenodd" d="M151.614 79.5861L150.672 83.4753C150.932 82.1664 151.089 80.8394 151.143 79.5062L151.614 79.5861Z" fill="#FFC395"/>
<defs>
<linearGradient id="paint0_linear" x1="58.4414" y1="118.557" x2="105.679" y2="115.723" gradientUnits="userSpaceOnUse">
<stop stop-color="#B44263"/>
<stop offset="0.98" stop-color="#EF5666"/>
</linearGradient>
<linearGradient id="paint1_linear" x1="19.2061" y1="143.102" x2="33.7602" y2="84.7285" gradientUnits="userSpaceOnUse">
<stop stop-color="#684A72"/>
<stop offset="0.99" stop-color="#46255E"/>
</linearGradient>
<linearGradient id="paint2_linear" x1="17.594" y1="142.7" x2="25.7723" y2="109.899" gradientUnits="userSpaceOnUse">
<stop offset="0.02" stop-color="#FFC395"/>
<stop offset="1" stop-color="#FFCEA8"/>
</linearGradient>
<linearGradient id="paint3_linear" x1="5538.88" y1="7440.02" x2="5538.88" y2="5642.83" gradientUnits="userSpaceOnUse">
<stop stop-color="#0099CE"/>
<stop offset="0.99" stop-color="#0099CE"/>
</linearGradient>
<linearGradient id="paint4_linear" x1="5315.03" y1="4423.06" x2="5669.9" y2="4237.99" gradientUnits="userSpaceOnUse">
<stop offset="0.02" stop-color="#FF9D52"/>
<stop offset="1" stop-color="#FFCEA8"/>
</linearGradient>
<linearGradient id="paint5_linear" x1="88.5947" y1="154.435" x2="106.664" y2="154.435" gradientUnits="userSpaceOnUse">
<stop offset="0.01" stop-color="#371903"/>
<stop offset="1" stop-color="#731653"/>
</linearGradient>
<linearGradient id="paint6_linear" x1="8134.64" y1="7043.03" x2="8134.64" y2="5433.28" gradientUnits="userSpaceOnUse">
<stop stop-color="#0099CE"/>
<stop offset="0.99" stop-color="#0099CE"/>
</linearGradient>
<linearGradient id="paint7_linear" x1="5523.45" y1="4705.02" x2="6199.92" y2="4274.5" gradientUnits="userSpaceOnUse">
<stop offset="0.02" stop-color="#FF9D52"/>
<stop offset="1" stop-color="#FFCEA8"/>
</linearGradient>
<linearGradient id="paint8_linear" x1="4473.84" y1="562.449" x2="4846.72" y2="562.449" gradientUnits="userSpaceOnUse">
<stop offset="0.01" stop-color="#371903"/>
<stop offset="1" stop-color="#731653"/>
</linearGradient>
<linearGradient id="paint9_linear" x1="11344.5" y1="2232.8" x2="12617.5" y2="2156.42" gradientUnits="userSpaceOnUse">
<stop stop-color="#684A72"/>
<stop offset="0.99" stop-color="#46255E"/>
</linearGradient>
<linearGradient id="paint10_linear" x1="85.9441" y1="116.67" x2="72.2013" y2="36.8433" gradientUnits="userSpaceOnUse">
<stop offset="0.02" stop-color="#FF9F9A"/>
<stop offset="1" stop-color="#FFB2B8"/>
</linearGradient>
<linearGradient id="paint11_linear" x1="61.7792" y1="74.1647" x2="60.3133" y2="49.7338" gradientUnits="userSpaceOnUse">
<stop offset="0.02" stop-color="#DF8792"/>
<stop offset="0.34" stop-color="#ECB9C0"/>
<stop offset="0.62" stop-color="#F7DFE2"/>
<stop offset="0.86" stop-color="#FDF6F7"/>
<stop offset="1" stop-color="white"/>
</linearGradient>
<linearGradient id="paint12_linear" x1="61.1098" y1="64.8323" x2="60.5674" y2="55.7932" gradientUnits="userSpaceOnUse">
<stop offset="0.02" stop-color="#DF8792"/>
<stop offset="1" stop-color="#FFD0C6"/>
</linearGradient>
<linearGradient id="paint13_linear" x1="50.095" y1="90.1215" x2="48.8219" y2="68.9033" gradientUnits="userSpaceOnUse">
<stop offset="0.02" stop-color="#DF8792"/>
<stop offset="1" stop-color="white"/>
</linearGradient>
<linearGradient id="paint14_linear" x1="4602.44" y1="1375.28" x2="4602.44" y2="1039.31" gradientUnits="userSpaceOnUse">
<stop offset="0.02" stop-color="#DF8792"/>
<stop offset="1" stop-color="#FFD0C6"/>
</linearGradient>
<linearGradient id="paint15_linear" x1="9531.54" y1="1374.03" x2="9531.54" y2="1154.77" gradientUnits="userSpaceOnUse">
<stop offset="0.02" stop-color="#DF8792"/>
<stop offset="0.34" stop-color="#ECB9C0"/>
<stop offset="0.62" stop-color="#F7DFE2"/>
<stop offset="0.86" stop-color="#FDF6F7"/>
<stop offset="1" stop-color="white"/>
</linearGradient>
<linearGradient id="paint16_linear" x1="4109.71" y1="800.191" x2="4109.71" y2="709.159" gradientUnits="userSpaceOnUse">
<stop offset="0.02" stop-color="#DF8792"/>
<stop offset="0.34" stop-color="#ECB9C0"/>
<stop offset="0.62" stop-color="#F7DFE2"/>
<stop offset="0.86" stop-color="#FDF6F7"/>
<stop offset="1" stop-color="white"/>
</linearGradient>
<linearGradient id="paint17_linear" x1="16904.6" y1="2252.54" x2="16904.6" y2="1815.74" gradientUnits="userSpaceOnUse">
<stop offset="0.02" stop-color="#DF8792"/>
<stop offset="1" stop-color="white"/>
</linearGradient>
<linearGradient id="paint18_linear" x1="7949.63" y1="692.8" x2="7949.63" y2="592.727" gradientUnits="userSpaceOnUse">
<stop offset="0.02" stop-color="#DF8792"/>
<stop offset="0.34" stop-color="#ECB9C0"/>
<stop offset="0.62" stop-color="#F7DFE2"/>
<stop offset="0.86" stop-color="#FDF6F7"/>
<stop offset="1" stop-color="white"/>
</linearGradient>
<linearGradient id="paint19_linear" x1="25409.1" y1="5823.76" x2="25409.1" y2="4095.89" gradientUnits="userSpaceOnUse">
<stop offset="0.02" stop-color="#DF8792"/>
<stop offset="1" stop-color="#FFD0C6"/>
</linearGradient>
<linearGradient id="paint20_linear" x1="3763.96" y1="1282.64" x2="3971.98" y2="1282.64" gradientUnits="userSpaceOnUse">
<stop offset="0.02" stop-color="#DF8792"/>
<stop offset="1" stop-color="#FFD0C6"/>
</linearGradient>
<linearGradient id="paint21_linear" x1="96.6527" y1="96.8915" x2="95.6078" y2="79.4759" gradientUnits="userSpaceOnUse">
<stop stop-color="white"/>
<stop offset="0.98" stop-color="#FAC8CD"/>
</linearGradient>
<linearGradient id="paint22_linear" x1="3484.64" y1="-57.4008" x2="3463.18" y2="-123.344" gradientUnits="userSpaceOnUse">
<stop offset="0.01" stop-color="#9A1A43"/>
<stop offset="1" stop-color="#731653"/>
</linearGradient>
<linearGradient id="paint23_linear" x1="1872.37" y1="635.766" x2="1872.37" y2="615.308" gradientUnits="userSpaceOnUse">
<stop stop-color="white"/>
<stop offset="0.98" stop-color="#FAC8CD"/>
</linearGradient>
<radialGradient id="paint24_radial" cx="0" cy="0" r="1" gradientUnits="userSpaceOnUse" gradientTransform="translate(149.397 80.6846) rotate(7.93) scale(10.482)">
<stop stop-color="#0678C0"/>
<stop offset="0.73" stop-color="#0678C0"/>
</radialGradient>
<radialGradient id="paint25_radial" cx="0" cy="0" r="1" gradientUnits="userSpaceOnUse" gradientTransform="translate(106.268 51.1642) rotate(-17.0164) scale(50.0837)">
<stop stop-color="#746874"/>
<stop offset="0.98" stop-color="#6C4D80"/>
</radialGradient>
<radialGradient id="paint26_radial" cx="0" cy="0" r="1" gradientUnits="userSpaceOnUse" gradientTransform="translate(107.292 48.369) rotate(-17.06) scale(50.2321)">
<stop stop-color="#D3D3D3"/>
<stop offset="0.98" stop-color="#9E8ABC"/>
</radialGradient>
<linearGradient id="paint27_linear" x1="82.7773" y1="81.8434" x2="128.685" y2="67.7619" gradientUnits="userSpaceOnUse">
<stop offset="0.01" stop-color="#46185E"/>
<stop offset="1" stop-color="#68466D"/>
</linearGradient>
<radialGradient id="paint28_radial" cx="0" cy="0" r="1" gradientUnits="userSpaceOnUse" gradientTransform="translate(18315.2 -13257.6) rotate(-17.06) scale(1379.15)">
<stop stop-color="#746874"/>
<stop offset="0.98" stop-color="#6C4D80"/>
</radialGradient>
<linearGradient id="paint29_linear" x1="43093.2" y1="19467.9" x2="41335.9" y2="1207.83" gradientUnits="userSpaceOnUse">
<stop offset="0.02" stop-color="#FFCDA6"/>
<stop offset="1" stop-color="#FFC395"/>
</linearGradient>
<linearGradient id="paint30_linear" x1="13606.7" y1="2864.69" x2="13606.7" y2="1216.73" gradientUnits="userSpaceOnUse">
<stop offset="0.02" stop-color="#DF8792"/>
<stop offset="0.34" stop-color="#ECB9C0"/>
<stop offset="0.62" stop-color="#F7DFE2"/>
<stop offset="0.86" stop-color="#FDF6F7"/>
<stop offset="1" stop-color="white"/>
</linearGradient>
<linearGradient id="paint31_linear" x1="5285.33" y1="842.538" x2="5285.33" y2="618.883" gradientUnits="userSpaceOnUse">
<stop offset="0.02" stop-color="#DF8792"/>
<stop offset="1" stop-color="#FFD0C6"/>
</linearGradient>
<linearGradient id="paint32_linear" x1="7920.73" y1="3395.35" x2="7920.73" y2="2158.46" gradientUnits="userSpaceOnUse">
<stop offset="0.02" stop-color="#DF8792"/>
<stop offset="1" stop-color="white"/>
</linearGradient>
<linearGradient id="paint33_linear" x1="6563.99" y1="1329.2" x2="6563.99" y2="470.783" gradientUnits="userSpaceOnUse">
<stop offset="0.02" stop-color="#DF8792"/>
<stop offset="1" stop-color="#FFD0C6"/>
</linearGradient>
<linearGradient id="paint34_linear" x1="15746.5" y1="1715.2" x2="15746.5" y2="1155" gradientUnits="userSpaceOnUse">
<stop offset="0.02" stop-color="#DF8792"/>
<stop offset="0.34" stop-color="#ECB9C0"/>
<stop offset="0.62" stop-color="#F7DFE2"/>
<stop offset="0.86" stop-color="#FDF6F7"/>
<stop offset="1" stop-color="white"/>
</linearGradient>
<linearGradient id="paint35_linear" x1="6757.36" y1="869.198" x2="6757.36" y2="636.849" gradientUnits="userSpaceOnUse">
<stop offset="0.02" stop-color="#DF8792"/>
<stop offset="0.34" stop-color="#ECB9C0"/>
<stop offset="0.62" stop-color="#F7DFE2"/>
<stop offset="0.86" stop-color="#FDF6F7"/>
<stop offset="1" stop-color="white"/>
</linearGradient>
<linearGradient id="paint36_linear" x1="27522.7" y1="3297.39" x2="27522.7" y2="2182.3" gradientUnits="userSpaceOnUse">
<stop offset="0.02" stop-color="#DF8792"/>
<stop offset="1" stop-color="white"/>
</linearGradient>
<linearGradient id="paint37_linear" x1="12655.8" y1="519.127" x2="12655.8" y2="263.573" gradientUnits="userSpaceOnUse">
<stop offset="0.02" stop-color="#DF8792"/>
<stop offset="0.34" stop-color="#ECB9C0"/>
<stop offset="0.62" stop-color="#F7DFE2"/>
<stop offset="0.86" stop-color="#FDF6F7"/>
<stop offset="1" stop-color="white"/>
</linearGradient>
<linearGradient id="paint38_linear" x1="40349.6" y1="10005.3" x2="40349.6" y2="5588.31" gradientUnits="userSpaceOnUse">
<stop offset="0.02" stop-color="#DF8792"/>
<stop offset="1" stop-color="#FFD0C6"/>
</linearGradient>
<linearGradient id="paint39_linear" x1="11054.1" y1="3927.64" x2="11054.1" y2="2741.2" gradientUnits="userSpaceOnUse">
<stop stop-color="white"/>
<stop offset="0.98" stop-color="#FAC8CD"/>
</linearGradient>
<linearGradient id="paint40_linear" x1="5418.33" y1="-101.241" x2="5363.49" y2="-269.703" gradientUnits="userSpaceOnUse">
<stop offset="0.01" stop-color="#FF9D52"/>
<stop offset="1" stop-color="#361903"/>
</linearGradient>
<linearGradient id="paint41_linear" x1="2904.86" y1="973.312" x2="2904.86" y2="920.745" gradientUnits="userSpaceOnUse">
<stop stop-color="white"/>
<stop offset="1" stop-color="white"/>
</linearGradient>
<radialGradient id="paint42_radial" cx="0" cy="0" r="1" gradientUnits="userSpaceOnUse" gradientTransform="translate(104.184 75.8228) rotate(-17.06) scale(23.2783)">
<stop/>
<stop offset="0.37" stop-color="#020101"/>
<stop offset="0.51" stop-color="#090504"/>
<stop offset="0.6" stop-color="#140D0A"/>
<stop offset="0.68" stop-color="#251712"/>
<stop offset="0.75" stop-color="#3B251D"/>
<stop offset="0.8" stop-color="#57362A"/>
<stop offset="0.86" stop-color="#774A3A"/>
<stop offset="0.91" stop-color="#9D624C"/>
<stop offset="0.95" stop-color="#C87D61"/>
<stop offset="0.99" stop-color="#F69978"/>
<stop offset="1" stop-color="#FF9F7C"/>
</radialGradient>
<linearGradient id="paint43_linear" x1="111.319" y1="93.0743" x2="98.9197" y2="52.6701" gradientUnits="userSpaceOnUse">
<stop/>
<stop offset="1" stop-color="#B99599"/>
</linearGradient>
<linearGradient id="paint44_linear" x1="7271.3" y1="2016.8" x2="7271.3" y2="1742.04" gradientUnits="userSpaceOnUse">
<stop offset="0.02" stop-color="#FFA892"/>
<stop offset="1" stop-color="#FFCEA8"/>
</linearGradient>
<linearGradient id="paint45_linear" x1="138.155" y1="91.997" x2="138.155" y2="77.304" gradientUnits="userSpaceOnUse">
<stop stop-color="#FFCEA8"/>
<stop offset="0.98" stop-color="#FFA892"/>
</linearGradient>
<linearGradient id="paint46_linear" x1="5546.16" y1="1096.21" x2="5546.16" y2="994.543" gradientUnits="userSpaceOnUse">
<stop offset="0.02" stop-color="#FFA892"/>
<stop offset="1" stop-color="#FFCEA8"/>
</linearGradient>
<linearGradient id="paint47_linear" x1="9328.9" y1="1345.94" x2="9328.9" y2="1131.41" gradientUnits="userSpaceOnUse">
<stop offset="0.02" stop-color="#DF8792"/>
<stop offset="0.34" stop-color="#ECB9C0"/>
<stop offset="0.62" stop-color="#F7DFE2"/>
<stop offset="0.86" stop-color="#FDF6F7"/>
<stop offset="1" stop-color="white"/>
</linearGradient>
<linearGradient id="paint48_linear" x1="4024.14" y1="784.493" x2="4024.14" y2="695.427" gradientUnits="userSpaceOnUse">
<stop offset="0.02" stop-color="#DF8792"/>
<stop offset="0.34" stop-color="#ECB9C0"/>
<stop offset="0.62" stop-color="#F7DFE2"/>
<stop offset="0.86" stop-color="#FDF6F7"/>
<stop offset="1" stop-color="white"/>
</linearGradient>
<linearGradient id="paint49_linear" x1="97.7429" y1="96.3801" x2="96.7205" y2="79.3406" gradientUnits="userSpaceOnUse">
<stop stop-color="white"/>
<stop offset="0.98" stop-color="#FAC8CD"/>
</linearGradient>
<radialGradient id="paint50_radial" cx="0" cy="0" r="1" gradientUnits="userSpaceOnUse" gradientTransform="translate(149.346 80.5227) rotate(7.92999) scale(10.2557)">
<stop stop-color="#48D5F7"/>
<stop offset="0.73" stop-color="#37BBEA"/>
</radialGradient>
<radialGradient id="paint51_radial" cx="0" cy="0" r="1" gradientUnits="userSpaceOnUse" gradientTransform="translate(107.15 51.64) rotate(-17.0164) scale(49.0023)">
<stop stop-color="#35BAE9"/>
<stop offset="0.98" stop-color="#0070BB"/>
</radialGradient>
<radialGradient id="paint52_radial" cx="0" cy="0" r="1" gradientUnits="userSpaceOnUse" gradientTransform="translate(108.152 48.9053) rotate(-17.06) scale(49.1474)">
<stop stop-color="#4CD6F8"/>
<stop offset="0.98" stop-color="#37BCEA"/>
</radialGradient>
<linearGradient id="paint53_linear" x1="84.1645" y1="81.6569" x2="129.081" y2="67.8795" gradientUnits="userSpaceOnUse">
<stop offset="0.01" stop-color="#371903"/>
<stop offset="1"/>
</linearGradient>
<radialGradient id="paint54_radial" cx="0" cy="0" r="1" gradientUnits="userSpaceOnUse" gradientTransform="translate(17922.9 -12969.7) rotate(-17.06) scale(1349.37)">
<stop stop-color="#37BBEA"/>
<stop offset="0.98" stop-color="#42D2F7"/>
</radialGradient>
<linearGradient id="paint55_linear" x1="10818.6" y1="3844.41" x2="10818.6" y2="2683.59" gradientUnits="userSpaceOnUse">
<stop stop-color="white"/>
<stop offset="0.98" stop-color="#FFC395"/>
</linearGradient>
<radialGradient id="paint56_radial" cx="0" cy="0" r="1" gradientUnits="userSpaceOnUse" gradientTransform="translate(105.11 75.766) rotate(-17.06) scale(22.7757)">
<stop/>
<stop offset="0.37" stop-color="#020101"/>
<stop offset="0.51" stop-color="#090504"/>
<stop offset="0.6" stop-color="#140D0A"/>
<stop offset="0.68" stop-color="#251712"/>
<stop offset="0.75" stop-color="#3B251D"/>
<stop offset="0.8" stop-color="#57362A"/>
<stop offset="0.86" stop-color="#774A3A"/>
<stop offset="0.91" stop-color="#9D624C"/>
<stop offset="0.95" stop-color="#C87D61"/>
<stop offset="0.99" stop-color="#F69978"/>
<stop offset="1" stop-color="#FFC395"/>
</radialGradient>
<linearGradient id="paint57_linear" x1="112.092" y1="92.6456" x2="99.9607" y2="53.1138" gradientUnits="userSpaceOnUse">
<stop/>
<stop offset="1" stop-color="#B99599"/>
</linearGradient>
<linearGradient id="paint58_linear" x1="5429.58" y1="1074.12" x2="5429.58" y2="974.647" gradientUnits="userSpaceOnUse">
<stop offset="0.02" stop-color="#FFA892"/>
<stop offset="1" stop-color="#FFCEA8"/>
</linearGradient>
</defs>
</svg>
